{
.appVersion = "3151";
.formatVersion = 3;
DisplayStrings = (
"ááâä̀àåãæbcçdðeéêëèfghiıíîïìjklmnñoóôöòø̃õœpþqrsßtuúûüùvwẃŵẅẁxyýŷÿỳz",
012345fO6789,
"aá́̂â̈ä̀à̊å̃ãæbcçdðeéêëèfghiıíîïìjklmnñoóôöòøõœpþqrsßtuúûüùvwwẃŵẅẁxyýŷÿỳzªº",
"A/acutecomb.case Á/circumflexcomb.case Â/dieresiscomb.case Ä/gravecomb.case À/ringcomb.case Å/tildecomb.case ÃÆBCÇDÐE/acutecomb.case É/circumflexcomb.case Ê/dieresiscomb.case Ë/gravecomb.case ÈFGHIÍÎÏÌJKLMNÑOÓÔÖÒØÕŒPÞQRSẞTUÚÛÜÙVWẂŴẄ/gravecomb.case ẀXYÝŶŸỲZ",
"aáâäàåãæbcçdðeéêëèfghiıíîïìjklmnñoóôöòøõœpþqrsßtuúûüùvwẃŵẅẁxyýŷÿỳz"
);
classes = (
{
automatic = 1;
code = "A Aacute Acircumflex Adieresis Agrave Aring Atilde AE B C Ccedilla D Eth E Eacute Ecircumflex Edieresis Egrave F G H I Iacute Icircumflex Idieresis Igrave J K L M N Ntilde O Oacute Ocircumflex Odieresis Ograve Oslash Otilde OE P Thorn Q R S Germandbls T U Uacute Ucircumflex Udieresis Ugrave V W Wacute Wcircumflex Wdieresis Wgrave X Y Yacute Ycircumflex Ydieresis Ygrave Z J_A_M_O.dlig";
name = Uppercase;
}
);
customParameters = (
{
name = unicodeRanges;
value = (
0
);
},
{
name = codePageRanges;
value = (
"1252",
"1250",
"949",
"1361"
);
},
{
name = fsType;
value = (
);
}
);
date = "2020-09-14 03:39:25 +0000";
familyName = "Gasoek One";
featurePrefixes = (
{
automatic = 1;
code = "languagesystem DFLT dflt;
";
name = Languagesystems;
}
);
features = (
{
automatic = 1;
code = "feature sups;
feature frac;
feature ordn;
feature fwid;
feature ss01;
feature ss02;
";
tag = aalt;
},
{
automatic = 1;
code = "lookup ccmp_Other_1 {
	@CombiningTopAccents = [acutecomb circumflexcomb dieresiscomb dotaccentcomb gravecomb ringcomb tildecomb];
	@CombiningNonTopAccents = [cedillacomb];
	sub [i]' @CombiningTopAccents by [idotless];
	sub [i]' @CombiningNonTopAccents @CombiningTopAccents by [idotless];
} ccmp_Other_1;
";
tag = ccmp;
},
{
automatic = 1;
code = "sub one by onesuperior;
sub two by twosuperior;
sub three by threesuperior;
sub four by foursuperior;
";
tag = sups;
},
{
automatic = 1;

glyphs = (
{
glyphname = A;
kernLeft = A;
kernRight = A;
lastChange = "2023-04-07 17:44:13 +0000";
layers = (
{
anchors = (
{
name = bottom;
pos = (404,0);
},
{
name = ogonek;
pos = (727,10);
},
{
name = top;
pos = (404,770);
}
);
hints = (
{
horizontal = 1;
place = (-161, 12);
place = (-161, 12);
type = Stem;
},
{
horizontal = 1;
place = (-127, 27);
place = (-127, 27);
type = Stem;
}
);
layerId = "75B71696-F68C-493E-998D-CC33CA41914E";
shapes = (
{
closed = 1;
nodes = (
(612,770,l),
(198,770,l),
(0,0,l),
(324,0,l),
(334,92,l),
(476,92,l),
(486,0,l),
(810,0,l)
);
},
{
closed = 1;
nodes = (
(432,485,l),
(443,389,l),
(367,389,l),
(378,485,l)
);
}
);
width = 808;
}
);
unicode = 65;
},
{
glyphname = Atilde;
kernLeft = A;
kernRight = A;
lastChange = "2023-04-07 17:46:19 +0000";
layers = (
{
hints = (
{
horizontal = 1;
place = (-161, 12);
place = (-161, 12);
type = Stem;
},
{
horizontal = 1;
place = (-127, 27);
place = (-127, 27);
type = Stem;
}
);
layerId = "75B71696-F68C-493E-998D-CC33CA41914E";
shapes = (
{
ref = A;
},
{
pos = (-1,0);
ref = tildecomb.case;
}
);
width = 808;
},
{
associatedMasterId = "75B71696-F68C-493E-998D-CC33CA41914E";
hints = (
{
horizontal = 1;
place = (-179, 13);
place = (-179, 13);
type = Stem;
},
{
horizontal = 1;
place = (-141, 30);
place = (-141, 30);
type = Stem;
}
);
layerId = "C3DC51DD-EBB5-4E35-ADAB-129AB85E1617";
name = "23년 3월 11일 18:38";
shapes = (
{
closed = 1;
nodes = (
(680,740,l),
(220,740,l),
(0,-113,l),
(360,-113,l),
(371,-11,l),
(529,-11,l),
(540,-113,l),
(900,-113,l)
);
},
{
closed = 1;
nodes = (
(480,424,l),
(492,319,l),
(408,319,l),
(420,424,l)
);
},
{
closed = 1;
nodes = (
(588,766,o),
(651,783,o),
(701,830,c),
(642,974,l),
(618,957,o),
(595,942,o),
(555,942,cs),
(480,942,o),
(474,973,o),
(381,973,cs),
(331,973,o),
(274,961,o),
(207,909,c),
(255,765,l),
(280,783,o),
(308,800,o),
(352,800,cs),
(428,800,o),
(434,766,o),
(524,766,cs)
);
}
);
width = 898;
}
);
unicode = 195;
},
{
glyphname = AE;
kernLeft = A;
lastChange = "2023-04-07 17:10:18 +0000";
layers = (
{
layerId = "75B71696-F68C-493E-998D-CC33CA41914E";
shapes = (
{
closed = 1;
nodes = (
(1002,302,l),
(1002,504,l),
(768,504,l),
(768,545,l),
(1024,545,l),
(1024,770,l),
(231,770,l),
(-2,0,l),
(331,0,l),
(349,92,l),
(462,92,l),
(462,0,l),
(1039,0,l),
(1039,261,l),
(768,261,l),
(768,302,l)
);
},
{
closed = 1;
nodes = (
(462,380,l),
(407,380,l),
(429,494,l),
(462,494,l)
);
}
);
width = 1048;
}
);
unicode = 198;
},
{
glyphname = B;
kernRight = B;
lastChange = "2023-04-07 17:10:18 +0000";
layers = (
{
layerId = "75B71696-F68C-493E-998D-CC33CA41914E";
shapes = (
{
closed = 1;
nodes = (
(696,430,o),
(713,479,o),
(713,554,cs),
(713,704,o),
(588,770,o),
(459,770,cs),
(24,770,l),
(24,0,l),
(504,0,ls),
(628,0,o),
(740,51,o),
(740,218,cs),
(740,305,o),
(711,364,o),
(664,400,c)
);
},
{
closed = 1;
nodes = (
(415,517,o),
(435,511,o),
(435,489,cs),
(435,467,o),
(419,463,o),
(408,463,cs),
(330,463,l),
(330,517,l),
(404,517,ls)
);
},
{
closed = 1;
nodes = (
(330,308,l),
(430,308,ls),
(441,308,o),
(461,302,o),
(461,280,cs),
(461,258,o),
(445,254,o),
(434,254,cs),
(330,254,l)
);
}
);
width = 753;
}
);
metricLeft = H;
unicode = 66;
},
{
glyphname = C;
kernLeft = O;
kernRight = C;
lastChange = "2023-04-07 17:10:18 +0000";
layers = (
{
layerId = "75B71696-F68C-493E-998D-CC33CA41914E";
shapes = (
{
closed = 1;
nodes = (
(427,266,ls),
(427,249,o),
(417,239,o),
(400,239,cs),
(383,239,o),
(373,249,o),
(373,266,cs),
(373,509,ls),
(373,527,o),
(383,536,o),
(400,536,cs),
(417,536,o),
(427,527,o),
(427,509,cs),
(427,428,l),
(754,463,l),
(754,554,ls),
(754,699,o),
(612,786,o),
(385,786,cs),
(183,786,o),
(43,701,o),
(25,554,cs),
(21,518,o),
(18,456,o),
(18,386,cs),
(18,315,o),
(21,253,o),
(25,217,cs),
(43,71,o),
(183,-13,o),
(385,-13,cs),
(617,-13,o),
(754,73,o),
(754,217,cs),
(754,355,l),
(427,374,l)
);
}
);
width = 772;
}
);
metricLeft = O;
unicode = 67;
},
{
glyphname = Ccedilla;
kernLeft = O;
kernRight = C;
lastChange = "2023-04-07 17:44:40 +0000";
layers = (
{
layerId = "75B71696-F68C-493E-998D-CC33CA41914E";
shapes = (
{
closed = 1;
nodes = (
(265,13,l),
(222,-50,l),
(340,-56,o),
(379,-59,o),
(379,-76,cs),
(379,-92,o),
(316,-87,o),
(196,-69,c),
(185,-179,l),
(385,-223,o),
(595,-197,o),
(595,-108,cs),
(595,-58,o),
(574,-31,o),
(492,-14,c),
(505,8,l)
);
},
{
ref = C;
}
);
width = 772;
}
);
unicode = 199;
},
{
glyphname = D;
kernRight = O;
lastChange = "2023-04-07 17:10:18 +0000";
layers = (
{
layerId = "75B71696-F68C-493E-998D-CC33CA41914E";
shapes = (
{
closed = 1;
nodes = (
(24,0,l),
(328,0,ls),
(741,-1,o),
(738,169,o),
(740,357,cs),
(743,601,o),
(720,770,o),
(330,770,cs),
(24,770,l)
);
},
{
closed = 1;
nodes = (
(402,272,o),
(402,249,o),
(375,249,cs),
(348,249,o),
(348,272,o),
(348,276,cs),
(348,492,ls),
(348,497,o),
(348,519,o),
(375,519,cs),
(402,519,o),
(402,497,o),
(402,492,cs),
(402,276,ls)
);
}
);
width = 756;
}
);
metricLeft = H;
unicode = 68;
},
{
glyphname = Eth;
kernRight = O;
lastChange = "2023-04-07 17:10:18 +0000";
layers = (
{
layerId = "75B71696-F68C-493E-998D-CC33CA41914E";
shapes = (
{
closed = 1;
nodes = (
(63,432,l),
(4,432,l),
(4,342,l),
(63,342,l),
(63,0,l),
(366,0,ls),
(779,0,o),
(777,169,o),
(779,357,cs),
(781,600,o),
(759,768,o),
(369,768,cs),
(63,768,l)
);
},
{
closed = 1;
nodes = (
(441,272,o),
(441,249,o),
(414,249,cs),
(387,249,o),
(387,272,o),
(387,276,cs),
(387,342,l),
(423,342,l),
(423,432,l),
(387,432,l),
(387,492,ls),
(387,497,o),
(387,519,o),
(414,519,cs),
(441,519,o),
(441,497,o),
(441,492,cs),
(441,276,ls)
);
}
);
width = 797;
}
);
unicode = 208;
},
{
glyphname = E;
kernLeft = H;
kernRight = E;
lastChange = "2023-04-07 17:44:54 +0000";
layers = (
{
anchors = (
{
name = bottom;
pos = (330,0);
},
{
name = ogonek;
pos = (593,10);
},
{
name = top;
pos = (330,770);
},
{
name = topleft;
pos = (20,770);
}
);
layerId = "75B71696-F68C-493E-998D-CC33CA41914E";
shapes = (
{
closed = 1;
nodes = (
(600,302,l),
(600,504,l),
(339,504,l),
(339,545,l),
(627,545,l),
(627,770,l),
(24,770,l),
(24,0,l),
(645,0,l),
(645,261,l),
(339,261,l),
(339,302,l)
);
}
);
width = 659;
}
);
metricLeft = H;
unicode = 69;
},
{
glyphname = F;
lastChange = "2023-04-07 17:10:18 +0000";
layers = (
{
layerId = "75B71696-F68C-493E-998D-CC33CA41914E";
shapes = (
{
closed = 1;
nodes = (
(24,770,l),
(24,0,l),
(339,0,l),
(339,266,l),
(627,266,l),
(627,484,l),
(339,484,l),
(339,525,l),
(636,525,l),
(636,770,l)
);
}
);
width = 653;
}
);
metricLeft = H;
unicode = 70;
},
{
glyphname = G;
kernLeft = O;
lastChange = "2023-04-07 17:10:18 +0000";
layers = (
{
layerId = "75B71696-F68C-493E-998D-CC33CA41914E";
shapes = (
{
closed = 1;
nodes = (
(751,701,o),
(617,786,o),
(396,786,cs),
(188,786,o),
(50,700,o),
(27,554,cs),
(22,519,o),
(18,458,o),
(18,389,cs),
(18,316,o),
(22,253,o),
(27,216,cs),
(50,70,o),
(187,-16,o),
(396,-16,cs),
(622,-16,o),
(756,71,o),
(756,218,cs),
(756,465,l),
(405,465,l),
(405,295,l),
(441,295,l),
(441,264,ls),
(441,241,o),
(428,228,o),
(405,228,cs),
(383,228,o),
(369,241,o),
(369,264,cs),
(369,510,ls),
(369,533,o),
(383,546,o),
(405,546,cs),
(428,546,o),
(441,533,o),
(441,510,cs),
(441,492,l),
(756,528,l),
(756,558,ls)
);
}
);
width = 774;
}
);
metricLeft = O;
unicode = 71;
},
{
glyphname = H;
kernLeft = H;
kernRight = H;
lastChange = "2023-04-07 17:10:18 +0000";
layers = (
{
layerId = "75B71696-F68C-493E-998D-CC33CA41914E";
shapes = (
{
closed = 1;
nodes = (
(348,554,l),
(348,770,l),
(24,770,l),
(24,0,l),
(348,0,l),
(348,248,l),
(429,248,l),
(429,0,l),
(753,0,l),
(753,770,l),
(429,770,l),
(429,554,l)
);
}
);
width = 778;
}
);
unicode = 72;
},
{
glyphname = I;
lastChange = "2023-04-07 17:48:23 +0000";
layers = (
{
anchors = (
{
name = bottom;
pos = (182,0);
},
{
name = ogonek;
pos = (328,10);
},
{
name = top;
pos = (182,770);
},
{
name = topleft;
pos = (20,770);
}
);
layerId = "75B71696-F68C-493E-998D-CC33CA41914E";
shapes = (
{
closed = 1;
nodes = (
(339,770,l),
(24,770,l),
(24,0,l),
(339,-1,l)
);
}
);
width = 364;
}
);
metricLeft = H;
metricRight = H;
unicode = 73;
},
{
glyphname = J;
lastChange = "2023-04-07 17:10:18 +0000";
layers = (
{
layerId = "75B71696-F68C-493E-998D-CC33CA41914E";
shapes = (
{
closed = 1;
nodes = (
(293,-19,o),
(508,-8,o),
(508,287,cs),
(508,770,l),
(184,770,l),
(184,353,ls),
(184,253,o),
(129,260,o),
(22,262,c),
(14,-8,l)
);
}
);
width = 530;
}
);
unicode = 74;
},
{
glyphname = K;
lastChange = "2023-04-07 17:10:18 +0000";
layers = (
{
layerId = "75B71696-F68C-493E-998D-CC33CA41914E";
shapes = (
{
closed = 1;
nodes = (
(326,284,l),
(335,284,l),
(411,0,l),
(762,0,l),
(579,418,l),
(744,770,l),
(420,770,l),
(335,486,l),
(326,486,l),
(335,597,l),
(339,770,l),
(24,770,l),
(24,1,l),
(330,0,l)
);
}
);
width = 776;
}
);
metricLeft = H;
unicode = 75;
},
{
glyphname = L;
lastChange = "2023-04-07 17:10:18 +0000";
layers = (
{
layerId = "75B71696-F68C-493E-998D-CC33CA41914E";
shapes = (
{
closed = 1;
nodes = (
(24,770,l),
(24,0,l),
(645,0,l),
(645,306,l),
(339,306,l),
(339,770,l)
);
}
);
width = 663;
}
);
metricLeft = H;
unicode = 76;
},
{
glyphname = M;
lastChange = "2023-04-07 17:10:18 +0000";
layers = (
{
layerId = "75B71696-F68C-493E-998D-CC33CA41914E";
shapes = (
{
closed = 1;
nodes = (
(320,410,l),
(329,410,l),
(392,0,l),
(554,0,l),
(617,400,l),
(626,400,l),
(626,0,l),
(923,0,l),
(905,770,l),
(521,770,l),
(479,511,l),
(470,511,l),
(428,770,l),
(41,770,l),
(23,0,l),
(320,0,l)
);
}
);
width = 945;
}
);
unicode = 77;
},
{
glyphname = N;
lastChange = "2023-04-07 17:47:00 +0000";
layers = (
{
anchors = (
{
name = bottom;
pos = (383,0);
},
{
name = top;
pos = (383,770);
}
);
layerId = "75B71696-F68C-493E-998D-CC33CA41914E";
shapes = (
{
closed = 1;
nodes = (
(315,360,l),
(324,360,l),
(419,0,l),
(743,0,l),
(743,770,l),
(446,770,l),
(450,490,l),
(441,490,l),
(374,770,l),
(23,770,l),
(23,0,l),
(320,0,l)
);
}
);
width = 765;
}
);
unicode = 78;
},
{
glyphname = O;
kernLeft = O;
kernRight = O;
lastChange = "2023-04-07 17:46:46 +0000";
layers = (
{
anchors = (
{
name = bottom;
pos = (387,0);
},
{
name = center;
pos = (387,385);
},
{
name = ogonek;
pos = (697,10);
},
{
name = top;
pos = (387,770);
},
{
name = topleft;
pos = (20,770);
},
{
name = topright;
pos = (754,770);
}
);
layerId = "75B71696-F68C-493E-998D-CC33CA41914E";
shapes = (
{
closed = 1;
nodes = (
(752,245,o),
(756,311,o),
(756,387,cs),
(756,459,o),
(752,523,o),
(747,558,cs),
(725,701,o),
(592,786,o),
(387,786,cs),
(183,786,o),
(49,700,o),
(27,554,cs),
(22,519,o),
(18,455,o),
(18,384,cs),
(18,310,o),
(22,243,o),
(27,206,cs),
(49,67,o),
(182,-16,o),
(387,-16,cs),
(592,-16,o),
(725,68,o),
(747,208,cs)
);
},
{
closed = 1;
nodes = (
(414,237,o),
(404,227,o),
(387,227,cs),
(370,227,o),
(360,237,o),
(360,254,cs),
(360,516,ls),
(360,533,o),
(370,543,o),
(387,543,cs),
(404,543,o),
(414,533,o),
(414,516,cs),
(414,254,ls)
);
}
);
width = 774;
}
);
metricLeft = O;
unicode = 79;
},
{
glyphname = Oslash;
kernLeft = O;
kernRight = O;
lastChange = "2023-04-07 17:10:18 +0000";
layers = (
{
layerId = "75B71696-F68C-493E-998D-CC33CA41914E";
shapes = (
{
closed = 1;
nodes = (
(597,746,l),
(540,772,o),
(470,786,o),
(387,786,cs),
(183,786,o),
(49,700,o),
(27,554,cs),
(22,519,o),
(18,455,o),
(18,384,cs),
(18,310,o),
(22,243,o),
(27,206,cs),
(35,154,o),
(59,109,o),
(97,74,c),
(49,9,l),
(122,-44,l),
(173,24,l),
(230,-2,o),
(302,-16,o),
(387,-16,cs),
(592,-16,o),
(725,68,o),
(747,208,cs),
(752,245,o),
(756,311,o),
(756,387,cs),
(756,459,o),
(752,523,o),
(747,558,cs),
(739,614,o),
(713,661,o),
(673,698,c),
(725,768,l),
(653,821,l)
);
},
{
closed = 1;
nodes = (
(360,276,l),
(414,349,l),
(414,254,ls),
(414,237,o),
(404,227,o),
(387,227,cs),
(370,227,o),
(360,237,o),
(360,254,cs)
);
},
{
closed = 1;
nodes = (
(360,516,ls),
(360,533,o),
(370,543,o),
(387,543,cs),
(404,543,o),
(414,533,o),
(414,516,cs),
(414,500,l),
(360,428,l)
);
}
);
width = 783;
}
);
unicode = 216;
},
{
glyphname = Otilde;
kernLeft = O;
kernRight = O;
lastChange = "2023-04-07 17:46:52 +0000";
layers = (
{
background = {
shapes = (
{
closed = 1;
nodes = (
(836,159,o),
(840,233,o),
(840,317,cs),
(840,401,o),
(836,475,o),
(830,516,cs),
(806,675,o),
(658,769,o),
(430,769,cs),
(203,769,o),
(54,674,o),
(30,512,cs),
(24,471,o),
(20,397,o),
(20,314,cs),
(20,231,o),
(24,157,o),
(30,116,cs),
(54,-40,o),
(202,-132,o),
(430,-132,cs),
(658,-132,o),
(806,-39,o),
(830,118,cs)
);
},
{
closed = 1;
nodes = (
(460,150,o),
(449,139,o),
(430,139,cs),
(411,139,o),
(400,150,o),
(400,169,cs),
(400,459,ls),
(400,478,o),
(411,489,o),
(430,489,cs),
(449,489,o),
(460,478,o),
(460,459,cs),
(460,169,ls)
);
},
{
closed = 1;
nodes = (
(570,787,o),
(633,804,o),
(683,851,c),
(624,995,l),
(600,978,o),
(577,963,o),
(537,963,cs),
(462,963,o),
(456,994,o),
(363,994,cs),
(313,994,o),
(256,982,o),
(189,930,c),
(237,786,l),
(262,804,o),
(290,821,o),
(334,821,cs),
(410,821,o),
(416,787,o),
(506,787,cs)
);
}
);
};
layerId = "75B71696-F68C-493E-998D-CC33CA41914E";
shapes = (
{
ref = O;
},
{
pos = (-18,0);
ref = tildecomb.case;
}
);
width = 774;
}
);
unicode = 213;
},
{
glyphname = OE;
kernLeft = O;
kernRight = E;
lastChange = "2023-04-07 17:10:18 +0000";
layers = (
{
layerId = "75B71696-F68C-493E-998D-CC33CA41914E";
shapes = (
{
closed = 1;
nodes = (
(935,302,l),
(935,504,l),
(701,504,l),
(701,545,l),
(958,545,l),
(958,770,l),
(395,770,ls),
(183,770,o),
(49,708,o),
(27,563,cs),
(22,526,o),
(18,459,o),
(18,384,cs),
(18,310,o),
(22,243,o),
(27,206,cs),
(49,66,o),
(182,0,o),
(395,0,cs),
(972,0,l),
(972,261,l),
(701,261,l),
(701,302,l)
);
},
{
closed = 1;
nodes = (
(347,544,o),
(366,554,o),
(395,554,c),
(395,242,l),
(366,242,o),
(347,252,o),
(347,287,cs),
(347,509,ls)
);
}
);
width = 981;
}
);
unicode = 338;
},
{
glyphname = P;
kernRight = P;
lastChange = "2023-04-07 17:10:18 +0000";
layers = (
{
layerId = "75B71696-F68C-493E-998D-CC33CA41914E";
shapes = (
{
closed = 1;
nodes = (
(339,212,l),
(491,212,ls),
(615,212,o),
(726,282,o),
(726,493,cs),
(726,707,o),
(619,770,o),
(491,770,cs),
(24,770,l),
(24,0,l),
(339,0,l)
);
},
{
closed = 1;
nodes = (
(428,517,o),
(447,511,o),
(447,489,cs),
(447,467,o),
(431,463,o),
(420,463,cs),
(321,463,l),
(321,517,l),
(417,517,ls)
);
}
);
width = 740;
}
);
metricLeft = H;
unicode = 80;
},
{
glyphname = Thorn;
kernLeft = H;
kernRight = P;
lastChange = "2023-04-07 17:10:18 +0000";
layers = (
{
layerId = "75B71696-F68C-493E-998D-CC33CA41914E";
shapes = (
{
closed = 1;
nodes = (
(338,770,l),
(23,770,l),
(23,0,l),
(338,0,l),
(338,122,l),
(498,122,ls),
(622,122,o),
(734,192,o),
(734,403,cs),
(734,615,o),
(626,678,o),
(498,678,cs),
(338,678,l)
);
},
{
closed = 1;
nodes = (
(338,427,l),
(424,427,ls),
(435,427,o),
(455,421,o),
(455,399,cs),
(455,377,o),
(438,373,o),
(428,373,cs),
(338,373,l)
);
}
);
width = 743;
}
);
unicode = 222;
},
{
glyphname = Q;
kernLeft = O;
lastChange = "2023-04-07 17:10:18 +0000";
layers = (
{
layerId = "75B71696-F68C-493E-998D-CC33CA41914E";
shapes = (
{
closed = 1;
nodes = (
(648,221,o),
(765,296,o),
(771,329,cs),
(774,343,o),
(774,358,o),
(774,374,cs),
(774,450,o),
(771,518,o),
(765,554,cs),
(741,702,o),
(603,788,o),
(396,786,cs),
(190,788,o),
(52,701,o),
(27,551,cs),
(22,518,o),
(18,451,o),
(18,384,cs),
(18,317,o),
(22,248,o),
(27,215,cs),
(66,-34,o),
(356,-88,o),
(608,-88,cs),
(692,-88,o),
(761,-80,o),
(792,-72,c),
(792,281,l),
(770,260,o),
(680,194,o),
(529,186,c),
(529,204,l)
);
},
{
closed = 1;
nodes = (
(378,510,o),
(378,533,o),
(405,533,cs),
(432,533,o),
(432,510,o),
(432,506,cs),
(432,317,ls),
(432,312,o),
(432,290,o),
(405,290,cs),
(378,290,o),
(378,312,o),
(378,317,cs),
(378,506,ls)
);
}
);
width = 808;
}
);
metricLeft = O;
unicode = 81;
},
{
glyphname = R;
lastChange = "2023-04-07 17:10:18 +0000";
layers = (
{
layerId = "75B71696-F68C-493E-998D-CC33CA41914E";
shapes = (
{
closed = 1;
nodes = (
(339,206,l),
(348,206,l),
(402,0,l),
(753,0,l),
(595,347,l),
(707,378,o),
(717,473,o),
(717,537,cs),
(717,706,o),
(610,770,o),
(482,770,cs),
(24,770,l),
(24,0,l),
(339,0,l)
);
},
{
closed = 1;
nodes = (
(419,524,o),
(438,518,o),
(438,496,cs),
(438,474,o),
(422,470,o),
(411,470,cs),
(312,470,l),
(312,524,l),
(408,524,ls)
);
}
);
width = 753;
}
);
metricLeft = H;
unicode = 82;
},
{
glyphname = S;
lastChange = "2023-04-07 17:10:18 +0000";
layers = (
{
layerId = "75B71696-F68C-493E-998D-CC33CA41914E";
shapes = (
{
closed = 1;
nodes = (
(596,470,o),
(522,489,o),
(410,497,cs),
(401,498,o),
(392,499,o),
(384,499,cs),
(371,499,o),
(363,495,o),
(363,482,cs),
(363,468,o),
(379,466,o),
(406,463,cs),
(536,447,o),
(719,433,o),
(719,225,cs),
(719,40,o),
(531,-16,o),
(333,-16,cs),
(218,-18,o),
(99,-2,o),
(13,20,c),
(41,372,l),
(86,338,o),
(147,292,o),
(328,275,cs),
(335,274,o),
(340,274,o),
(346,274,cs),
(360,274,o),
(368,276,o),
(368,290,cs),
(368,304,o),
(355,306,o),
(329,310,cs),
(185,327,o),
(27,355,o),
(27,532,cs),
(27,720,o),
(174,786,o),
(362,786,cs),
(467,786,o),
(585,765,o),
(697,732,c),
(667,428,l)
);
}
);
width = 729;
}
);
unicode = 83;
},
{
glyphname = Germandbls;
kernRight = B;
lastChange = "2023-04-07 17:10:18 +0000";
layers = (
{
layerId = "75B71696-F68C-493E-998D-CC33CA41914E";
name = Heavy;
shapes = (
{
closed = 1;
nodes = (
(697,694,o),
(573,786,o),
(393,786,cs),
(171,786,o),
(20,699,o),
(20,469,cs),
(20,0,l),
(317,0,l),
(317,406,ls),
(317,486,o),
(356,526,o),
(411,526,cs),
(419,526,o),
(435,525,o),
(442,522,c),
(365,419,l),
(365,310,l),
(443,304,o),
(499,281,o),
(499,248,cs),
(499,230,o),
(482,221,o),
(454,221,cs),
(426,221,o),
(380,239,o),
(357,255,c),
(339,0,l),
(387,-11,o),
(434,-15,o),
(496,-15,cs),
(666,-15,o),
(773,32,o),
(773,196,cs),
(773,293,o),
(737,358,o),
(638,405,c),
(733,501,l),
(733,642,l)
);
}
);
width = 783;
}
);
unicode = 7838;
},
{
glyphname = T;
lastChange = "2023-04-07 17:10:18 +0000";
layers = (
{
layerId = "75B71696-F68C-493E-998D-CC33CA41914E";
shapes = (
{
closed = 1;
nodes = (
(16,770,l),
(16,473,l),
(210,473,l),
(210,0,l),
(543,0,l),
(543,473,l),
(736,473,l),
(736,770,l)
);
}
);
width = 752;
}
);
unicode = 84;
},
{
glyphname = U;
kernLeft = U;
kernRight = U;
lastChange = "2023-04-07 17:47:50 +0000";
layers = (
{
anchors = (
{
name = bottom;
pos = (371,0);
},
{
name = ogonek;
pos = (668,10);
},
{
name = top;
pos = (371,770);
},
{
name = topright;
pos = (722,770);
}
);
layerId = "75B71696-F68C-493E-998D-CC33CA41914E";
shapes = (
{
closed = 1;
nodes = (
(20,252,ls),
(20,114,o),
(120,-16,o),
(362,-16,cs),
(637,-16,o),
(722,108,o),
(722,254,cs),
(722,770,l),
(398,770,l),
(398,268,ls),
(398,264,o),
(398,241,o),
(371,241,cs),
(344,241,o),
(344,264,o),
(344,268,cs),
(344,770,l),
(20,770,l)
);
}
);
width = 742;
}
);
unicode = 85;
},
{
glyphname = V;
lastChange = "2023-04-07 17:10:18 +0000";
layers = (
{
layerId = "75B71696-F68C-493E-998D-CC33CA41914E";
shapes = (
{
closed = 1;
nodes = (
(765,770,l),
(431,770,l),
(392,258,l),
(383,258,l),
(343,770,l),
(9,770,l),
(175,0,l),
(600,0,l)
);
}
);
width = 774;
}
);
unicode = 86;
},
{
glyphname = W;
kernLeft = W;
kernRight = W;
lastChange = "2023-04-07 17:47:35 +0000";
layers = (
{
anchors = (
{
name = bottom;
pos = (515,0);
},
{
name = top;
pos = (515,770);
}
);
layerId = "75B71696-F68C-493E-998D-CC33CA41914E";
shapes = (
{
closed = 1;
nodes = (
(515,203,l),
(524,203,l),
(572,0,l),
(916,0,l),
(1019,770,l),
(712,770,l),
(699,266,l),
(690,266,l),
(633,770,l),
(397,770,l),
(339,267,l),
(330,267,l),
(318,770,l),
(11,770,l),
(122,0,l),
(467,0,l)
);
}
);
width = 1030;
}
);
unicode = 87;
},
{
glyphname = X;
lastChange = "2023-04-07 17:10:18 +0000";
layers = (
{
layerId = "75B71696-F68C-493E-998D-CC33CA41914E";
shapes = (
{
closed = 1;
nodes = (
(397,540,l),
(347,770,l),
(14,770,l),
(140,419,l),
(5,0,l),
(347,0,l),
(397,299,l),
(406,299,l),
(455,0,l),
(788,0,l),
(662,419,l),
(788,770,l),
(446,770,l),
(406,540,l)
);
}
);
width = 799;
}
);
unicode = 88;
},
{
glyphname = Y;
kernLeft = Y;
lastChange = "2023-04-07 17:47:30 +0000";
layers = (
{
anchors = (
{
name = bottom;
pos = (378,0);
},
{
name = top;
pos = (378,770);
},
{
name = topleft;
pos = (20,770);
}
);
layerId = "75B71696-F68C-493E-998D-CC33CA41914E";
shapes = (
{
closed = 1;
nodes = (
(374,437,l),
(343,770,l),
(9,770,l),
(212,194,l),
(212,0,l),
(545,0,l),
(545,194,l),
(747,770,l),
(413,770,l),
(383,437,l)
);
}
);
width = 756;
}
);
unicode = 89;
},
{
glyphname = Z;
lastChange = "2023-04-07 17:10:18 +0000";
layers = (
{
layerId = "75B71696-F68C-493E-998D-CC33CA41914E";
shapes = (
{
closed = 1;
nodes = (
(682,770,l),
(34,770,l),
(34,500,l),
(251,500,l),
(16,207,l),
(16,0,l),
(691,0,l),
(691,270,l),
(447,270,l),
(682,563,l)
);
}
);
width = 707;
}
);
unicode = 90;
},
{
glyphname = J_A_M_O.dlig;
lastChange = "2023-04-07 17:10:18 +0000";
layers = (
{
layerId = "75B71696-F68C-493E-998D-CC33CA41914E";
shapes = (
{
closed = 1;
nodes = (
(725,380,o),
(761,418,o),
(761,468,cs),
(761,597,ls),
(761,608,o),
(770,618,o),
(781,618,cs),
(794,618,o),
(802,608,o),
(802,597,cs),
(802,384,l),
(869,384,l),
(869,590,ls),
(869,644,o),
(832,680,o),
(781,680,cs),
(731,680,o),
(694,644,o),
(694,590,cs),
(694,462,ls),
(694,451,o),
(686,443,o),
(675,443,cs),
(664,443,o),
(656,451,o),
(656,462,cs),
(656,590,ls),
(656,644,o),
(619,680,o),
(569,680,cs),
(518,680,o),
(481,644,o),
(481,590,cs),
(481,384,l),
(548,384,l),
(548,597,ls),
(548,608,o),
(556,618,o),
(569,618,cs),
(581,618,o),
(590,608,o),
(590,597,cs),
(590,468,ls),
(590,418,o),
(626,380,o),
(675,380,cs)
);
},
{
closed = 1;
nodes = (
(57,240,ls),
(115,240,o),
(158,284,o),
(158,340,cs),
(158,533,l),
(92,533,l),
(92,345,ls),
(92,322,o),
(74,303,o),
(52,303,cs),
(27,303,l),
(27,240,l)
);
},
{
closed = 1;
nodes = (
(234,240,l),
(257,304,l),
(365,304,l),
(389,240,l),
(463,240,l),
(365,491,ls),
(354,522,o),
(336,536,o),
(312,536,cs),
(289,536,o),
(271,522,o),
(259,491,cs),
(162,240,l)
);
},
{
closed = 1;
nodes = (
(311,451,l),
(343,365,l),
(280,365,l)
);
},
{
closed = 1;
nodes = (
(763,63,o),
(828,131,o),
(828,213,cs),
(828,296,o),
(763,364,o),
(675,364,cs),
(587,364,o),
(522,296,o),
(522,213,cs),
(522,131,o),
(587,63,o),
(675,63,cs)
);
},
{
closed = 1;
nodes = (
(630,130,o),
(595,167,o),
(595,213,cs),
(595,259,o),
(630,297,o),
(675,297,cs),
(720,297,o),
(755,259,o),
(755,213,cs),
(755,167,o),
(720,130,o),
(675,130,cs)
);
}
);
width = 900;
}
);
},
{
glyphname = a;
kernLeft = a;
kernRight = a;
lastChange = "2023-04-07 17:35:43 +0000";
layers = (
{
anchors = (
{
name = bottom;
pos = (320,0);
},
{
name = ogonek;
pos = (575,10);
},
{
name = top;
pos = (330,620);
}
);
layerId = "75B71696-F68C-493E-998D-CC33CA41914E";
shapes = (
{
closed = 1;
nodes = (
(626,38,o),
(623,77,o),
(621,116,c),
(621,419,ls),
(621,560,o),
(516,636,o),
(332,636,cs),
(247,636,o),
(144,620,o),
(27,586,c),
(45,370,l),
(86,394,o),
(158,426,o),
(265,426,cs),
(287,426,o),
(311,424,o),
(336,421,cs),
(351,419,o),
(363,410,o),
(360,387,c),
(329,389,o),
(302,391,o),
(276,391,cs),
(85,391,o),
(13,335,o),
(13,207,cs),
(13,159,ls),
(13,68,o),
(60,-16,o),
(209,-16,cs),
(317,-16,o),
(356,47,o),
(356,89,c),
(365,89,l),
(365,50,o),
(369,25,o),
(374,0,c),
(630,0,l)
);
},
{
closed = 1;
nodes = (
(340,184,o),
(340,161,o),
(313,161,cs),
(286,161,o),
(286,184,o),
(286,188,cs),
(286,251,ls),
(286,256,o),
(286,278,o),
(313,278,cs),
(340,278,o),
(340,256,o),
(340,251,cs),
(340,188,ls)
);
}
);
width = 639;
}
);
unicode = 97;
},
{
glyphname = atilde;
kernLeft = a;
kernRight = a;
lastChange = "2023-04-07 17:38:10 +0000";
layers = (
{
layerId = "75B71696-F68C-493E-998D-CC33CA41914E";
shapes = (
{
ref = a;
},
{
pos = (8,0);
ref = tildecomb;
}
);
width = 639;
},
{
associatedMasterId = "75B71696-F68C-493E-998D-CC33CA41914E";
layerId = "788E1ABF-ECBB-43F9-BAC6-BEDBB35484C9";
name = "23년 3월 11일 18:38";
shapes = (
{
closed = 1;
nodes = (
(695,-71,o),
(692,-27,o),
(690,16,c),
(690,360,ls),
(690,521,o),
(573,608,o),
(369,608,cs),
(274,608,o),
(160,589,o),
(30,549,c),
(50,305,l),
(96,332,o),
(175,367,o),
(294,367,cs),
(319,367,o),
(345,365,o),
(373,362,cs),
(390,360,o),
(403,350,o),
(400,324,c),
(366,326,o),
(335,328,o),
(307,328,cs),
(94,328,o),
(14,259,o),
(14,117,cs),
(14,64,ls),
(14,-37,o),
(67,-131,o),
(232,-131,cs),
(352,-131,o),
(395,-61,o),
(396,-14,c),
(405,-14,l),
(406,-57,o),
(410,-85,o),
(416,-113,c),
(700,-113,l)
);
},
{
closed = 1;
nodes = (
(378,91,o),
(378,66,o),
(348,66,cs),
(318,66,o),
(318,91,o),
(318,96,cs),
(318,166,ls),
(318,171,o),
(318,196,o),
(348,196,cs),
(378,196,o),
(378,171,o),
(378,166,cs),
(378,96,ls)
);
},
{
closed = 1;
nodes = (
(472,619,o),
(527,634,o),
(571,679,c),
(519,811,l),
(499,796,o),
(478,782,o),
(443,782,cs),
(377,782,o),
(373,810,o),
(292,810,cs),
(248,810,o),
(198,799,o),
(139,749,c),
(181,618,l),
(203,634,o),
(227,648,o),
(266,648,cs),
(333,648,o),
(337,619,o),
(417,619,cs)
);
}
);
width = 710;
}
);
unicode = 227;
},
{
glyphname = ae;
kernLeft = a;
kernRight = o;
lastChange = "2023-04-07 17:16:10 +0000";
layers = (
{
layerId = "75B71696-F68C-493E-998D-CC33CA41914E";
shapes = (
{
closed = 1;
nodes = (
(599,638,o),
(550,623,o),
(502,576,c),
(468,619,o),
(412,636,o),
(324,636,cs),
(239,636,o),
(136,623,o),
(28,593,c),
(46,376,l),
(87,401,o),
(158,432,o),
(266,432,cs),
(288,432,o),
(311,430,o),
(337,428,cs),
(352,426,o),
(364,417,o),
(361,393,c),
(330,395,o),
(302,397,o),
(277,397,cs),
(86,397,o),
(14,335,o),
(14,207,cs),
(14,159,ls),
(14,23,o),
(125,-16,o),
(255,-16,cs),
(369,-16,o),
(439,10,o),
(470,73,c),
(513,9,o),
(576,-16,o),
(658,-16,cs),
(838,-16,o),
(955,70,o),
(955,217,cs),
(955,236,l),
(692,251,l),
(692,227,ls),
(692,210,o),
(684,200,o),
(667,200,cs),
(650,200,o),
(642,210,o),
(642,227,cs),
(642,281,l),
(959,281,l),
(959,383,ls),
(959,539,o),
(815,638,o),
(676,638,cs)
);
},
{
closed = 1;
nodes = (
(642,406,o),
(650,416,o),
(667,416,cs),
(684,416,o),
(692,406,o),
(692,389,cs),
(692,353,l),
(642,353,l),
(642,389,ls)
);
},
{
closed = 1;
nodes = (
(359,184,o),
(359,161,o),
(332,161,cs),
(305,161,o),
(305,184,o),
(305,188,cs),
(305,251,ls),
(305,256,o),
(305,278,o),
(332,278,cs),
(359,278,o),
(359,256,o),
(359,251,cs),
(359,188,ls)
);
}
);
width = 972;
}
);
unicode = 230;
},
{
glyphname = b;
kernRight = b;
lastChange = "2023-04-07 17:16:00 +0000";
layers = (
{
layerId = "75B71696-F68C-493E-998D-CC33CA41914E";
shapes = (
{
closed = 1;
nodes = (
(383,636,o),
(329,580,o),
(328,487,c),
(319,487,l),
(328,631,l),
(328,804,l),
(31,804,l),
(35,127,ls),
(35,85,o),
(32,42,o),
(27,0,c),
(297,0,l),
(300,20,o),
(301,40,o),
(302,59,c),
(333,18,o),
(380,-15,o),
(445,-16,cs),
(682,-19,o),
(693,140,o),
(693,313,cs),
(693,467,o),
(691,636,o),
(498,636,cs)
);
},
{
closed = 1;
nodes = (
(400,239,o),
(400,217,o),
(373,217,cs),
(346,217,o),
(346,239,o),
(346,244,cs),
(346,379,ls),
(346,383,o),
(346,406,o),
(373,406,cs),
(400,406,o),
(400,383,o),
(400,379,cs),
(400,244,ls)
);
}
);
width = 706;
}
);
unicode = 98;
},
{
glyphname = c;
kernLeft = o;
kernRight = o;
lastChange = "2023-04-07 17:10:18 +0000";
layers = (
{
layerId = "75B71696-F68C-493E-998D-CC33CA41914E";
shapes = (
{
closed = 1;
nodes = (
(360,259,ls),
(360,242,o),
(350,232,o),
(333,232,cs),
(316,232,o),
(306,242,o),
(306,259,cs),
(306,371,ls),
(306,388,o),
(316,398,o),
(333,398,cs),
(350,398,o),
(360,388,o),
(360,371,cs),
(360,335,l),
(639,366,l),
(639,424,ls),
(639,558,o),
(517,636,o),
(324,636,cs),
(158,636,o),
(25,558,o),
(18,420,cs),
(17,402,o),
(16,364,o),
(16,316,cs),
(16,266,o),
(17,226,o),
(18,208,cs),
(25,66,o),
(158,-15,o),
(324,-15,cs),
(522,-15,o),
(639,68,o),
(639,210,cs),
(639,285,l),
(360,301,l)
);
}
);
width = 655;
}
);
unicode = 99;
},
{
glyphname = ccedilla;
kernLeft = o;
kernRight = o;
lastChange = "2023-04-07 17:38:29 +0000";
layers = (
{
layerId = "75B71696-F68C-493E-998D-CC33CA41914E";
shapes = (
{
closed = 1;
nodes = (
(206,16,l),
(167,-34,l),
(276,-40,o),
(315,-43,o),
(315,-59,cs),
(315,-67,o),
(304,-69,o),
(283,-69,cs),
(254,-69,o),
(207,-64,o),
(145,-53,c),
(126,-170,l),
(189,-178,o),
(248,-183,o),
(300,-183,cs),
(444,-183,o),
(539,-151,o),
(539,-91,cs),
(539,-49,o),
(518,-21,o),
(430,-13,c),
(442,9,l)
);
},
{
ref = c;
}
);
width = 655;
}
);
unicode = 231;
},
{
glyphname = d;
kernLeft = d;
lastChange = "2023-04-07 17:15:57 +0000";
layers = (
{
layerId = "75B71696-F68C-493E-998D-CC33CA41914E";
shapes = (
{
closed = 1;
nodes = (
(672,804,l),
(380,804,l),
(380,576,l),
(352,609,o),
(307,636,o),
(230,636,cs),
(40,638,o),
(14,484,o),
(14,313,cs),
(14,158,o),
(25,-16,o),
(236,-16,cs),
(339,-16,o),
(387,63,o),
(389,131,c),
(398,131,l),
(396,87,o),
(396,44,o),
(401,0,c),
(680,0,l),
(673,66,o),
(672,132,o),
(672,187,cs)
);
},
{
closed = 1;
nodes = (
(362,239,o),
(362,217,o),
(335,217,cs),
(308,217,o),
(308,239,o),
(308,244,cs),
(308,379,ls),
(308,383,o),
(308,406,o),
(335,406,cs),
(362,406,o),
(362,383,o),
(362,379,cs),
(362,244,ls)
);
}
);
width = 697;
}
);
unicode = 100;
},
{
glyphname = eth;
lastChange = "2023-04-07 17:10:18 +0000";
layers = (
{
layerId = "75B71696-F68C-493E-998D-CC33CA41914E";
shapes = (
{
closed = 1;
nodes = (
(401,844,l),
(357,780,l),
(325,785,o),
(291,788,o),
(255,788,cs),
(214,788,o),
(172,785,o),
(127,779,c),
(122,574,l),
(145,577,o),
(167,578,o),
(186,578,cs),
(197,578,o),
(207,578,o),
(216,577,c),
(194,545,l),
(242,515,l),
(278,568,l),
(342,551,o),
(374,515,o),
(387,471,c),
(338,497,o),
(291,509,o),
(247,509,cs),
(114,509,o),
(14,403,o),
(14,260,cs),
(14,78,o),
(140,-16,o),
(336,-16,cs),
(554,-16,o),
(667,108,o),
(667,340,cs),
(667,593,o),
(575,722,o),
(415,768,c),
(447,815,l)
);
},
{
closed = 1;
nodes = (
(286,249,o),
(268,273,o),
(268,294,cs),
(268,314,o),
(284,333,o),
(332,333,cs),
(347,333,o),
(362,332,o),
(382,329,c),
(368,284,o),
(344,249,o),
(310,249,cs)
);
}
);
width = 681;
}
);
unicode = 240;
},
{
glyphname = e;
kernLeft = o;
kernRight = o;
lastChange = "2023-04-07 17:38:33 +0000";
layers = (
{
anchors = (
{
name = bottom;
pos = (331,0);
},
{
name = ogonek;
pos = (595,10);
},
{
name = top;
pos = (331,620);
}
);
layerId = "75B71696-F68C-493E-998D-CC33CA41914E";
shapes = (
{
closed = 1;
nodes = (
(151,634,o),
(42,554,o),
(21,419,cs),
(17,401,o),
(15,363,o),
(15,316,cs),
(15,268,o),
(17,230,o),
(21,213,cs),
(44,69,o),
(151,-15,o),
(327,-15,cs),
(525,-15,o),
(642,70,o),
(642,215,cs),
(642,236,l),
(363,251,l),
(363,225,ls),
(363,208,o),
(353,198,o),
(336,198,cs),
(319,198,o),
(309,208,o),
(309,225,cs),
(309,281,l),
(645,281,l),
(645,395,ls),
(640,546,o),
(519,634,o),
(327,634,cs)
);
},
{
closed = 1;
nodes = (
(309,406,o),
(319,416,o),
(336,416,cs),
(353,416,o),
(363,406,o),
(363,389,cs),
(363,353,l),
(309,353,l),
(309,389,ls)
);
}
);
width = 661;
}
);
unicode = 101;
},
{
glyphname = f;
lastChange = "2023-04-07 17:52:52 +0000";
layers = (
{
layerId = "75B71696-F68C-493E-998D-CC33CA41914E";
shapes = (
{
closed = 1;
nodes = (
(394,826,o),
(335,835,o),
(282,835,cs),
(157,835,o),
(68,781,o),
(68,633,cs),
(68,620,l),
(14,620,l),
(14,404,l),
(68,404,l),
(68,0,l),
(356,0,l),
(356,404,l),
(455,404,l),
(455,620,l),
(356,620,l),
(364,669,o),
(401,662,o),
(443,657,c),
(456,811,l)
);
}
);
width = 469;
}
);
unicode = 102;
},
{
glyphname = g;
lastChange = "2023-04-07 17:10:18 +0000";
layers = (
{
layerId = "75B71696-F68C-493E-998D-CC33CA41914E";
shapes = (
{
closed = 1;
nodes = (
(671,530,o),
(675,575,o),
(680,620,c),
(411,620,l),
(408,589,o),
(406,557,o),
(406,527,c),
(397,527,l),
(392,604,o),
(336,636,o),
(242,636,cs),
(77,636,o),
(18,551,o),
(18,407,cs),
(18,338,ls),
(18,201,o),
(105,125,o),
(280,125,cs),
(358,125,o),
(379,135,o),
(397,143,c),
(385,106,o),
(325,90,o),
(260,90,cs),
(209,90,o),
(155,93,o),
(76,120,c),
(54,-154,l),
(127,-175,o),
(264,-183,o),
(320,-183,cs),
(612,-183,o),
(679,-78,o),
(676,115,cs),
(671,486,ls)
);
},
{
closed = 1;
nodes = (
(361,291,o),
(361,268,o),
(334,268,cs),
(307,268,o),
(307,291,o),
(307,295,cs),
(307,412,ls),
(307,417,o),
(307,439,o),
(334,439,cs),
(361,439,o),
(361,417,o),
(361,412,cs),
(361,295,ls)
);
}
);
width = 694;
}
);
unicode = 103;
},
{
glyphname = h;
kernRight = n;
lastChange = "2023-04-07 17:10:18 +0000";
layers = (
{
layerId = "75B71696-F68C-493E-998D-CC33CA41914E";
shapes = (
{
closed = 1;
nodes = (
(416,636,o),
(347,596,o),
(338,513,c),
(329,513,l),
(329,804,l),
(23,804,l),
(27,0,l),
(331,0,l),
(331,371,ls),
(331,375,o),
(331,398,o),
(358,398,cs),
(385,398,o),
(385,375,o),
(385,371,cs),
(385,0,l),
(682,0,l),
(682,394,ls),
(680,521,o),
(656,636,o),
(495,636,cs)
);
}
);
width = 698;
}
);
metricRight = n;
unicode = 104;
},
{
glyphname = i;
kernLeft = i;
kernRight = i;
lastChange = "2023-04-07 17:38:52 +0000";
layers = (
{
layerId = "75B71696-F68C-493E-998D-CC33CA41914E";
shapes = (
{
closed = 1;
nodes = (
(311,647,l),
(311,804,l),
(23,804,l),
(23,647,l)
);
},
{
ref = idotless;
}
);
width = 333;
}
);
unicode = 105;
},
{
glyphname = idotless;
lastChange = "2023-04-07 17:38:54 +0000";
layers = (
{
anchors = (
{
name = bottom;
pos = (167,0);
},
{
name = ogonek;
pos = (300,10);
},
{
name = top;
pos = (167,620);
}
);
layerId = "75B71696-F68C-493E-998D-CC33CA41914E";
shapes = (
{
closed = 1;
nodes = (
(311,620,l),
(23,620,l),
(23,0,l),
(311,0,l)
);
}
);
width = 333;
}
);
unicode = 305;
},
{
glyphname = j;
lastChange = "2023-04-07 17:10:18 +0000";
layers = (
{
layerId = "75B71696-F68C-493E-998D-CC33CA41914E";
shapes = (
{
closed = 1;
nodes = (
(403,647,l),
(403,804,l),
(115,804,l),
(115,647,l)
);
},
{
closed = 1;
nodes = (
(159,-189,o),
(403,-215,o),
(403,96,cs),
(403,620,l),
(115,620,l),
(115,90,ls),
(115,-22,o),
(67,-19,o),
(25,-21,c),
(12,-183,l)
);
}
);
width = 421;
}
);
unicode = 106;
},
{
glyphname = k;
lastChange = "2023-04-07 17:10:18 +0000";
layers = (
{
layerId = "75B71696-F68C-493E-998D-CC33CA41914E";
shapes = (
{
closed = 1;
nodes = (
(310,140,l),
(310,241,l),
(319,241,l),
(370,0,l),
(683,0,l),
(543,327,l),
(671,620,l),
(373,620,l),
(320,403,l),
(311,403,l),
(320,524,l),
(320,804,l),
(23,804,l),
(23,0,l),
(311,0,l)
);
}
);
width = 690;
}
);
metricLeft = h;
unicode = 107;
},
{
glyphname = l;
lastChange = "2023-04-07 17:52:25 +0000";
layers = (
{
layerId = "75B71696-F68C-493E-998D-CC33CA41914E";
shapes = (
{
closed = 1;
nodes = (
(333,174,o),
(310,184,o),
(310,221,cs),
(310,804,l),
(22,804,l),
(22,245,ls),
(22,37,o),
(103,-10,o),
(228,-10,cs),
(279,-10,o),
(341,-6,o),
(382,4,c),
(366,179,l)
);
}
);
width = 388;
}
);
unicode = 108;
},
{
glyphname = m;
kernLeft = n;
kernRight = n;
lastChange = "2023-04-07 17:10:18 +0000";
layers = (
{
layerId = "75B71696-F68C-493E-998D-CC33CA41914E";
shapes = (
{
closed = 1;
nodes = (
(677,636,o),
(635,567,o),
(635,490,c),
(626,490,l),
(617,576,o),
(581,636,o),
(452,636,cs),
(335,636,o),
(293,567,o),
(293,490,c),
(284,490,l),
(284,534,o),
(280,578,o),
(272,620,c),
(18,620,l),
(28,534,o),
(25,445,o),
(25,402,cs),
(25,0,l),
(321,0,l),
(321,370,ls),
(321,374,o),
(321,397,o),
(348,397,cs),
(375,397,o),
(375,374,o),
(375,370,cs),
(375,-1,l),
(641,0,l),
(641,370,ls),
(641,374,o),
(641,397,o),
(668,397,cs),
(695,397,o),
(695,374,o),
(695,370,cs),
(695,-1,l),
(974,0,l),
(974,393,ls),
(972,527,o),
(958,636,o),
(798,636,cs)
);
}
);
width = 990;
}
);
metricLeft = n;
metricRight = n;
unicode = 109;
},
{
glyphname = n;
kernLeft = n;
kernRight = n;
lastChange = "2023-04-07 17:39:13 +0000";
layers = (
{
anchors = (
{
name = bottom;
pos = (342,0);
},
{
name = top;
pos = (348,620);
}
);
layerId = "75B71696-F68C-493E-998D-CC33CA41914E";
shapes = (
{
closed = 1;
nodes = (
(338,636,o),
(293,567,o),
(293,490,c),
(284,490,l),
(284,534,o),
(280,578,o),
(272,620,c),
(18,620,l),
(28,534,o),
(25,445,o),
(25,402,cs),
(25,0,l),
(321,0,l),
(321,370,ls),
(321,374,o),
(321,397,o),
(348,397,cs),
(375,397,o),
(375,374,o),
(375,370,cs),
(375,-1,l),
(668,0,l),
(668,393,ls),
(668,527,o),
(653,636,o),
(454,636,cs)
);
}
);
width = 684;
}
);
unicode = 110;
},
{
glyphname = ntilde;
lastChange = "2023-04-07 17:39:15 +0000";
layers = (
{
layerId = "75B71696-F68C-493E-998D-CC33CA41914E";
shapes = (
{
ref = n;
},
{
pos = (26,0);
ref = tildecomb;
}
);
width = 684;
},
{
associatedMasterId = "75B71696-F68C-493E-998D-CC33CA41914E";
layerId = "25A2AB67-C06B-451C-BFC2-480038717DA5";
name = "23년 3월 11일 18:41";
shapes = (
{
closed = 1;
nodes = (
(372,593,o),
(325,516,o),
(325,431,c),
(316,431,l),
(315,480,o),
(311,529,o),
(302,576,c),
(20,576,l),
(31,480,o),
(28,381,o),
(28,334,cs),
(28,-113,l),
(357,-113,l),
(357,298,ls),
(357,303,o),
(357,328,o),
(387,328,cs),
(417,328,o),
(417,303,o),
(417,298,cs),
(417,-114,l),
(742,-113,l),
(742,324,ls),
(740,472,o),
(724,593,o),
(502,593,cs)
);
},
{
closed = 1;
nodes = (
(486,609,o),
(541,624,o),
(585,669,c),
(533,801,l),
(513,786,o),
(492,772,o),
(457,772,cs),
(391,772,o),
(387,800,o),
(306,800,cs),
(262,800,o),
(212,789,o),
(153,739,c),
(195,608,l),
(217,624,o),
(241,638,o),
(280,638,cs),
(347,638,o),
(351,609,o),
(431,609,cs)
);
}
);
width = 752;
}
);
unicode = 241;
},
{
glyphname = o;
kernLeft = o;
kernRight = o;
lastChange = "2023-04-07 17:39:20 +0000";
layers = (
{
anchors = (
{
name = bottom;
pos = (334,0);
},
{
name = center;
pos = (334,310);
},
{
name = ogonek;
pos = (601,10);
},
{
name = top;
pos = (334,620);
},
{
name = topright;
pos = (648,620);
}
);
layerId = "75B71696-F68C-493E-998D-CC33CA41914E";
shapes = (
{
closed = 1;
nodes = (
(652,241,o),
(653,280,o),
(653,319,cs),
(653,356,o),
(652,385,o),
(650,408,cs),
(638,563,o),
(519,636,o),
(335,636,cs),
(151,636,o),
(32,564,o),
(20,408,cs),
(18,384,o),
(16,353,o),
(16,315,cs),
(16,277,o),
(18,240,o),
(20,217,cs),
(32,59,o),
(150,-16,o),
(335,-16,cs),
(519,-16,o),
(638,59,o),
(650,217,cs)
);
},
{
closed = 1;
nodes = (
(362,243,o),
(362,221,o),
(335,221,cs),
(308,221,o),
(308,243,o),
(308,248,cs),
(308,381,ls),
(308,385,o),
(308,408,o),
(335,408,cs),
(362,408,o),
(362,385,o),
(362,381,cs),
(362,248,ls)
);
}
);
width = 668;
}
);
unicode = 111;
},
{
glyphname = oslash;
kernLeft = o;
kernRight = o;
lastChange = "2023-04-07 17:39:47 +0000";
layers = (
{
layerId = "75B71696-F68C-493E-998D-CC33CA41914E";
shapes = (
{
closed = 1;
nodes = (
(602,634,l),
(558,666,l),
(62,-2,l),
(106,-34,l)
);
},
{
ref = o;
}
);
width = 664;
}
);
unicode = 248;
},
{
glyphname = otilde;
kernLeft = o;
kernRight = o;
lastChange = "2023-04-07 17:39:48 +0000";
layers = (
{
layerId = "75B71696-F68C-493E-998D-CC33CA41914E";
shapes = (
{
ref = o;
},
{
pos = (12,0);
ref = tildecomb;
}
);
width = 668;
},
{
associatedMasterId = "75B71696-F68C-493E-998D-CC33CA41914E";
layerId = "62AD356F-C1A0-49A7-8E87-C71112E8C96A";
name = "23년 3월 11일 18:42";
shapes = (
{
closed = 1;
nodes = (
(725,165,o),
(727,200,o),
(727,243,cs),
(727,286,o),
(725,320,o),
(723,346,cs),
(710,518,o),
(578,599,o),
(373,599,cs),
(169,599,o),
(37,518,o),
(23,342,cs),
(21,316,o),
(19,282,o),
(19,239,cs),
(19,196,o),
(21,162,o),
(23,136,cs),
(36,-39,o),
(168,-122,o),
(373,-122,cs),
(578,-122,o),
(710,-39,o),
(723,138,cs)
);
},
{
closed = 1;
nodes = (
(403,164,o),
(403,139,o),
(373,139,cs),
(343,139,o),
(343,164,o),
(343,169,cs),
(343,309,ls),
(343,314,o),
(343,339,o),
(373,339,cs),
(403,339,o),
(403,314,o),
(403,309,cs),
(403,169,ls)
);
},
{
closed = 1;
nodes = (
(488,614,o),
(543,629,o),
(587,674,c),
(535,806,l),
(515,791,o),
(494,777,o),
(459,777,cs),
(393,777,o),
(389,805,o),
(308,805,cs),
(264,805,o),
(214,794,o),
(155,744,c),
(197,613,l),
(219,629,o),
(243,643,o),
(282,643,cs),
(349,643,o),
(353,614,o),
(433,614,cs)
);
}
);
width = 742;
}
);
unicode = 245;
},
{
glyphname = oe;
kernLeft = o;
kernRight = o;
lastChange = "2023-04-07 17:10:18 +0000";
layers = (
{
layerId = "75B71696-F68C-493E-998D-CC33CA41914E";
shapes = (
{
closed = 1;
nodes = (
(589,636,o),
(540,617,o),
(501,582,c),
(453,618,o),
(390,636,o),
(314,636,cs),
(140,636,o),
(30,568,o),
(17,410,cs),
(15,386,o),
(14,356,o),
(14,317,cs),
(14,278,o),
(15,248,o),
(17,224,cs),
(29,67,o),
(139,-16,o),
(314,-16,cs),
(393,-16,o),
(455,11,o),
(492,45,c),
(528,11,o),
(590,-16,o),
(661,-16,cs),
(838,-16,o),
(955,76,o),
(955,217,cs),
(955,236,l),
(692,251,l),
(692,227,ls),
(692,210,o),
(684,200,o),
(667,200,cs),
(650,200,o),
(642,210,o),
(642,227,cs),
(642,281,l),
(959,281,l),
(959,386,ls),
(959,537,o),
(833,636,o),
(658,636,cs)
);
},
{
closed = 1;
nodes = (
(642,406,o),
(650,416,o),
(667,416,cs),
(684,416,o),
(692,406,o),
(692,389,cs),
(692,353,l),
(642,353,l),
(642,389,ls)
);
},
{
closed = 1;
nodes = (
(339,237,o),
(339,214,o),
(314,214,cs),
(289,214,o),
(289,237,o),
(289,241,cs),
(289,383,ls),
(289,388,o),
(289,410,o),
(314,410,cs),
(339,410,o),
(339,388,o),
(339,383,cs),
(339,241,ls)
);
}
);
width = 972;
}
);
unicode = 339;
},
{
glyphname = p;
kernRight = b;
lastChange = "2023-04-07 17:10:18 +0000";
layers = (
{
background = {
shapes = (
{
closed = 1;
nodes = (
(758,-138,o),
(760,54,o),
(760,228,cs),
(760,421,o),
(748,596,o),
(484,593,cs),
(412,592,o),
(360,556,o),
(325,510,c),
(324,532,o),
(323,554,o),
(320,576,c),
(20,576,l),
(25,529,o),
(29,482,o),
(29,435,cs),
(24,-297,l),
(354,-297,l),
(354,-125,l),
(344,35,l),
(354,35,l),
(356,-72,o),
(419,-138,o),
(554,-138,cs)
);
},
{
closed = 1;
nodes = (
(434,155,ls),
(434,150,o),
(434,125,o),
(404,125,cs),
(374,125,o),
(374,150,o),
(374,155,cs),
(374,305,ls),
(374,310,o),
(374,335,o),
(404,335,cs),
(434,335,o),
(434,310,o),
(434,305,cs)
);
}
);
};
layerId = "75B71696-F68C-493E-998D-CC33CA41914E";
shapes = (
{
closed = 1;
nodes = (
(23,581,o),
(26,541,o),
(26,501,cs),
(25,-154,l),
(322,-154,l),
(322,17,l),
(338,4,o),
(374,-15,o),
(429,-15,cs),
(652,-15,o),
(684,142,o),
(684,316,cs),
(684,503,o),
(657,636,o),
(479,636,cs),
(380,636,o),
(323,579,o),
(311,486,c),
(302,486,l),
(302,525,o),
(302,581,o),
(297,620,c),
(18,620,l)
);
},
{
closed = 1;
nodes = (
(391,237,o),
(391,214,o),
(364,214,cs),
(337,214,o),
(337,237,o),
(337,241,cs),
(337,376,ls),
(337,381,o),
(337,403,o),
(364,403,cs),
(391,403,o),
(391,381,o),
(391,376,cs),
(391,241,ls)
);
}
);
width = 695;
}
);
unicode = 112;
},
{
glyphname = thorn;
kernLeft = H;
kernRight = b;
lastChange = "2023-04-07 17:10:18 +0000";
layers = (
{
layerId = "75B71696-F68C-493E-998D-CC33CA41914E";
shapes = (
{
closed = 1;
nodes = (
(398,636,o),
(342,601,o),
(315,545,c),
(315,804,l),
(18,804,l),
(18,-154,l),
(315,-154,l),
(315,17,l),
(328,3,o),
(365,-16,o),
(419,-16,cs),
(644,-16,o),
(677,141,o),
(677,316,cs),
(677,498,o),
(651,636,o),
(473,636,cs)
);
},
{
closed = 1;
nodes = (
(383,237,o),
(383,214,o),
(356,214,cs),
(329,214,o),
(329,237,o),
(329,241,cs),
(329,376,ls),
(329,381,o),
(329,403,o),
(356,403,cs),
(383,403,o),
(383,381,o),
(383,376,cs),
(383,241,ls)
);
}
);
width = 690;
}
);
unicode = 254;
},
{
glyphname = q;
kernLeft = d;
lastChange = "2023-04-07 17:10:18 +0000";
layers = (
{
layerId = "75B71696-F68C-493E-998D-CC33CA41914E";
shapes = (
{
closed = 1;
nodes = (
(409,590,o),
(408,561,o),
(408,531,c),
(393,583,o),
(352,636,o),
(247,636,cs),
(43,636,o),
(16,489,o),
(16,313,cs),
(16,158,o),
(34,-15,o),
(227,-15,cs),
(342,-15,o),
(376,60,o),
(378,129,c),
(387,129,l),
(378,5,l),
(378,-154,l),
(675,-154,l),
(674,502,ls),
(674,542,o),
(678,581,o),
(682,620,c),
(412,620,l)
);
},
{
closed = 1;
nodes = (
(364,237,o),
(364,214,o),
(337,214,cs),
(310,214,o),
(310,237,o),
(310,241,cs),
(310,376,ls),
(310,381,o),
(310,403,o),
(337,403,cs),
(364,403,o),
(364,381,o),
(364,376,cs),
(364,241,ls)
);
}
);
width = 695;
}
);
unicode = 113;
},
{
glyphname = r;
kernLeft = n;
lastChange = "2023-04-07 17:10:18 +0000";
layers = (
{
layerId = "75B71696-F68C-493E-998D-CC33CA41914E";
shapes = (
{
closed = 1;
nodes = (
(327,636,o),
(293,486,o),
(293,448,c),
(285,448,l),
(283,502,o),
(278,570,o),
(251,620,c),
(18,620,l),
(24,566,o),
(25,510,o),
(25,464,cs),
(25,413,l),
(25,0,l),
(308,-1,l),
(308,250,ls),
(308,305,o),
(371,320,o),
(415,320,cs),
(455,320,o),
(482,311,o),
(502,303,c),
(504,304,l),
(534,628,l),
(508,635,o),
(484,636,o),
(468,636,cs)
);
}
);
width = 543;
}
);
unicode = 114;
},
{
glyphname = s;
lastChange = "2023-04-07 17:10:18 +0000";
layers = (
{
layerId = "75B71696-F68C-493E-998D-CC33CA41914E";
shapes = (
{
closed = 1;
nodes = (
(500,383,o),
(437,398,o),
(344,405,cs),
(335,405,o),
(328,406,o),
(322,406,cs),
(311,406,o),
(304,403,o),
(304,392,cs),
(304,381,o),
(318,380,o),
(340,376,cs),
(450,364,o),
(603,353,o),
(603,176,cs),
(603,29,o),
(456,-15,o),
(296,-15,cs),
(194,-15,o),
(86,3,o),
(9,21,c),
(33,300,l),
(71,273,o),
(123,232,o),
(275,219,cs),
(280,218,o),
(285,218,o),
(290,218,cs),
(301,218,o),
(308,221,o),
(308,231,cs),
(308,243,o),
(297,245,o),
(275,248,cs),
(156,263,o),
(22,286,o),
(22,434,cs),
(22,583,o),
(146,636,o),
(303,636,cs),
(392,636,o),
(491,621,o),
(584,598,c),
(559,347,l)
);
}
);
width = 610;
}
);
unicode = 115;
},
{
glyphname = germandbls;
lastChange = "2023-04-07 17:15:47 +0000";
layers = (
{
layerId = "75B71696-F68C-493E-998D-CC33CA41914E";
name = Heavy;
shapes = (
{
closed = 1;
nodes = (
(290,0,l),
(290,462,ls),
(290,545,o),
(312,589,o),
(358,589,cs),
(388,589,o),
(405,568,o),
(405,532,cs),
(405,489,o),
(371,463,o),
(320,445,c),
(320,326,l),
(376,320,o),
(420,295,o),
(420,260,cs),
(420,248,o),
(414,228,o),
(390,228,cs),
(369,228,o),
(338,247,o),
(321,259,c),
(309,0,l),
(343,-11,o),
(382,-16,o),
(437,-16,cs),
(593,-16,o),
(683,42,o),
(683,196,cs),
(683,305,o),
(634,364,o),
(548,395,c),
(619,444,o),
(644,501,o),
(644,583,cs),
(644,725,o),
(529,820,o),
(353,820,cs),
(158,820,o),
(21,734,o),
(21,507,cs),
(20,0,l)
);
}
);
width = 693;
}
);
unicode = 223;
},
{
glyphname = t;
lastChange = "2023-04-07 17:10:19 +0000";
layers = (
{
layerId = "75B71696-F68C-493E-998D-CC33CA41914E";
shapes = (
{
closed = 1;
nodes = (
(419,240,o),
(413,240,o),
(409,240,cs),
(376,240,o),
(356,254,o),
(356,304,cs),
(356,404,l),
(428,404,l),
(428,620,l),
(356,620,l),
(356,728,l),
(86,701,l),
(70,620,l),
(14,620,l),
(14,404,l),
(68,404,l),
(68,239,ls),
(68,36,o),
(169,-16,o),
(311,-16,cs),
(352,-16,o),
(398,-11,o),
(446,-2,c),
(425,241,l)
);
}
);
width = 454;
}
);
unicode = 116;
},
{
glyphname = u;
kernLeft = u;
kernRight = u;
lastChange = "2023-04-07 17:39:54 +0000";
layers = (
{
anchors = (
{
name = bottom;
pos = (340,0);
},
{
name = ogonek;
pos = (612,10);
},
{
name = top;
pos = (340,620);
},
{
name = topright;
pos = (660,620);
}
);
layerId = "75B71696-F68C-493E-998D-CC33CA41914E";
shapes = (
{
closed = 1;
nodes = (
(661,29,o),
(660,189,o),
(660,218,cs),
(660,620,l),
(364,620,l),
(364,250,ls),
(364,246,o),
(364,223,o),
(337,223,cs),
(310,223,o),
(310,246,o),
(310,250,cs),
(310,620,l),
(17,620,l),
(17,227,ls),
(19,94,o),
(33,-15,o),
(233,-15,cs),
(350,-15,o),
(392,54,o),
(392,131,c),
(401,131,l),
(401,87,o),
(405,40,o),
(415,0,c),
(670,0,l)
);
}
);
width = 680;
}
);
unicode = 117;
},
{
glyphname = v;
lastChange = "2023-04-07 17:10:19 +0000";
layers = (
{
layerId = "75B71696-F68C-493E-998D-CC33CA41914E";
shapes = (
{
closed = 1;
nodes = (
(691,621,l),
(384,621,l),
(354,258,l),
(345,258,l),
(314,620,l),
(7,620,l),
(155,0,l),
(545,0,l)
);
}
);
width = 700;
}
);
unicode = 118;
},
{
glyphname = w;
kernLeft = w;
kernRight = w;
lastChange = "2023-04-07 17:40:09 +0000";
layers = (
{
anchors = (
{
name = bottom;
pos = (475,0);
},
{
name = top;
pos = (475,620);
}
);
layerId = "75B71696-F68C-493E-998D-CC33CA41914E";
shapes = (
{
closed = 1;
nodes = (
(467,194,l),
(476,194,l),
(518,0,l),
(833,0,l),
(938,620,l),
(636,620,l),
(626,293,l),
(617,293,l),
(568,621,l),
(377,621,l),
(329,294,l),
(320,294,l),
(307,621,l),
(5,621,l),
(110,0,l),
(425,0,l)
);
}
);
width = 949;
}
);
unicode = 119;
},
{
glyphname = x;
lastChange = "2023-04-07 17:10:19 +0000";
layers = (
{
layerId = "75B71696-F68C-493E-998D-CC33CA41914E";
shapes = (
{
closed = 1;
nodes = (
(341,428,l),
(320,620,l),
(14,620,l),
(107,323,l),
(9,0,l),
(320,0,l),
(341,219,l),
(350,219,l),
(374,0,l),
(682,0,l),
(579,323,l),
(677,620,l),
(367,620,l),
(350,428,l)
);
}
);
width = 686;
}
);
unicode = 120;
},
{
glyphname = y;
kernLeft = y;
kernRight = y;
lastChange = "2023-04-07 17:40:23 +0000";
layers = (
{
anchors = (
{
name = bottom;
pos = (605,0);
},
{
name = top;
pos = (353,620);
}
);
layerId = "75B71696-F68C-493E-998D-CC33CA41914E";
shapes = (
{
closed = 1;
nodes = (
(698,620,l),
(374,620,l),
(373,279,l),
(356,279,l),
(329,620,l),
(5,620,l),
(193,94,l),
(90,-154,l),
(459,-154,l)
);
}
);
width = 706;
}
);
unicode = 121;
},
{
glyphname = z;
lastChange = "2023-04-07 17:10:19 +0000";
layers = (
{
layerId = "75B71696-F68C-493E-998D-CC33CA41914E";
shapes = (
{
closed = 1;
nodes = (
(583,620,l),
(34,620,l),
(34,386,l),
(218,386,l),
(16,171,l),
(16,0,l),
(592,0,l),
(592,234,l),
(383,234,l),
(583,449,l)
);
}
);
width = 601;
}
);
unicode = 122;
},
{
glyphname = ordfeminine;
lastChange = "2023-04-07 17:10:19 +0000";
layers = (
{
layerId = "75B71696-F68C-493E-998D-CC33CA41914E";
shapes = (
{
closed = 1;
nodes = (
(366,344,l),
(366,385,l),
(24,385,l),
(24,344,l)
);
},
{
closed = 1;
nodes = (
(361,433,o),
(359,455,o),
(358,477,c),
(358,650,ls),
(358,731,o),
(299,775,o),
(196,775,cs),
(149,775,o),
(91,765,o),
(26,745,c),
(36,623,l),
(59,636,o),
(99,653,o),
(158,653,cs),
(171,653,o),
(185,653,o),
(199,651,cs),
(207,650,o),
(213,645,o),
(212,632,c),
(195,633,o),
(179,634,o),
(166,634,cs),
(59,634,o),
(18,599,o),
(18,527,cs),
(18,501,ls),
(18,450,o),
(44,403,o),
(128,403,cs),
(188,403,o),
(210,438,o),
(210,462,c),
(214,462,l),
(215,440,o),
(217,426,o),
(221,412,c),
(363,412,l)
);
},
{
closed = 1;
nodes = (
(201,515,o),
(201,502,o),
(186,502,cs),
(171,502,o),
(171,515,o),
(171,518,cs),
(171,553,ls),
(171,555,o),
(171,568,o),
(186,568,cs),
(201,568,o),
(201,555,o),
(201,553,cs),
(201,518,ls)
);
}
);
width = 378;
},
{
associatedMasterId = "75B71696-F68C-493E-998D-CC33CA41914E";
guides = (
{
pos = (299,345);
}
);
layerId = "9B8ADDBA-DEF7-4160-851F-4A4F0FCA0590";
name = "23년 3월 11일 18:15";
shapes = (
{
alignment = -1;
pos = (12,408);
ref = a;
scale = (0.5591,0.5591);
}
);
width = 420;
}
);
unicode = 170;
},
{
glyphname = ordmasculine;
lastChange = "2023-04-07 17:10:19 +0000";
layers = (
{
layerId = "75B71696-F68C-493E-998D-CC33CA41914E";
shapes = (
{
closed = 1;
nodes = (
(369,554,o),
(370,572,o),
(370,593,cs),
(370,615,o),
(369,632,o),
(368,645,cs),
(362,733,o),
(296,774,o),
(195,774,cs),
(95,774,o),
(29,733,o),
(23,644,cs),
(22,630,o),
(20,613,o),
(20,591,cs),
(20,570,o),
(22,552,o),
(23,539,cs),
(29,450,o),
(94,408,o),
(195,408,cs),
(296,408,o),
(362,450,o),
(368,540,cs)
);
},
{
closed = 1;
nodes = (
(210,553,o),
(210,540,o),
(195,540,cs),
(180,540,o),
(180,553,o),
(180,555,cs),
(180,626,ls),
(180,629,o),
(180,642,o),
(195,642,cs),
(210,642,o),
(210,629,o),
(210,626,cs),
(210,555,ls)
);
},
{
closed = 1;
nodes = (
(366,344,l),
(366,385,l),
(24,385,l),
(24,344,l)
);
}
);
width = 386;
},
{
associatedMasterId = "75B71696-F68C-493E-998D-CC33CA41914E";
guides = (
{
pos = (314,345);
}
);
layerId = "8E4D8A2F-55C3-4A49-8791-8B146517AE36";
name = "23년 3월 11일 18:17";
shapes = (
{
alignment = -1;
pos = (12,409);
ref = o;
scale = (0.5489,0.564);
}
);
width = 429;
}
);
unicode = 186;
},
{
glyphname = uni52A0;
lastChange = "2023-04-07 17:10:19 +0000";
layers = (
{
layerId = "75B71696-F68C-493E-998D-CC33CA41914E";
shapes = (
{
closed = 1;
nodes = (
(71,732,l),
(17,732,l),
(22,525,l),
(68,525,l),
(57,313,o),
(30,95,o),
(0,-28,c),
(192,-67,l),
(204,-31,o),
(216,27,o),
(227,99,c),
(241,-51,l),
(463,-51,o),
(497,-35,o),
(497,131,cs),
(497,732,l),
(287,732,l),
(287,822,l),
(71,822,l)
);
},
{
closed = 1;
nodes = (
(522,768,l),
(522,-33,l),
(718,-33,l),
(718,16,l),
(752,16,l),
(752,-31,l),
(950,-31,l),
(950,768,l)
);
},
{
closed = 1;
nodes = (
(718,223,l),
(718,565,l),
(752,565,l),
(752,223,l)
);
},
{
closed = 1;
nodes = (
(297,140,o),
(284,125,o),
(231,132,c),
(246,244,o),
(257,383,o),
(265,525,c),
(297,525,l),
(297,196,ls)
);
}
);
width = 972;
}
);
unicode = 21152;
},
{
glyphname = uni77F3;
lastChange = "2023-04-07 17:10:19 +0000";
layers = (
{
layerId = "75B71696-F68C-493E-998D-CC33CA41914E";
shapes = (
{
closed = 1;
nodes = (
(38,786,l),
(38,570,l),
(225,570,l),
(174,476,o),
(78,392,o),
(5,363,c),
(39,99,l),
(39,100,l),
(73,119,o),
(111,143,o),
(150,172,c),
(150,-51,l),
(380,-51,l),
(380,-11,l),
(688,-11,l),
(688,-51,l),
(917,-51,l),
(917,484,l),
(435,484,l),
(449,512,o),
(463,540,o),
(473,570,c),
(956,570,l),
(956,786,l)
);
},
{
closed = 1;
nodes = (
(380,282,l),
(688,282,l),
(688,201,l),
(380,201,l)
);
}
);
width = 972;
}
);
unicode = 30707;
},
{
glyphname = "ga-ko";
lastChange = "2023-04-07 17:10:19 +0000";
layers = (
{
layerId = "75B71696-F68C-493E-998D-CC33CA41914E";
shapes = (
{
closed = 1;
nodes = (
(243,525,l),
(239,400,o),
(190,282,o),
(9,282,c),
(41,-8,l),
(444,10,o),
(513,185,o),
(513,795,c),
(32,795,l),
(32,525,l)
);
},
{
closed = 1;
nodes = (
(810,822,l),
(540,822,l),
(540,-42,l),
(810,-42,l),
(810,304,l),
(873,304,l),
(873,583,l),
(810,583,l)
);
}
);
width = 882;
}
);
unicode = 44032;
},
{
glyphname = "gag-ko";
lastChange = "2023-04-07 17:10:19 +0000";
layers = (
{
layerId = "75B71696-F68C-493E-998D-CC33CA41914E";
shapes = (
{
closed = 1;
nodes = (
(819,822,l),
(549,822,l),
(549,313,l),
(819,313,l),
(819,444,l),
(873,444,l),
(873,705,l),
(819,705,l)
);
},
{
closed = 1;
nodes = (
(39,588,l),
(268,588,l),
(268,569,o),
(255,553,o),
(14,544,c),
(32,316,l),
(504,323,o),
(531,366,o),
(527,808,c),
(39,808,l)
);
},
{
closed = 1;
nodes = (
(540,-42,l),
(819,-42,l),
(819,291,l),
(45,291,l),
(45,52,l),
(540,52,l)
);
}
);
width = 882;
}
);
unicode = 44033;
},
{
glyphname = "gan-ko";
lastChange = "2023-04-07 17:10:19 +0000";
layers = (
{
layerId = "75B71696-F68C-493E-998D-CC33CA41914E";
shapes = (
{
closed = 1;
nodes = (
(549,822,l),
(549,232,l),
(819,232,l),
(819,419,l),
(873,419,l),
(873,680,l),
(819,680,l),
(819,822,l)
);
},
{
closed = 1;
nodes = (
(30,592,l),
(267,592,l),
(267,573,o),
(245,557,o),
(5,548,c),
(23,320,l),
(493,328,o),
(530,375,o),
(527,808,c),
(30,808,l)
);
},
{
closed = 1;
nodes = (
(36,-42,l),
(828,-42,l),
(828,196,l),
(324,196,l),
(324,295,l),
(36,295,l)
);
}
);
width = 882;
}
);
unicode = 44036;
},
{
glyphname = "gad-ko";
lastChange = "2023-04-07 17:10:19 +0000";
layers = (
{
layerId = "75B71696-F68C-493E-998D-CC33CA41914E";
shapes = (
{
closed = 1;
nodes = (
(549,822,l),
(549,345,l),
(819,345,l),
(819,460,l),
(873,460,l),
(873,721,l),
(819,721,l),
(819,822,l)
);
},
{
closed = 1;
nodes = (
(39,606,l),
(268,606,l),
(268,587,o),
(255,580,o),
(14,571,c),
(32,352,l),
(502,359,o),
(530,402,o),
(527,813,c),
(39,813,l)
);
},
{
closed = 1;
nodes = (
(819,323,l),
(41,323,l),
(41,-42,l),
(828,-42,l),
(828,150,l),
(320,150,l),
(320,179,l),
(819,179,l)
);
}
);
width = 882;
}
);
unicode = 44039;
},
{
glyphname = "gal-ko";
lastChange = "2023-04-07 17:10:19 +0000";
layers = (
{
layerId = "75B71696-F68C-493E-998D-CC33CA41914E";
shapes = (
{
closed = 1;
nodes = (
(549,822,l),
(549,372,l),
(819,372,l),
(819,480,l),
(873,480,l),
(873,732,l),
(819,732,l),
(819,822,l)
);
},
{
closed = 1;
nodes = (
(34,624,l),
(268,624,l),
(268,605,o),
(250,598,o),
(9,589,c),
(27,374,l),
(498,382,o),
(530,420,o),
(527,813,c),
(34,813,l)
);
},
{
closed = 1;
nodes = (
(814,190,o),
(748,136,o),
(472,124,c),
(472,142,l),
(725,153,o),
(819,208,o),
(819,220,cs),
(819,351,l),
(41,351,l),
(41,225,l),
(388,225,l),
(388,207,l),
(41,207,l),
(41,7,ls),
(41,-91,o),
(824,-67,o),
(848,-10,c),
(823,192,l),
(820,194,l)
);
}
);
width = 882;
}
);
unicode = 44040;
},
{
glyphname = "galg-ko";
lastChange = "2023-04-07 17:10:19 +0000";
layers = (
{
layerId = "75B71696-F68C-493E-998D-CC33CA41914E";
shapes = (
{
closed = 1;
nodes = (
(819,822,l),
(558,822,l),
(558,383,l),
(819,383,l),
(819,482,l),
(873,482,l),
(873,743,l),
(819,743,l)
);
},
{
closed = 1;
nodes = (
(498,364,o),
(539,398,o),
(536,808,c),
(34,808,l),
(34,601,l),
(268,601,l),
(268,582,o),
(250,575,o),
(9,566,c),
(27,356,l)
);
},
{
closed = 1;
nodes = (
(451,148,o),
(357,125,o),
(251,130,c),
(251,148,l),
(366,143,o),
(433,169,o),
(433,189,cs),
(433,337,l),
(27,337,l),
(27,206,l),
(189,206,l),
(189,188,l),
(27,188,l),
(30,3,ls),
(30,-78,o),
(446,-69,o),
(504,-20,c),
(462,148,l),
(540,148,l),
(540,-42,l),
(819,-42,l),
(819,359,l),
(451,359,l),
(451,189,ls)
);
}
);
width = 882;
}
);
unicode = 44041;
},
{
glyphname = "galm-ko";
lastChange = "2023-04-07 17:10:19 +0000";
layers = (
{
layerId = "75B71696-F68C-493E-998D-CC33CA41914E";
shapes = (
{
closed = 1;
nodes = (
(819,822,l),
(558,822,l),
(558,377,l),
(819,377,l),
(819,474,l),
(873,474,l),
(873,735,l),
(819,735,l)
);
},
{
closed = 1;
nodes = (
(498,364,o),
(539,398,o),
(536,808,c),
(34,808,l),
(34,601,l),
(268,601,l),
(268,582,o),
(250,575,o),
(9,566,c),
(27,356,l)
);
},
{
closed = 1;
nodes = (
(419,165,l),
(410,158,o),
(354,125,o),
(248,130,c),
(248,148,l),
(363,143,o),
(420,185,o),
(420,189,cs),
(420,328,l),
(27,328,l),
(27,197,l),
(189,197,l),
(189,179,l),
(27,179,l),
(30,3,ls),
(30,-70,o),
(356,-77,o),
(464,-42,c),
(819,-42,l),
(819,355,l),
(450,355,l),
(450,84,l),
(420,164,l)
);
},
{
closed = 1;
nodes = (
(639,122,l),
(621,122,l),
(621,230,l),
(639,230,l)
);
}
);
width = 882;
}
);
unicode = 44042;
},
{
glyphname = "galb-ko";
lastChange = "2023-04-07 17:10:19 +0000";
layers = (
{
layerId = "75B71696-F68C-493E-998D-CC33CA41914E";
shapes = (
{
closed = 1;
nodes = (
(819,822,l),
(558,822,l),
(558,377,l),
(819,377,l),
(819,476,l),
(873,476,l),
(873,737,l),
(819,737,l)
);
},
{
closed = 1;
nodes = (
(498,364,o),
(539,398,o),
(536,808,c),
(34,808,l),
(34,601,l),
(268,601,l),
(268,582,o),
(250,575,o),
(9,566,c),
(27,356,l)
);
},
{
closed = 1;
nodes = (
(604,355,l),
(433,355,l),
(433,91,l),
(406,164,l),
(405,165,l),
(396,158,o),
(348,125,o),
(251,130,c),
(251,148,l),
(357,143,o),
(406,185,o),
(406,189,cs),
(406,337,l),
(27,337,l),
(27,206,l),
(189,206,l),
(189,188,l),
(27,188,l),
(30,3,ls),
(30,-70,o),
(345,-77,o),
(450,-42,c),
(819,-42,l),
(819,355,l),
(639,355,l),
(639,296,l),
(604,296,l)
);
},
{
closed = 1;
nodes = (
(639,161,l),
(639,102,l),
(604,102,l),
(604,161,l)
);
}
);
width = 882;
}
);
unicode = 44043;
},
{
glyphname = "gam-ko";
lastChange = "2023-04-07 17:10:19 +0000";
layers = (
{
layerId = "75B71696-F68C-493E-998D-CC33CA41914E";
shapes = (
{
closed = 1;
nodes = (
(819,822,l),
(549,822,l),
(549,341,l),
(819,341,l),
(819,462,l),
(873,462,l),
(873,723,l),
(819,723,l)
);
},
{
closed = 1;
nodes = (
(34,601,l),
(268,601,l),
(268,582,o),
(250,575,o),
(9,566,c),
(27,343,l),
(498,350,o),
(530,393,o),
(527,813,c),
(34,813,l)
);
},
{
closed = 1;
nodes = (
(819,319,l),
(41,319,l),
(41,-42,l),
(819,-42,l)
);
},
{
closed = 1;
nodes = (
(549,142,l),
(311,142,l),
(311,160,l),
(549,160,l)
);
}
);
width = 882;
}
);
unicode = 44048;
},
{
glyphname = "gab-ko";
lastChange = "2023-04-07 17:10:19 +0000";
layers = (
{
layerId = "75B71696-F68C-493E-998D-CC33CA41914E";
shapes = (
{
closed = 1;
nodes = (
(819,822,l),
(549,822,l),
(549,374,l),
(819,374,l),
(819,478,l),
(873,478,l),
(873,739,l),
(819,739,l)
);
},
{
closed = 1;
nodes = (
(34,612,l),
(268,612,l),
(268,593,o),
(250,586,o),
(9,577,c),
(27,363,l),
(498,370,o),
(530,404,o),
(527,815,c),
(34,815,l)
);
},
{
closed = 1;
nodes = (
(324,341,l),
(45,341,l),
(45,-42,l),
(819,-42,l),
(819,350,l),
(540,350,l),
(540,284,l),
(324,284,l)
);
},
{
closed = 1;
nodes = (
(540,158,l),
(540,120,l),
(324,120,l),
(324,158,l)
);
}
);
width = 882;
}
);
unicode = 44049;
},
{
glyphname = "gabs-ko";
lastChange = "2023-04-07 17:10:19 +0000";
layers = (
{
layerId = "75B71696-F68C-493E-998D-CC33CA41914E";
shapes = (
{
closed = 0;
nodes = (
(279,340,l)
);
},
{
closed = 1;
nodes = (
(873,730,l),
(819,730,l),
(819,822,l),
(549,822,l),
(549,359,l),
(819,359,l),
(819,469,l),
(873,469,l)
);
},
{
closed = 1;
nodes = (
(34,601,l),
(268,601,l),
(268,582,o),
(250,575,o),
(9,566,c),
(27,347,l),
(498,355,o),
(530,389,o),
(527,808,c),
(34,808,l)
);
},
{
closed = 1;
nodes = (
(751,257,o),
(753,297,o),
(752,337,c),
(509,337,l),
(509,237,o),
(493,210,o),
(439,188,c),
(439,319,l),
(259,319,l),
(259,277,l),
(224,277,l),
(224,319,l),
(35,319,l),
(35,-42,l),
(439,-42,l),
(439,79,l),
(481,-55,l),
(561,-33,o),
(622,8,o),
(666,61,c),
(651,-21,l),
(723,-24,o),
(779,-33,o),
(827,-52,c),
(877,180,l),
(847,198,o),
(797,212,o),
(742,218,c)
);
},
{
closed = 1;
nodes = (
(259,142,l),
(259,102,l),
(224,102,l),
(224,142,l)
);
}
);
width = 882;
}
);
unicode = 44050;
},
{
glyphname = "gas-ko";
lastChange = "2023-04-07 17:10:19 +0000";
layers = (
{
layerId = "75B71696-F68C-493E-998D-CC33CA41914E";
shapes = (
{
closed = 1;
nodes = (
(873,437,l),
(873,698,l),
(819,698,l),
(819,822,l),
(549,822,l),
(549,333,l),
(311,333,l),
(286,238,o),
(151,202,o),
(36,195,c),
(62,-52,l),
(227,-53,o),
(375,-1,o),
(473,83,c),
(461,-1,l),
(635,-1,o),
(771,-26,o),
(813,-42,c),
(854,203,l),
(808,221,o),
(706,235,o),
(579,239,c),
(582,252,o),
(585,265,o),
(587,277,c),
(819,277,l),
(819,437,l)
);
},
{
closed = 1;
nodes = (
(34,597,l),
(268,597,l),
(268,578,o),
(250,571,o),
(9,562,c),
(27,337,l),
(498,344,o),
(530,387,o),
(527,808,c),
(34,808,l)
);
}
);
width = 882;
}
);
unicode = 44051;
},
{
glyphname = "gass-ko";
lastChange = "2023-04-07 17:10:19 +0000";
layers = (
{
layerId = "75B71696-F68C-493E-998D-CC33CA41914E";
shapes = (
{
closed = 1;
nodes = (
(549,822,l),
(549,351,l),
(819,351,l),
(819,468,l),
(873,468,l),
(873,729,l),
(819,729,l),
(819,822,l)
);
},
{
closed = 1;
nodes = (
(498,348,o),
(530,387,o),
(527,808,c),
(34,808,l),
(34,601,l),
(268,601,l),
(268,582,o),
(250,575,o),
(9,566,c),
(27,341,l)
);
},
{
closed = 1;
nodes = (
(435,288,o),
(426,239,o),
(409,206,c),
(392,212,l),
(408,250,o),
(415,276,o),
(415,318,c),
(145,318,l),
(144,282,o),
(102,209,o),
(9,189,c),
(83,-58,l),
(163,-44,o),
(261,7,o),
(296,35,c),
(336,-58,l),
(452,-37,o),
(538,8,o),
(599,65,c),
(588,-19,l),
(672,-19,o),
(772,-35,o),
(814,-51,c),
(855,203,l),
(818,217,o),
(759,226,o),
(701,230,c),
(710,265,o),
(714,300,o),
(712,333,c),
(434,333,l)
);
}
);
width = 882;
}
);
unicode = 44052;
},
{
glyphname = "gang-ko";
lastChange = "2023-04-07 17:10:19 +0000";
layers = (
{
layerId = "75B71696-F68C-493E-998D-CC33CA41914E";
shapes = (
{
closed = 1;
nodes = (
(873,709,l),
(819,709,l),
(819,822,l),
(549,822,l),
(549,308,l),
(196,308,ls),
(97,307,o),
(23,232,o),
(19,131,cs),
(19,17,o),
(96,-51,o),
(196,-51,cs),
(665,-51,ls),
(767,-52,o),
(842,15,o),
(842,131,cs),
(842,216,o),
(794,285,o),
(714,303,c),
(819,303,l),
(819,448,l),
(873,448,l)
);
},
{
closed = 1;
nodes = (
(498,336,o),
(530,386,o),
(527,807,c),
(34,807,l),
(34,596,l),
(268,596,l),
(268,576,o),
(250,565,o),
(9,556,c),
(27,329,l)
);
},
{
closed = 1;
nodes = (
(266,140,o),
(262,140,o),
(262,149,cs),
(262,158,o),
(266,158,o),
(271,158,cs),
(590,158,ls),
(594,158,o),
(599,158,o),
(599,149,cs),
(599,140,o),
(594,140,o),
(590,140,cs),
(271,140,ls)
);
}
);
width = 882;
}
);
unicode = 44053;
},
{
glyphname = "gaj-ko";
lastChange = "2023-04-07 17:10:19 +0000";
layers = (
{
layerId = "75B71696-F68C-493E-998D-CC33CA41914E";
shapes = (
{
closed = 1;
nodes = (
(549,822,l),
(549,359,l),
(819,359,l),
(819,469,l),
(873,469,l),
(873,730,l),
(819,730,l),
(819,822,l)
);
},
{
closed = 1;
nodes = (
(498,366,o),
(530,414,o),
(527,813,c),
(34,813,l),
(34,610,l),
(268,610,l),
(268,591,o),
(250,584,o),
(9,575,c),
(27,359,l)
);
},
{
closed = 1;
nodes = (
(819,337,l),
(45,337,l),
(45,211,l),
(244,211,l),
(180,179,o),
(93,167,o),
(23,164,c),
(48,-52,l),
(206,-52,o),
(360,-6,o),
(466,67,c),
(457,-10,l),
(632,-10,o),
(759,-30,o),
(800,-46,c),
(833,155,l),
(788,171,o),
(698,182,o),
(581,185,c),
(586,194,o),
(590,203,o),
(594,211,c),
(819,211,l)
);
}
);
width = 882;
}
);
unicode = 44054;
},
{
glyphname = "gac-ko";
lastChange = "2023-04-07 17:10:19 +0000";
layers = (
{
layerId = "75B71696-F68C-493E-998D-CC33CA41914E";
shapes = (
{
closed = 1;
nodes = (
(873,721,l),
(819,721,l),
(819,822,l),
(549,822,l),
(549,355,l),
(292,355,l),
(293,339,o),
(292,326,o),
(291,314,c),
(32,314,l),
(32,202,l),
(240,202,l),
(178,170,o),
(93,158,o),
(23,155,c),
(48,-52,l),
(221,-52,o),
(369,-7,o),
(467,67,c),
(457,-10,l),
(632,-10,o),
(759,-30,o),
(800,-46,c),
(833,146,l),
(787,163,o),
(689,174,o),
(563,177,c),
(568,185,o),
(572,194,o),
(574,202,c),
(819,202,l),
(819,314,l),
(590,314,l),
(590,342,l),
(819,342,l),
(819,460,l),
(873,460,l)
);
},
{
closed = 1;
nodes = (
(498,365,o),
(530,412,o),
(527,811,c),
(34,811,l),
(34,608,l),
(268,608,l),
(268,590,o),
(250,582,o),
(9,573,c),
(27,357,l)
);
}
);
width = 882;
}
);
unicode = 44055;
},
{
glyphname = "gat-ko";
lastChange = "2023-04-07 17:10:19 +0000";
layers = (
{
layerId = "75B71696-F68C-493E-998D-CC33CA41914E";
shapes = (
{
closed = 1;
nodes = (
(549,822,l),
(549,360,l),
(819,360,l),
(819,460,l),
(873,460,l),
(873,721,l),
(819,721,l),
(819,822,l)
);
},
{
closed = 1;
nodes = (
(39,615,l),
(268,615,l),
(268,596,o),
(255,589,o),
(14,580,c),
(32,365,l),
(502,373,o),
(530,403,o),
(527,814,c),
(39,814,l)
);
},
{
closed = 1;
nodes = (
(810,210,l),
(320,210,l),
(320,232,l),
(819,232,l),
(819,340,l),
(41,340,l),
(41,-42,l),
(828,-42,l),
(828,111,l),
(320,111,l),
(320,133,l),
(810,133,l)
);
}
);
width = 882;
}
);
unicode = 44057;
},
{
glyphname = "gap-ko";
lastChange = "2023-04-07 17:10:19 +0000";
layers = (
{
layerId = "75B71696-F68C-493E-998D-CC33CA41914E";
shapes = (
{
closed = 1;
nodes = (
(558,822,l),
(558,372,l),
(819,372,l),
(819,475,l),
(873,475,l),
(873,736,l),
(819,736,l),
(819,822,l)
);
},
{
closed = 1;
nodes = (
(34,615,l),
(277,615,l),
(277,599,o),
(259,592,o),
(9,583,c),
(27,372,l),
(507,379,o),
(539,404,o),
(536,815,c),
(34,815,l)
);
},
{
closed = 1;
nodes = (
(819,196,l),
(819,349,l),
(43,349,l),
(43,196,l),
(270,196,l),
(97,169,l),
(110,120,l),
(34,120,l),
(34,-51,l),
(828,-51,l),
(828,120,l),
(752,120,l),
(765,169,l),
(592,196,l)
);
},
{
closed = 1;
nodes = (
(472,120,l),
(391,120,l),
(386,196,l),
(476,196,l)
);
}
);
width = 882;
}
);
unicode = 44058;
},
{
glyphname = "gah-ko";
lastChange = "2023-04-07 17:10:19 +0000";
layers = (
{
layerId = "75B71696-F68C-493E-998D-CC33CA41914E";
shapes = (
{
closed = 1;
nodes = (
(873,479,l),
(873,740,l),
(819,740,l),
(819,822,l),
(549,822,l),
(549,377,l),
(293,377,l),
(293,341,l),
(36,341,l),
(36,188,l),
(97,188,l),
(70,173,o),
(53,146,o),
(53,97,cs),
(53,11,o),
(107,-51,o),
(211,-51,cs),
(652,-51,ls),
(757,-52,o),
(812,9,o),
(812,97,cs),
(812,145,o),
(797,173,o),
(771,188,c),
(828,188,l),
(828,341,l),
(572,341,l),
(572,366,l),
(819,366,l),
(819,479,l)
);
},
{
closed = 1;
nodes = (
(34,621,l),
(268,621,l),
(268,606,o),
(250,599,o),
(9,590,c),
(27,381,l),
(498,388,o),
(530,413,o),
(527,815,c),
(34,815,l)
);
},
{
closed = 1;
nodes = (
(295,133,o),
(291,133,o),
(291,142,cs),
(291,151,o),
(295,151,o),
(300,151,cs),
(564,151,ls),
(568,151,o),
(573,151,o),
(573,142,cs),
(573,133,o),
(568,133,o),
(564,133,cs),
(300,133,ls)
);
}
);
width = 882;
}
);
unicode = 44059;
},
{
glyphname = "gae-ko";
lastChange = "2023-04-07 17:10:19 +0000";
layers = (
{
layerId = "75B71696-F68C-493E-998D-CC33CA41914E";
shapes = (
{
closed = 1;
nodes = (
(630,565,l),
(630,804,l),
(441,804,l),
(441,-24,l),
(630,-24,l),
(630,286,l),
(666,286,l),
(666,-42,l),
(864,-42,l),
(864,822,l),
(666,822,l),
(666,565,l)
);
},
{
closed = 1;
nodes = (
(173,507,l),
(168,384,o),
(113,299,o),
(9,282,c),
(41,1,l),
(346,55,o),
(417,167,o),
(416,777,c),
(42,777,l),
(42,507,l)
);
}
);
width = 882;
}
);
unicode = 44060;
},
{
glyphname = "gaeg-ko";
lastChange = "2023-04-07 17:10:19 +0000";
layers = (
{
layerId = "75B71696-F68C-493E-998D-CC33CA41914E";
shapes = (
{
closed = 1;
nodes = (
(653,687,l),
(653,813,l),
(482,813,l),
(482,304,l),
(653,304,l),
(653,444,l),
(684,444,l),
(684,304,l),
(864,304,l),
(864,822,l),
(684,822,l),
(684,687,l)
);
},
{
closed = 1;
nodes = (
(34,583,l),
(210,583,l),
(210,564,o),
(165,548,o),
(14,539,c),
(32,309,l),
(403,316,o),
(463,371,o),
(459,795,c),
(34,795,l)
);
},
{
closed = 1;
nodes = (
(585,-42,l),
(864,-42,l),
(864,282,l),
(54,282,l),
(54,43,l),
(585,43,l)
);
}
);
width = 882;
}
);
unicode = 44061;
},
{
glyphname = "gaen-ko";
lastChange = "2023-04-07 17:10:19 +0000";
layers = (
{
layerId = "75B71696-F68C-493E-998D-CC33CA41914E";
shapes = (
{
closed = 1;
nodes = (
(684,228,l),
(864,228,l),
(864,822,l),
(684,822,l),
(684,669,l),
(653,669,l),
(653,813,l),
(482,813,l),
(482,246,l),
(653,246,l),
(653,426,l),
(684,426,l)
);
},
{
closed = 1;
nodes = (
(34,588,l),
(210,588,l),
(210,569,o),
(165,553,o),
(14,544,c),
(32,313,l),
(403,320,o),
(463,375,o),
(459,799,c),
(34,799,l)
);
},
{
closed = 1;
nodes = (
(54,291,l),
(54,-42,l),
(873,-42,l),
(873,196,l),
(342,196,l),
(342,291,l)
);
}
);
width = 882;
}
);
unicode = 44064;
},
{
glyphname = "gaed-ko";
lastChange = "2023-04-07 17:10:19 +0000";
layers = (
{
layerId = "75B71696-F68C-493E-998D-CC33CA41914E";
shapes = (
{
closed = 1;
nodes = (
(675,334,l),
(855,334,l),
(855,822,l),
(675,822,l),
(675,700,l),
(644,700,l),
(644,813,l),
(473,813,l),
(473,334,l),
(644,334,l),
(644,457,l),
(675,457,l)
);
},
{
closed = 1;
nodes = (
(34,601,l),
(210,601,l),
(210,582,o),
(165,566,o),
(14,557,c),
(32,340,l),
(394,347,o),
(454,380,o),
(450,804,c),
(34,804,l)
);
},
{
closed = 1;
nodes = (
(855,174,l),
(855,314,l),
(41,314,l),
(41,-42,l),
(864,-42,l),
(864,147,l),
(320,147,l),
(320,174,l)
);
}
);
width = 882;
}
);
unicode = 44067;
},
{
glyphname = "gael-ko";
lastChange = "2023-04-07 17:10:19 +0000";
layers = (
{
layerId = "75B71696-F68C-493E-998D-CC33CA41914E";
shapes = (
{
closed = 1;
nodes = (
(664,365,l),
(844,365,l),
(844,822,l),
(664,822,l),
(664,719,l),
(633,719,l),
(633,813,l),
(462,813,l),
(462,365,l),
(633,365,l),
(633,476,l),
(664,476,l)
);
},
{
closed = 1;
nodes = (
(34,610,l),
(201,610,l),
(201,591,o),
(156,580,o),
(14,571,c),
(32,363,l),
(394,370,o),
(445,398,o),
(441,804,c),
(34,804,l)
);
},
{
closed = 1;
nodes = (
(839,190,o),
(773,136,o),
(497,124,c),
(497,142,l),
(751,153,o),
(844,208,o),
(844,220,cs),
(844,342,l),
(52,342,l),
(52,225,l),
(400,225,l),
(400,207,l),
(52,207,l),
(52,7,ls),
(52,-91,o),
(849,-67,o),
(873,-10,c),
(848,192,l),
(845,194,l)
);
}
);
width = 882;
}
);
unicode = 44068;
},
{
glyphname = "gaem-ko";
lastChange = "2023-04-07 17:10:19 +0000";
layers = (
{
layerId = "75B71696-F68C-493E-998D-CC33CA41914E";
shapes = (
{
closed = 1;
nodes = (
(648,699,l),
(648,813,l),
(477,813,l),
(477,332,l),
(648,332,l),
(648,456,l),
(680,456,l),
(680,332,l),
(860,332,l),
(860,822,l),
(680,822,l),
(680,699,l)
);
},
{
closed = 1;
nodes = (
(39,599,l),
(214,599,l),
(214,581,o),
(169,564,o),
(18,555,c),
(36,338,l),
(399,346,o),
(458,378,o),
(455,802,c),
(39,802,l)
);
},
{
closed = 1;
nodes = (
(860,310,l),
(50,310,l),
(50,-42,l),
(860,-42,l)
);
},
{
closed = 1;
nodes = (
(590,138,l),
(320,138,l),
(320,156,l),
(590,156,l)
);
}
);
width = 882;
}
);
unicode = 44076;
},
{
glyphname = "gaeb-ko";
lastChange = "2023-04-07 17:10:19 +0000";
layers = (
{
layerId = "75B71696-F68C-493E-998D-CC33CA41914E";
shapes = (
{
closed = 1;
nodes = (
(648,716,l),
(648,813,l),
(477,813,l),
(477,365,l),
(648,365,l),
(648,473,l),
(680,473,l),
(680,365,l),
(860,365,l),
(860,822,l),
(680,822,l),
(680,716,l)
);
},
{
closed = 1;
nodes = (
(39,608,l),
(214,608,l),
(214,590,o),
(169,573,o),
(18,564,c),
(36,356,l),
(399,364,o),
(458,396,o),
(455,802,c),
(39,802,l)
);
},
{
closed = 1;
nodes = (
(342,332,l),
(63,332,l),
(63,-42,l),
(860,-42,l),
(860,341,l),
(581,341,l),
(581,284,l),
(342,284,l)
);
},
{
closed = 1;
nodes = (
(581,158,l),
(581,120,l),
(342,120,l),
(342,158,l)
);
}
);
width = 882;
}
);
unicode = 44077;
},
{
glyphname = "gaes-ko";
lastChange = "2023-04-07 17:10:19 +0000";
layers = (
{
layerId = "75B71696-F68C-493E-998D-CC33CA41914E";
shapes = (
{
closed = 1;
nodes = (
(680,278,l),
(864,278,l),
(864,822,l),
(680,822,l),
(680,704,l),
(644,704,l),
(644,813,l),
(473,813,l),
(473,346,l),
(644,346,l),
(644,461,l),
(680,461,l)
);
},
{
closed = 1;
nodes = (
(34,592,l),
(210,592,l),
(210,573,o),
(165,557,o),
(14,548,c),
(32,326,l),
(394,333,o),
(454,371,o),
(450,799,c),
(34,799,l)
);
},
{
closed = 1;
nodes = (
(597,266,o),
(600,295,o),
(599,324,c),
(320,324,l),
(295,238,o),
(160,193,o),
(40,186,c),
(66,-52,l),
(234,-53,o),
(383,-1,o),
(482,82,c),
(470,-1,l),
(644,-1,o),
(780,-26,o),
(827,-42,c),
(869,203,l),
(818,221,o),
(716,235,o),
(590,239,c)
);
}
);
width = 882;
}
);
unicode = 44079;
},
{
glyphname = "gaess-ko";
lastChange = "2023-04-07 17:10:19 +0000";
layers = (
{
layerId = "75B71696-F68C-493E-998D-CC33CA41914E";
shapes = (
{
closed = 1;
nodes = (
(716,249,o),
(720,268,o),
(721,288,c),
(855,288,l),
(855,822,l),
(675,822,l),
(675,719,l),
(644,719,l),
(644,813,l),
(473,813,l),
(473,358,l),
(644,358,l),
(644,476,l),
(675,476,l),
(675,333,l),
(444,333,l),
(445,288,o),
(436,239,o),
(419,206,c),
(402,212,l),
(418,250,o),
(425,276,o),
(425,318,c),
(155,318,l),
(154,282,o),
(112,209,o),
(19,189,c),
(93,-58,l),
(173,-44,o),
(271,7,o),
(306,35,c),
(346,-58,l),
(462,-37,o),
(548,8,o),
(608,65,c),
(598,-19,l),
(682,-19,o),
(782,-35,o),
(824,-51,c),
(865,203,l),
(828,217,o),
(769,226,o),
(711,230,c)
);
},
{
closed = 1;
nodes = (
(405,341,o),
(454,353,o),
(450,804,c),
(34,804,l),
(34,597,l),
(201,597,l),
(198,578,o),
(183,571,o),
(14,562,c),
(32,334,l)
);
}
);
width = 882;
}
);
unicode = 44080;
},
{
glyphname = "gaeng-ko";
lastChange = "2023-04-07 17:10:19 +0000";
layers = (
{
layerId = "75B71696-F68C-493E-998D-CC33CA41914E";
shapes = (
{
closed = 1;
nodes = (
(860,822,l),
(680,822,l),
(680,699,l),
(648,699,l),
(648,813,l),
(477,813,l),
(477,323,l),
(648,323,l),
(648,456,l),
(680,456,l),
(680,300,l),
(205,300,ls),
(106,299,o),
(32,224,o),
(28,127,cs),
(28,17,o),
(105,-51,o),
(205,-51,cs),
(692,-51,ls),
(794,-52,o),
(869,15,o),
(869,127,cs),
(869,209,o),
(821,277,o),
(741,295,c),
(860,295,l)
);
},
{
closed = 1;
nodes = (
(394,333,o),
(454,371,o),
(450,799,c),
(34,799,l),
(34,592,l),
(210,592,l),
(210,573,o),
(165,557,o),
(14,548,c),
(32,326,l)
);
},
{
closed = 1;
nodes = (
(275,135,o),
(271,135,o),
(271,144,cs),
(271,153,o),
(275,153,o),
(280,153,cs),
(617,153,ls),
(621,153,o),
(626,153,o),
(626,144,cs),
(626,135,o),
(621,135,o),
(617,135,cs),
(280,135,ls)
);
}
);
width = 882;
}
);
unicode = 44081;
},
{
glyphname = "gya-ko";
lastChange = "2023-04-07 17:10:19 +0000";
layers = (
{
layerId = "75B71696-F68C-493E-998D-CC33CA41914E";
shapes = (
{
closed = 1;
nodes = (
(243,525,l),
(239,400,o),
(190,282,o),
(9,282,c),
(41,-8,l),
(444,10,o),
(513,185,o),
(513,795,c),
(32,795,l),
(32,525,l)
);
},
{
closed = 1;
nodes = (
(810,696,l),
(810,822,l),
(540,822,l),
(540,-42,l),
(810,-42,l),
(810,129,l),
(873,129,l),
(873,381,l),
(810,381,l),
(810,444,l),
(873,444,l),
(873,696,l)
);
}
);
width = 882;
}
);
unicode = 44088;
},
{
glyphname = "gyag-ko";
lastChange = "2023-04-07 17:10:19 +0000";
layers = (
{
layerId = "75B71696-F68C-493E-998D-CC33CA41914E";
shapes = (
{
closed = 1;
nodes = (
(819,766,l),
(819,822,l),
(549,822,l),
(549,313,l),
(819,313,l),
(819,383,l),
(873,383,l),
(873,554,l),
(819,554,l),
(819,595,l),
(873,595,l),
(873,766,l)
);
},
{
closed = 1;
nodes = (
(39,588,l),
(268,588,l),
(268,569,o),
(255,553,o),
(14,544,c),
(32,316,l),
(502,323,o),
(530,366,o),
(527,808,c),
(39,808,l)
);
},
{
closed = 1;
nodes = (
(540,-42,l),
(819,-42,l),
(819,291,l),
(45,291,l),
(45,52,l),
(540,52,l)
);
}
);
width = 882;
}
);
unicode = 44089;
},
{
glyphname = "gyan-ko";
lastChange = "2023-04-07 17:10:19 +0000";
layers = (
{
layerId = "75B71696-F68C-493E-998D-CC33CA41914E";
shapes = (
{
closed = 1;
nodes = (
(819,745,l),
(819,822,l),
(549,822,l),
(549,232,l),
(819,232,l),
(819,349,l),
(873,349,l),
(873,520,l),
(819,520,l),
(819,574,l),
(873,574,l),
(873,745,l)
);
},
{
closed = 1;
nodes = (
(30,592,l),
(268,592,l),
(268,573,o),
(246,557,o),
(5,548,c),
(23,320,l),
(493,328,o),
(530,375,o),
(527,808,c),
(30,808,l)
);
},
{
closed = 1;
nodes = (
(36,-42,l),
(828,-42,l),
(828,196,l),
(324,196,l),
(324,295,l),
(36,295,l)
);
}
);
width = 882;
},
{
associatedMasterId = "75B71696-F68C-493E-998D-CC33CA41914E";
layerId = "408DACA4-686D-482A-96BA-6B43E2131E02";
name = "Mar 29 22, 15:34";
shapes = (
{
closed = 1;
nodes = (
(610,145,l),
(910,145,l),
(910,800,l),
(610,800,l)
);
},
{
closed = 1;
nodes = (
(40,-77,l),
(360,-77,l),
(360,215,l),
(40,215,l)
);
},
{
closed = 1;
nodes = (
(920,-160,l),
(920,105,l),
(40,105,l),
(40,-160,l)
);
},
{
closed = 1;
nodes = (
(33,785,l),
(33,545,l),
(298,545,l),
(298,524,o),
(273,506,o),
(5,496,c),
(25,243,l),
(548,251,o),
(589,304,o),
(585,785,c)
);
},
{
closed = 1;
nodes = (
(970,275,l),
(970,465,l),
(654,465,l),
(654,275,l)
);
},
{
closed = 1;
nodes = (
(970,525,l),
(970,715,l),
(654,715,l),
(654,525,l)
);
}
);
visible = 1;
width = 980;
}
);
unicode = 44092;
},
{
glyphname = "gyal-ko";
lastChange = "2023-04-07 17:10:19 +0000";
layers = (
{
layerId = "75B71696-F68C-493E-998D-CC33CA41914E";
shapes = (
{
closed = 1;
nodes = (
(819,780,l),
(819,822,l),
(549,822,l),
(549,372,l),
(819,372,l),
(819,420,l),
(873,420,l),
(873,582,l),
(819,582,l),
(819,618,l),
(873,618,l),
(873,780,l)
);
},
{
closed = 1;
nodes = (
(34,624,l),
(268,624,l),
(268,605,o),
(250,598,o),
(9,589,c),
(27,374,l),
(498,382,o),
(530,420,o),
(527,813,c),
(34,813,l)
);
},
{
closed = 1;
nodes = (
(814,190,o),
(748,136,o),
(472,124,c),
(472,142,l),
(725,153,o),
(819,208,o),
(819,220,cs),
(819,351,l),
(40,351,l),
(40,225,l),
(387,225,l),
(387,207,l),
(40,207,l),
(40,7,ls),
(40,-91,o),
(824,-67,o),
(848,-10,c),
(823,192,l),
(820,194,l)
);
}
);
width = 882;
}
);
unicode = 44096;
},
{
glyphname = "gyas-ko";
lastChange = "2023-04-07 17:10:19 +0000";
layers = (
{
layerId = "75B71696-F68C-493E-998D-CC33CA41914E";
shapes = (
{
closed = 1;
nodes = (
(819,736,l),
(819,822,l),
(549,822,l),
(549,333,l),
(311,333,l),
(286,238,o),
(151,202,o),
(36,195,c),
(62,-52,l),
(227,-53,o),
(375,-1,o),
(473,83,c),
(461,-1,l),
(635,-1,o),
(771,-26,o),
(813,-42,c),
(854,203,l),
(808,221,o),
(706,235,o),
(579,239,c),
(582,252,o),
(585,265,o),
(587,277,c),
(819,277,l),
(819,381,l),
(873,381,l),
(873,534,l),
(819,534,l),
(819,583,l),
(873,583,l),
(873,736,l)
);
},
{
closed = 1;
nodes = (
(34,597,l),
(268,597,l),
(268,578,o),
(250,571,o),
(9,562,c),
(27,337,l),
(498,344,o),
(530,387,o),
(527,808,c),
(34,808,l)
);
}
);
width = 882;
}
);
unicode = 44107;
},
{
glyphname = "gyang-ko";
lastChange = "2023-04-07 17:10:19 +0000";
layers = (
{
layerId = "75B71696-F68C-493E-998D-CC33CA41914E";
shapes = (
{
closed = 1;
nodes = (
(819,764,l),
(819,822,l),
(549,822,l),
(549,308,l),
(196,308,ls),
(97,307,o),
(23,232,o),
(19,131,cs),
(19,17,o),
(96,-51,o),
(196,-51,cs),
(665,-51,ls),
(767,-52,o),
(842,15,o),
(842,131,cs),
(842,216,o),
(794,285,o),
(714,303,c),
(819,303,l),
(819,380,l),
(873,380,l),
(873,551,l),
(819,551,l),
(819,593,l),
(873,593,l),
(873,764,l)
);
},
{
closed = 1;
nodes = (
(498,336,o),
(530,386,o),
(527,807,c),
(34,807,l),
(34,596,l),
(268,596,l),
(268,576,o),
(250,565,o),
(9,556,c),
(27,329,l)
);
},
{
closed = 1;
nodes = (
(266,140,o),
(262,140,o),
(262,149,cs),
(262,158,o),
(266,158,o),
(271,158,cs),
(590,158,ls),
(594,158,o),
(599,158,o),
(599,149,cs),
(599,140,o),
(594,140,o),
(590,140,cs),
(271,140,ls)
);
}
);
width = 882;
}
);
unicode = 44109;
},
{
glyphname = "gyae-ko";
lastChange = "2023-04-07 17:10:19 +0000";
layers = (
{
layerId = "75B71696-F68C-493E-998D-CC33CA41914E";
shapes = (
{
closed = 1;
nodes = (
(630,688,l),
(630,804,l),
(441,804,l),
(441,-24,l),
(630,-24,l),
(630,148,l),
(666,148,l),
(666,-42,l),
(864,-42,l),
(864,822,l),
(666,822,l),
(666,688,l)
);
},
{
closed = 1;
nodes = (
(173,507,l),
(168,384,o),
(113,299,o),
(9,282,c),
(41,1,l),
(346,55,o),
(417,167,o),
(416,777,c),
(42,777,l),
(42,507,l)
);
},
{
closed = 1;
nodes = (
(666,472,l),
(666,364,l),
(630,364,l),
(630,472,l)
);
}
);
width = 882;
}
);
unicode = 44116;
},
{
glyphname = "gyaen-ko";
lastChange = "2023-04-07 17:10:19 +0000";
layers = (
{
layerId = "75B71696-F68C-493E-998D-CC33CA41914E";
shapes = (
{
closed = 1;
nodes = (
(675,228,l),
(855,228,l),
(855,822,l),
(675,822,l),
(675,745,l),
(644,745,l),
(644,813,l),
(473,813,l),
(473,246,l),
(644,246,l),
(644,363,l),
(675,363,l)
);
},
{
closed = 1;
nodes = (
(34,588,l),
(210,588,l),
(210,569,o),
(165,553,o),
(14,544,c),
(32,313,l),
(394,320,o),
(454,375,o),
(450,799,c),
(34,799,l)
);
},
{
closed = 1;
nodes = (
(644,516,l),
(644,592,l),
(675,592,l),
(675,516,l)
);
},
{
closed = 1;
nodes = (
(54,291,l),
(54,-42,l),
(864,-42,l),
(864,196,l),
(342,196,l),
(342,291,l)
);
}
);
width = 882;
}
);
unicode = 44120;
},
{
glyphname = "gyael-ko";
lastChange = "2023-04-07 17:10:19 +0000";
layers = (
{
layerId = "75B71696-F68C-493E-998D-CC33CA41914E";
shapes = (
{
closed = 1;
nodes = (
(664,365,l),
(844,365,l),
(844,822,l),
(664,822,l),
(664,769,l),
(633,769,l),
(633,813,l),
(462,813,l),
(462,365,l),
(633,365,l),
(633,413,l),
(664,413,l)
);
},
{
closed = 1;
nodes = (
(34,610,l),
(201,610,l),
(201,591,o),
(156,580,o),
(14,571,c),
(32,363,l),
(394,370,o),
(445,398,o),
(441,804,c),
(34,804,l)
);
},
{
closed = 1;
nodes = (
(633,566,l),
(633,616,l),
(664,616,l),
(664,566,l)
);
},
{
closed = 1;
nodes = (
(839,190,o),
(773,136,o),
(497,124,c),
(497,142,l),
(751,153,o),
(844,208,o),
(844,220,cs),
(844,342,l),
(52,342,l),
(52,225,l),
(400,225,l),
(400,207,l),
(52,207,l),
(52,7,ls),
(52,-91,o),
(849,-67,o),
(873,-10,c),
(847,192,l),
(845,194,l)
);
}
);
width = 882;
}
);
unicode = 44124;
},
{
glyphname = "gyaeb-ko";
lastChange = "2023-04-07 17:10:19 +0000";
layers = (
{
layerId = "75B71696-F68C-493E-998D-CC33CA41914E";
shapes = (
{
closed = 1;
nodes = (
(648,768,l),
(648,813,l),
(477,813,l),
(477,365,l),
(648,365,l),
(648,417,l),
(680,417,l),
(680,365,l),
(860,365,l),
(860,822,l),
(680,822,l),
(680,768,l)
);
},
{
closed = 1;
nodes = (
(39,608,l),
(214,608,l),
(214,590,o),
(169,573,o),
(18,564,c),
(36,356,l),
(399,364,o),
(458,396,o),
(455,802,c),
(39,802,l)
);
},
{
closed = 1;
nodes = (
(680,615,l),
(680,570,l),
(648,570,l),
(648,615,l)
);
},
{
closed = 1;
nodes = (
(342,332,l),
(63,332,l),
(63,-42,l),
(860,-42,l),
(860,341,l),
(581,341,l),
(581,284,l),
(342,284,l)
);
},
{
closed = 1;
nodes = (
(581,158,l),
(581,120,l),
(342,120,l),
(342,158,l)
);
}
);
width = 882;
}
);
unicode = 44133;
},
{
glyphname = "geo-ko";
lastChange = "2023-04-07 17:10:19 +0000";
layers = (
{
layerId = "75B71696-F68C-493E-998D-CC33CA41914E";
shapes = (
{
closed = 1;
nodes = (
(527,583,l),
(530,647,o),
(531,717,o),
(531,795,c),
(41,795,l),
(41,525,l),
(261,525,l),
(257,401,o),
(199,291,o),
(9,291,c),
(41,1,l),
(51,0,l),
(312,12,o),
(437,86,o),
(491,304,c),
(594,304,l),
(594,-42,l),
(864,-42,l),
(864,822,l),
(594,822,l),
(594,583,l)
);
}
);
width = 882;
}
);
unicode = 44144;
},
{
glyphname = "geog-ko";
lastChange = "2023-04-07 17:10:19 +0000";
layers = (
{
layerId = "75B71696-F68C-493E-998D-CC33CA41914E";
shapes = (
{
closed = 1;
nodes = (
(540,705,l),
(540,808,l),
(48,808,l),
(48,588,l),
(282,588,l),
(282,569,o),
(268,553,o),
(23,544,c),
(41,316,l),
(323,320,o),
(448,338,o),
(501,444,c),
(590,444,l),
(590,313,l),
(860,313,l),
(860,822,l),
(590,822,l),
(590,705,l)
);
},
{
closed = 1;
nodes = (
(581,-42,l),
(860,-42,l),
(860,291,l),
(59,291,l),
(59,52,l),
(581,52,l)
);
}
);
width = 882;
}
);
unicode = 44145;
},
{
glyphname = "geon-ko";
lastChange = "2023-04-07 17:10:19 +0000";
layers = (
{
layerId = "75B71696-F68C-493E-998D-CC33CA41914E";
shapes = (
{
closed = 1;
nodes = (
(585,232,l),
(855,232,l),
(855,822,l),
(585,822,l),
(585,689,l),
(535,689,l),
(536,725,o),
(536,764,o),
(536,808,c),
(39,808,l),
(39,592,l),
(277,592,l),
(277,573,o),
(255,557,o),
(14,548,c),
(32,320,l),
(292,324,o),
(419,341,o),
(481,428,c),
(585,428,l)
);
},
{
closed = 1;
nodes = (
(54,295,l),
(54,-42,l),
(864,-42,l),
(864,196,l),
(342,196,l),
(342,295,l)
);
}
);
width = 882;
}
);
unicode = 44148;
},
{
glyphname = "geod-ko";
lastChange = "2023-04-07 17:10:19 +0000";
layers = (
{
layerId = "75B71696-F68C-493E-998D-CC33CA41914E";
shapes = (
{
closed = 1;
nodes = (
(581,460,l),
(581,345,l),
(851,345,l),
(851,822,l),
(581,822,l),
(581,721,l),
(531,721,l),
(531,813,l),
(43,813,l),
(43,606,l),
(273,606,l),
(273,587,o),
(259,580,o),
(18,571,c),
(36,352,l),
(303,356,o),
(428,372,o),
(485,460,c)
);
},
{
closed = 1;
nodes = (
(851,179,l),
(851,323,l),
(54,323,l),
(54,-42,l),
(860,-42,l),
(860,150,l),
(333,150,l),
(333,179,l)
);
}
);
width = 882;
}
);
unicode = 44151;
},
{
glyphname = "geol-ko";
lastChange = "2023-04-07 17:10:19 +0000";
layers = (
{
layerId = "75B71696-F68C-493E-998D-CC33CA41914E";
shapes = (
{
closed = 1;
nodes = (
(574,372,l),
(844,372,l),
(844,822,l),
(574,822,l),
(574,732,l),
(525,732,l),
(525,813,l),
(37,813,l),
(37,624,l),
(262,624,l),
(262,605,o),
(244,598,o),
(12,589,c),
(30,374,l),
(301,379,o),
(425,393,o),
(481,480,c),
(574,480,l)
);
},
{
closed = 1;
nodes = (
(839,190,o),
(773,136,o),
(497,124,c),
(497,142,l),
(751,153,o),
(844,208,o),
(844,220,cs),
(844,351,l),
(52,351,l),
(52,225,l),
(400,225,l),
(400,207,l),
(52,207,l),
(52,7,ls),
(52,-91,o),
(849,-67,o),
(873,-10,c),
(847,192,l),
(845,194,l)
);
}
);
width = 882;
}
);
unicode = 44152;
},
{
glyphname = "geolm-ko";
lastChange = "2023-04-07 17:10:19 +0000";
layers = (
{
layerId = "75B71696-F68C-493E-998D-CC33CA41914E";
shapes = (
{
closed = 1;
nodes = (
(545,734,l),
(545,808,l),
(52,808,l),
(52,601,l),
(286,601,l),
(286,582,o),
(268,575,o),
(27,566,c),
(45,356,l),
(327,361,o),
(452,374,o),
(506,473,c),
(594,473,l),
(594,377,l),
(855,377,l),
(855,822,l),
(594,822,l),
(594,734,l)
);
},
{
closed = 1;
nodes = (
(455,165,l),
(446,158,o),
(390,125,o),
(284,130,c),
(284,148,l),
(399,143,o),
(456,185,o),
(456,189,cs),
(456,328,l),
(54,328,l),
(54,197,l),
(216,197,l),
(216,179,l),
(54,179,l),
(57,3,ls),
(57,-70,o),
(391,-77,o),
(500,-42,c),
(855,-42,l),
(855,355,l),
(486,355,l),
(486,84,l),
(456,164,l)
);
},
{
closed = 1;
nodes = (
(675,122,l),
(657,122,l),
(657,230,l),
(675,230,l)
);
}
);
width = 882;
}
);
unicode = 44154;
},
{
glyphname = "geom-ko";
lastChange = "2023-04-07 17:10:19 +0000";
layers = (
{
layerId = "75B71696-F68C-493E-998D-CC33CA41914E";
shapes = (
{
closed = 1;
nodes = (
(540,723,l),
(540,813,l),
(48,813,l),
(48,601,l),
(282,601,l),
(282,582,o),
(264,575,o),
(23,566,c),
(41,343,l),
(317,347,o),
(442,364,o),
(498,462,c),
(585,462,l),
(585,341,l),
(855,341,l),
(855,822,l),
(585,822,l),
(585,723,l)
);
},
{
closed = 1;
nodes = (
(855,319,l),
(63,319,l),
(63,-42,l),
(855,-42,l)
);
},
{
closed = 1;
nodes = (
(585,142,l),
(333,142,l),
(333,160,l),
(585,160,l)
);
}
);
width = 882;
}
);
unicode = 44160;
},
{
glyphname = "geob-ko";
lastChange = "2023-04-07 17:10:19 +0000";
layers = (
{
layerId = "75B71696-F68C-493E-998D-CC33CA41914E";
shapes = (
{
closed = 1;
nodes = (
(536,739,l),
(536,815,l),
(43,815,l),
(43,612,l),
(277,612,l),
(277,593,o),
(259,586,o),
(18,577,c),
(36,363,l),
(316,367,o),
(441,381,o),
(496,478,c),
(585,478,l),
(585,374,l),
(855,374,l),
(855,822,l),
(585,822,l),
(585,739,l)
);
},
{
closed = 1;
nodes = (
(329,341,l),
(50,341,l),
(50,-42,l),
(855,-42,l),
(855,350,l),
(576,350,l),
(576,284,l),
(329,284,l)
);
},
{
closed = 1;
nodes = (
(576,158,l),
(576,120,l),
(329,120,l),
(329,158,l)
);
}
);
width = 882;
}
);
unicode = 44161;
},
{
glyphname = "geobs-ko";
lastChange = "2023-04-07 17:10:19 +0000";
layers = (
{
layerId = "75B71696-F68C-493E-998D-CC33CA41914E";
shapes = (
{
closed = 0;
nodes = (
(279,340,l)
);
},
{
closed = 1;
nodes = (
(567,359,l),
(837,359,l),
(837,822,l),
(567,822,l),
(567,730,l),
(518,730,l),
(518,808,l),
(34,808,l),
(34,601,l),
(268,601,l),
(268,582,o),
(250,575,o),
(9,566,c),
(27,347,l),
(311,352,o),
(432,366,o),
(483,469,c),
(567,469,l)
);
},
{
closed = 1;
nodes = (
(760,257,o),
(762,297,o),
(761,337,c),
(518,337,l),
(518,237,o),
(502,210,o),
(448,188,c),
(448,319,l),
(268,319,l),
(268,277,l),
(233,277,l),
(233,319,l),
(44,319,l),
(44,-42,l),
(448,-42,l),
(448,79,l),
(490,-55,l),
(564,-35,o),
(623,3,o),
(666,51,c),
(653,-21,l),
(725,-24,o),
(781,-33,o),
(829,-52,c),
(878,180,l),
(851,197,o),
(802,211,o),
(751,217,c)
);
},
{
closed = 1;
nodes = (
(268,142,l),
(268,102,l),
(233,102,l),
(233,142,l)
);
}
);
width = 882;
}
);
unicode = 44162;
},
{
glyphname = "geos-ko";
lastChange = "2023-04-07 17:10:19 +0000";
layers = (
{
layerId = "75B71696-F68C-493E-998D-CC33CA41914E";
shapes = (
{
closed = 1;
nodes = (
(591,252,o),
(594,265,o),
(596,277,c),
(855,277,l),
(855,822,l),
(585,822,l),
(585,698,l),
(536,698,l),
(536,808,l),
(43,808,l),
(43,597,l),
(277,597,l),
(277,578,o),
(259,571,o),
(18,562,c),
(36,337,l),
(294,340,o),
(420,356,o),
(482,437,c),
(585,437,l),
(585,333,l),
(320,333,l),
(295,238,o),
(160,202,o),
(45,195,c),
(71,-52,l),
(236,-53,o),
(384,-1,o),
(482,83,c),
(470,-1,l),
(644,-1,o),
(780,-26,o),
(822,-42,c),
(863,203,l),
(817,221,o),
(715,235,o),
(588,239,c)
);
}
);
width = 882;
}
);
unicode = 44163;
},
{
glyphname = "geoss-ko";
lastChange = "2023-04-07 17:10:19 +0000";
layers = (
{
layerId = "75B71696-F68C-493E-998D-CC33CA41914E";
shapes = (
{
closed = 1;
nodes = (
(322,346,o),
(443,362,o),
(493,468,c),
(576,468,l),
(576,351,l),
(846,351,l),
(846,822,l),
(576,822,l),
(576,729,l),
(527,729,l),
(527,808,l),
(43,808,l),
(43,601,l),
(277,601,l),
(277,582,o),
(259,575,o),
(18,566,c),
(36,341,l)
);
},
{
closed = 1;
nodes = (
(719,265,o),
(723,300,o),
(721,333,c),
(443,333,l),
(444,288,o),
(435,239,o),
(418,206,c),
(401,212,l),
(417,250,o),
(424,276,o),
(424,318,c),
(154,318,l),
(153,282,o),
(111,209,o),
(18,189,c),
(92,-58,l),
(172,-44,o),
(270,7,o),
(305,35,c),
(345,-58,l),
(461,-37,o),
(547,8,o),
(608,65,c),
(597,-19,l),
(681,-19,o),
(781,-35,o),
(823,-51,c),
(864,203,l),
(827,217,o),
(768,226,o),
(710,230,c)
);
}
);
width = 882;
}
);
unicode = 44164;
},
{
glyphname = "geong-ko";
lastChange = "2023-04-07 17:10:19 +0000";
layers = (
{
layerId = "75B71696-F68C-493E-998D-CC33CA41914E";
shapes = (
{
closed = 1;
nodes = (
(855,822,l),
(585,822,l),
(585,709,l),
(536,709,l),
(536,807,l),
(43,807,l),
(43,596,l),
(277,596,l),
(277,576,o),
(259,565,o),
(18,556,c),
(36,329,l),
(309,333,o),
(435,351,o),
(491,448,c),
(585,448,l),
(585,308,l),
(213,308,ls),
(114,307,o),
(40,232,o),
(36,131,cs),
(36,17,o),
(113,-51,o),
(213,-51,cs),
(688,-51,ls),
(789,-52,o),
(864,15,o),
(864,131,cs),
(864,216,o),
(816,285,o),
(736,303,c),
(855,303,l)
);
},
{
closed = 1;
nodes = (
(284,140,o),
(279,140,o),
(279,149,cs),
(279,158,o),
(284,158,o),
(288,158,cs),
(613,158,ls),
(617,158,o),
(622,158,o),
(622,149,cs),
(622,140,o),
(617,140,o),
(613,140,cs),
(288,140,ls)
);
}
);
width = 882;
}
);
unicode = 44165;
},
{
glyphname = "geoj-ko";
lastChange = "2023-04-07 17:10:19 +0000";
layers = (
{
layerId = "75B71696-F68C-493E-998D-CC33CA41914E";
shapes = (
{
closed = 1;
nodes = (
(576,359,l),
(846,359,l),
(846,822,l),
(576,822,l),
(576,730,l),
(527,730,l),
(527,813,l),
(43,813,l),
(43,608,l),
(277,608,l),
(277,593,o),
(259,586,o),
(18,577,c),
(36,359,l),
(305,364,o),
(428,381,o),
(483,469,c),
(576,469,l)
);
},
{
closed = 1;
nodes = (
(613,194,o),
(617,203,o),
(621,211,c),
(846,211,l),
(846,337,l),
(63,337,l),
(63,211,l),
(271,211,l),
(207,179,o),
(120,167,o),
(50,164,c),
(75,-52,l),
(233,-52,o),
(387,-6,o),
(493,67,c),
(484,-10,l),
(659,-10,o),
(786,-30,o),
(827,-46,c),
(860,155,l),
(815,171,o),
(725,182,o),
(608,185,c)
);
}
);
width = 882;
}
);
unicode = 44166;
},
{
glyphname = "geot-ko";
lastChange = "2023-04-07 17:10:19 +0000";
layers = (
{
layerId = "75B71696-F68C-493E-998D-CC33CA41914E";
shapes = (
{
closed = 1;
nodes = (
(585,360,l),
(855,360,l),
(855,822,l),
(585,822,l),
(585,721,l),
(536,721,l),
(536,814,l),
(48,814,l),
(48,615,l),
(277,615,l),
(277,596,o),
(264,589,o),
(23,580,c),
(41,365,l),
(302,369,o),
(427,381,o),
(485,460,c),
(585,460,l)
);
},
{
closed = 1;
nodes = (
(846,133,l),
(846,210,l),
(342,210,l),
(342,232,l),
(855,232,l),
(855,340,l),
(63,340,l),
(63,-42,l),
(864,-42,l),
(864,111,l),
(342,111,l),
(342,133,l)
);
}
);
width = 882;
}
);
unicode = 44169;
},
{
glyphname = "geop-ko";
lastChange = "2023-04-07 17:10:19 +0000";
layers = (
{
layerId = "75B71696-F68C-493E-998D-CC33CA41914E";
shapes = (
{
closed = 1;
nodes = (
(590,372,l),
(851,372,l),
(851,822,l),
(590,822,l),
(590,727,l),
(540,727,l),
(540,815,l),
(48,815,l),
(48,615,l),
(282,615,l),
(282,599,o),
(264,592,o),
(23,583,c),
(41,372,l),
(305,375,o),
(431,385,o),
(491,466,c),
(590,466,l)
);
},
{
closed = 1;
nodes = (
(619,196,l),
(851,196,l),
(851,349,l),
(66,349,l),
(66,196,l),
(297,196,l),
(124,169,l),
(137,120,l),
(57,120,l),
(57,-51,l),
(860,-51,l),
(860,120,l),
(779,120,l),
(792,169,l)
);
},
{
closed = 1;
nodes = (
(499,120,l),
(418,120,l),
(413,196,l),
(503,196,l)
);
}
);
width = 882;
}
);
unicode = 44170;
},
{
glyphname = "geoh-ko";
lastChange = "2023-04-07 17:10:19 +0000";
layers = (
{
layerId = "75B71696-F68C-493E-998D-CC33CA41914E";
shapes = (
{
closed = 1;
nodes = (
(581,822,l),
(581,740,l),
(531,740,l),
(531,815,l),
(48,815,l),
(48,621,l),
(282,621,l),
(282,606,o),
(264,599,o),
(23,590,c),
(41,381,l),
(311,385,o),
(434,395,o),
(489,479,c),
(581,479,l),
(581,377,l),
(311,377,l),
(311,341,l),
(50,341,l),
(50,188,l),
(111,188,l),
(84,173,o),
(67,146,o),
(67,97,cs),
(67,11,o),
(121,-51,o),
(224,-51,cs),
(674,-51,ls),
(779,-52,o),
(834,9,o),
(834,97,cs),
(834,145,o),
(819,173,o),
(794,188,c),
(851,188,l),
(851,341,l),
(590,341,l),
(590,366,l),
(851,366,l),
(851,822,l)
);
},
{
closed = 1;
nodes = (
(309,133,o),
(304,133,o),
(304,142,cs),
(304,151,o),
(309,151,o),
(313,151,cs),
(587,151,ls),
(590,151,o),
(596,151,o),
(596,142,cs),
(596,133,o),
(590,133,o),
(587,133,cs),
(313,133,ls)
);
}
);
width = 882;
}
);
unicode = 44171;
},
{
glyphname = "ge-ko";
lastChange = "2023-04-07 17:10:19 +0000";
layers = (
{
layerId = "75B71696-F68C-493E-998D-CC33CA41914E";
shapes = (
{
closed = 1;
nodes = (
(864,-42,l),
(864,822,l),
(666,822,l),
(666,-42,l)
);
},
{
closed = 1;
nodes = (
(415,612,o),
(416,689,o),
(416,777,c),
(42,777,l),
(42,507,l),
(173,507,l),
(168,384,o),
(113,299,o),
(9,282,c),
(41,1,l),
(236,35,o),
(336,94,o),
(382,292,c),
(450,292,l),
(450,-24,l),
(639,-24,l),
(639,804,l),
(450,804,l),
(450,544,l),
(411,544,l)
);
}
);
width = 882;
}
);
unicode = 44172;
},
{
glyphname = "geg-ko";
lastChange = "2023-04-07 17:10:19 +0000";
layers = (
{
layerId = "75B71696-F68C-493E-998D-CC33CA41914E";
shapes = (
{
closed = 1;
nodes = (
(864,304,l),
(864,822,l),
(684,822,l),
(684,304,l)
);
},
{
closed = 1;
nodes = (
(491,304,l),
(662,304,l),
(662,813,l),
(491,813,l),
(491,687,l),
(445,687,l),
(446,720,o),
(446,756,o),
(446,795,c),
(30,795,l),
(30,583,l),
(205,583,l),
(205,564,o),
(160,548,o),
(9,539,c),
(27,309,l),
(246,313,o),
(354,335,o),
(405,444,c),
(491,444,l)
);
},
{
closed = 1;
nodes = (
(585,-42,l),
(864,-42,l),
(864,282,l),
(54,282,l),
(54,43,l),
(585,43,l)
);
}
);
width = 882;
}
);
unicode = 44173;
},
{
glyphname = "gen-ko";
lastChange = "2023-04-07 17:10:19 +0000";
layers = (
{
layerId = "75B71696-F68C-493E-998D-CC33CA41914E";
shapes = (
{
closed = 1;
nodes = (
(684,228,l),
(864,228,l),
(864,822,l),
(684,822,l)
);
},
{
closed = 1;
nodes = (
(491,246,l),
(662,246,l),
(662,813,l),
(491,813,l),
(491,669,l),
(449,669,l),
(450,707,o),
(450,752,o),
(450,799,c),
(34,799,l),
(34,588,l),
(210,588,l),
(210,569,o),
(165,553,o),
(14,544,c),
(32,313,l),
(244,317,o),
(351,336,o),
(403,426,c),
(491,426,l)
);
},
{
closed = 1;
nodes = (
(54,291,l),
(54,-42,l),
(873,-42,l),
(873,196,l),
(342,196,l),
(342,291,l)
);
}
);
width = 882;
}
);
unicode = 44176;
},
{
glyphname = "gel-ko";
lastChange = "2023-04-07 17:10:19 +0000";
layers = (
{
layerId = "75B71696-F68C-493E-998D-CC33CA41914E";
shapes = (
{
closed = 1;
nodes = (
(664,365,l),
(844,365,l),
(844,822,l),
(664,822,l)
);
},
{
closed = 1;
nodes = (
(471,365,l),
(642,365,l),
(642,813,l),
(471,813,l),
(471,719,l),
(430,719,l),
(430,804,l),
(32,804,l),
(32,610,l),
(199,610,l),
(199,591,o),
(154,580,o),
(12,571,c),
(30,363,l),
(248,367,o),
(350,379,o),
(396,476,c),
(471,476,l)
);
},
{
closed = 1;
nodes = (
(839,190,o),
(773,136,o),
(497,124,c),
(497,142,l),
(751,153,o),
(844,208,o),
(844,220,cs),
(844,342,l),
(52,342,l),
(52,225,l),
(400,225,l),
(400,207,l),
(52,207,l),
(52,7,ls),
(52,-91,o),
(849,-67,o),
(873,-10,c),
(847,192,l),
(845,194,l)
);
}
);
width = 882;
}
);
unicode = 44180;
},
{
glyphname = "gem-ko";
lastChange = "2023-04-07 17:10:19 +0000";
layers = (
{
layerId = "75B71696-F68C-493E-998D-CC33CA41914E";
shapes = (
{
closed = 1;
nodes = (
(860,332,l),
(860,822,l),
(680,822,l),
(680,332,l)
);
},
{
closed = 1;
nodes = (
(486,332,l),
(657,332,l),
(657,813,l),
(486,813,l),
(486,699,l),
(445,699,l),
(446,731,o),
(446,765,o),
(446,802,c),
(39,802,l),
(39,599,l),
(214,599,l),
(214,581,o),
(169,564,o),
(18,555,c),
(36,338,l),
(253,343,o),
(358,356,o),
(407,456,c),
(486,456,l)
);
},
{
closed = 1;
nodes = (
(860,310,l),
(50,310,l),
(50,-42,l),
(860,-42,l)
);
},
{
closed = 1;
nodes = (
(590,138,l),
(320,138,l),
(320,156,l),
(590,156,l)
);
}
);
width = 882;
}
);
unicode = 44188;
},
{
glyphname = "geb-ko";
lastChange = "2023-04-07 17:10:19 +0000";
layers = (
{
layerId = "75B71696-F68C-493E-998D-CC33CA41914E";
shapes = (
{
closed = 1;
nodes = (
(860,365,l),
(860,822,l),
(680,822,l),
(680,365,l)
);
},
{
closed = 1;
nodes = (
(486,365,l),
(657,365,l),
(657,813,l),
(486,813,l),
(486,716,l),
(446,716,l),
(446,802,l),
(39,802,l),
(39,608,l),
(214,608,l),
(214,590,o),
(169,573,o),
(18,564,c),
(36,356,l),
(255,361,o),
(360,374,o),
(409,473,c),
(486,473,l)
);
},
{
closed = 1;
nodes = (
(342,332,l),
(63,332,l),
(63,-42,l),
(860,-42,l),
(860,341,l),
(581,341,l),
(581,284,l),
(342,284,l)
);
},
{
closed = 1;
nodes = (
(581,158,l),
(581,120,l),
(342,120,l),
(342,158,l)
);
}
);
width = 882;
}
);
unicode = 44189;
},
{
glyphname = "ges-ko";
lastChange = "2023-04-07 17:10:19 +0000";
layers = (
{
layerId = "75B71696-F68C-493E-998D-CC33CA41914E";
shapes = (
{
closed = 1;
nodes = (
(680,278,l),
(864,278,l),
(864,822,l),
(680,822,l)
);
},
{
closed = 1;
nodes = (
(486,346,l),
(657,346,l),
(657,813,l),
(486,813,l),
(486,704,l),
(445,704,l),
(446,734,o),
(446,765,o),
(446,799,c),
(34,799,l),
(34,592,l),
(210,592,l),
(210,573,o),
(165,557,o),
(14,548,c),
(32,326,l),
(254,330,o),
(361,347,o),
(410,461,c),
(486,461,l)
);
},
{
closed = 1;
nodes = (
(597,266,o),
(600,295,o),
(599,324,c),
(320,324,l),
(295,238,o),
(160,193,o),
(40,186,c),
(66,-52,l),
(234,-53,o),
(383,-1,o),
(482,82,c),
(470,-1,l),
(644,-1,o),
(780,-26,o),
(827,-42,c),
(869,203,l),
(818,221,o),
(716,235,o),
(590,239,c)
);
}
);
width = 882;
}
);
unicode = 44191;
},
{
glyphname = "gess-ko";
lastChange = "2023-04-07 17:10:19 +0000";
layers = (
{
layerId = "75B71696-F68C-493E-998D-CC33CA41914E";
shapes = (
{
closed = 1;
nodes = (
(716,249,o),
(720,268,o),
(721,288,c),
(860,288,l),
(860,822,l),
(680,822,l),
(680,333,l),
(444,333,l),
(445,288,o),
(436,239,o),
(419,206,c),
(402,212,l),
(418,250,o),
(425,276,o),
(425,318,c),
(155,318,l),
(154,282,o),
(112,209,o),
(19,189,c),
(93,-58,l),
(173,-44,o),
(271,7,o),
(306,35,c),
(346,-58,l),
(462,-37,o),
(548,8,o),
(608,65,c),
(598,-19,l),
(682,-19,o),
(782,-35,o),
(824,-51,c),
(865,203,l),
(828,217,o),
(769,226,o),
(711,230,c)
);
},
{
closed = 1;
nodes = (
(272,338,o),
(374,346,o),
(413,476,c),
(486,476,l),
(486,358,l),
(657,358,l),
(657,813,l),
(486,813,l),
(486,719,l),
(437,719,l),
(437,804,l),
(30,804,l),
(30,597,l),
(196,597,l),
(194,578,o),
(178,571,o),
(9,562,c),
(27,334,l)
);
}
);
width = 882;
}
);
unicode = 44192;
},
{
glyphname = "geng-ko";
lastChange = "2023-04-07 17:10:19 +0000";
layers = (
{
layerId = "75B71696-F68C-493E-998D-CC33CA41914E";
shapes = (
{
closed = 1;
nodes = (
(860,822,l),
(680,822,l),
(680,300,l),
(205,300,ls),
(106,299,o),
(32,224,o),
(28,127,cs),
(28,17,o),
(105,-51,o),
(205,-51,cs),
(692,-51,ls),
(794,-52,o),
(869,15,o),
(869,127,cs),
(869,209,o),
(821,277,o),
(741,295,c),
(860,295,l)
);
},
{
closed = 1;
nodes = (
(254,330,o),
(359,347,o),
(406,456,c),
(486,456,l),
(486,323,l),
(657,323,l),
(657,813,l),
(486,813,l),
(486,699,l),
(441,699,l),
(441,799,l),
(34,799,l),
(34,592,l),
(210,592,l),
(210,573,o),
(165,557,o),
(14,548,c),
(32,326,l)
);
},
{
closed = 1;
nodes = (
(275,135,o),
(271,135,o),
(271,144,cs),
(271,153,o),
(275,153,o),
(280,153,cs),
(617,153,ls),
(621,153,o),
(626,153,o),
(626,144,cs),
(626,135,o),
(621,135,o),
(617,135,cs),
(280,135,ls)
);
}
);
width = 882;
}
);
unicode = 44193;
},
{
glyphname = "gyeo-ko";
lastChange = "2023-04-07 17:10:19 +0000";
layers = (
{
layerId = "75B71696-F68C-493E-998D-CC33CA41914E";
shapes = (
{
closed = 1;
nodes = (
(530,707,l),
(531,734,o),
(531,764,o),
(531,795,c),
(41,795,l),
(41,525,l),
(261,525,l),
(257,401,o),
(199,291,o),
(9,291,c),
(41,1,l),
(51,0,l),
(324,13,o),
(447,93,o),
(499,334,c),
(499,158,l),
(594,158,l),
(594,-42,l),
(864,-42,l),
(864,822,l),
(594,822,l),
(594,707,l)
);
},
{
closed = 1;
nodes = (
(518,464,l),
(594,464,l),
(594,401,l),
(510,401,l)
);
}
);
width = 882;
}
);
unicode = 44200;
},
{
glyphname = "gyeog-ko";
lastChange = "2023-04-07 17:10:19 +0000";
layers = (
{
layerId = "75B71696-F68C-493E-998D-CC33CA41914E";
shapes = (
{
closed = 1;
nodes = (
(540,747,l),
(540,808,l),
(48,808,l),
(48,588,l),
(282,588,l),
(282,569,o),
(268,553,o),
(23,544,c),
(41,316,l),
(347,320,o),
(467,340,o),
(513,472,c),
(513,387,l),
(590,387,l),
(590,313,l),
(860,313,l),
(860,822,l),
(590,822,l),
(590,747,l)
);
},
{
closed = 1;
nodes = (
(532,557,o),
(534,575,o),
(536,594,c),
(590,594,l),
(590,540,l),
(529,540,l)
);
},
{
closed = 1;
nodes = (
(581,-42,l),
(860,-42,l),
(860,291,l),
(59,291,l),
(59,52,l),
(581,52,l)
);
}
);
width = 882;
}
);
unicode = 44201;
},
{
glyphname = "gyeogg-ko";
lastChange = "2023-04-07 17:10:19 +0000";
layers = (
{
layerId = "75B71696-F68C-493E-998D-CC33CA41914E";
shapes = (
{
closed = 1;
nodes = (
(594,409,l),
(594,341,l),
(855,341,l),
(855,822,l),
(594,822,l),
(594,760,l),
(545,760,l),
(545,804,l),
(52,804,l),
(52,588,l),
(286,588,l),
(286,569,o),
(268,562,o),
(27,553,c),
(45,329,l),
(361,334,o),
(480,351,o),
(522,492,c),
(522,409,l)
);
},
{
closed = 1;
nodes = (
(538,576,o),
(539,590,o),
(541,607,c),
(594,607,l),
(594,562,l),
(536,562,l)
);
},
{
closed = 1;
nodes = (
(468,148,l),
(585,148,l),
(585,129,o),
(565,121,o),
(446,121,c),
(446,301,l),
(63,301,l),
(63,85,l),
(167,85,l),
(167,-42,l),
(446,-42,l),
(446,89,l),
(490,-51,l),
(867,-53,o),
(858,15,o),
(855,319,c),
(468,319,l)
);
}
);
width = 882;
}
);
unicode = 44202;
},
{
glyphname = "gyeon-ko";
lastChange = "2023-04-07 17:10:19 +0000";
layers = (
{
layerId = "75B71696-F68C-493E-998D-CC33CA41914E";
shapes = (
{
closed = 1;
nodes = (
(585,356,l),
(585,232,l),
(855,232,l),
(855,822,l),
(585,822,l),
(585,752,l),
(536,752,l),
(536,808,l),
(39,808,l),
(39,592,l),
(277,592,l),
(277,573,o),
(255,557,o),
(14,548,c),
(32,320,l),
(350,325,o),
(470,348,o),
(513,498,c),
(513,356,l)
);
},
{
closed = 1;
nodes = (
(520,527,l),
(524,544,o),
(527,562,o),
(528,581,c),
(585,581,l),
(585,527,l)
);
},
{
closed = 1;
nodes = (
(54,295,l),
(54,-42,l),
(864,-42,l),
(864,196,l),
(342,196,l),
(342,295,l)
);
}
);
width = 882;
}
);
unicode = 44204;
},
{
glyphname = "gyeod-ko";
lastChange = "2023-04-07 17:10:19 +0000";
layers = (
{
layerId = "75B71696-F68C-493E-998D-CC33CA41914E";
shapes = (
{
closed = 1;
nodes = (
(581,404,l),
(581,345,l),
(851,345,l),
(851,822,l),
(581,822,l),
(581,755,l),
(531,755,l),
(531,813,l),
(43,813,l),
(43,606,l),
(273,606,l),
(273,587,o),
(259,580,o),
(18,571,c),
(36,352,l),
(349,356,o),
(466,377,o),
(509,511,c),
(509,404,l)
);
},
{
closed = 1;
nodes = (
(519,557,l),
(522,572,o),
(524,586,o),
(526,602,c),
(581,602,l),
(581,557,l)
);
},
{
closed = 1;
nodes = (
(851,179,l),
(851,323,l),
(54,323,l),
(54,-42,l),
(860,-42,l),
(860,150,l),
(333,150,l),
(333,179,l)
);
}
);
width = 882;
}
);
unicode = 44207;
},
{
glyphname = "gyeol-ko";
lastChange = "2023-04-07 17:10:19 +0000";
layers = (
{
layerId = "75B71696-F68C-493E-998D-CC33CA41914E";
shapes = (
{
closed = 1;
nodes = (
(576,419,l),
(576,372,l),
(846,372,l),
(846,822,l),
(576,822,l),
(576,770,l),
(527,770,l),
(527,813,l),
(34,813,l),
(34,624,l),
(268,624,l),
(268,605,o),
(250,598,o),
(9,589,c),
(27,374,l),
(343,379,o),
(462,398,o),
(504,528,c),
(504,419,l)
);
},
{
closed = 1;
nodes = (
(518,587,o),
(519,601,o),
(521,617,c),
(576,617,l),
(576,572,l),
(515,572,l)
);
},
{
closed = 1;
nodes = (
(839,190,o),
(773,136,o),
(497,124,c),
(497,142,l),
(751,153,o),
(844,208,o),
(844,220,cs),
(844,351,l),
(52,351,l),
(52,225,l),
(400,225,l),
(400,207,l),
(52,207,l),
(52,7,ls),
(52,-91,o),
(849,-67,o),
(873,-10,c),
(847,192,l),
(845,194,l)
);
}
);
width = 882;
}
);
unicode = 44208;
},
{
glyphname = "gyeolh-ko";
lastChange = "2023-04-07 17:10:19 +0000";
layers = (
{
layerId = "75B71696-F68C-493E-998D-CC33CA41914E";
shapes = (
{
closed = 1;
nodes = (
(583,418,l),
(583,373,l),
(844,373,l),
(844,822,l),
(583,822,l),
(583,769,l),
(534,769,l),
(534,808,l),
(41,808,l),
(41,601,l),
(275,601,l),
(275,582,o),
(257,575,o),
(16,566,c),
(34,356,l),
(350,361,o),
(469,378,o),
(511,513,c),
(511,418,l)
);
},
{
closed = 1;
nodes = (
(527,585,o),
(528,599,o),
(529,616,c),
(583,616,l),
(583,571,l),
(524,571,l)
);
},
{
closed = 1;
nodes = (
(770,355,l),
(536,355,l),
(536,319,l),
(438,319,l),
(438,188,l),
(466,188,l),
(451,173,o),
(441,149,o),
(439,111,c),
(415,164,l),
(414,165,l),
(405,158,o),
(357,125,o),
(260,130,c),
(260,148,l),
(366,143,o),
(415,185,o),
(415,189,cs),
(415,337,l),
(36,337,l),
(36,206,l),
(198,206,l),
(198,188,l),
(36,188,l),
(39,3,ls),
(39,-77,o),
(441,-78,o),
(503,-30,c),
(518,-38,o),
(534,-42,o),
(552,-42,cs),
(732,-42,ls),
(828,-43,o),
(865,9,o),
(865,97,cs),
(865,143,o),
(852,171,o),
(833,188,c),
(866,188,l),
(866,319,l),
(770,319,l)
);
},
{
closed = 1;
nodes = (
(588,106,o),
(583,106,o),
(583,115,cs),
(583,124,o),
(588,124,o),
(592,124,cs),
(712,124,ls),
(716,124,o),
(721,124,o),
(721,115,cs),
(721,106,o),
(716,106,o),
(712,106,cs),
(592,106,ls)
);
}
);
width = 882;
}
);
unicode = 44215;
},
{
glyphname = "gyeom-ko";
lastChange = "2023-04-07 17:10:19 +0000";
layers = (
{
layerId = "75B71696-F68C-493E-998D-CC33CA41914E";
shapes = (
{
closed = 1;
nodes = (
(540,761,l),
(540,813,l),
(48,813,l),
(48,601,l),
(282,601,l),
(282,582,o),
(264,575,o),
(23,566,c),
(41,343,l),
(346,347,o),
(467,367,o),
(513,495,c),
(513,410,l),
(585,410,l),
(585,341,l),
(855,341,l),
(855,822,l),
(585,822,l),
(585,761,l)
);
},
{
closed = 1;
nodes = (
(532,577,o),
(534,591,o),
(535,608,c),
(585,608,l),
(585,563,l),
(529,563,l)
);
},
{
closed = 1;
nodes = (
(855,319,l),
(63,319,l),
(63,-42,l),
(855,-42,l)
);
},
{
closed = 1;
nodes = (
(585,142,l),
(333,142,l),
(333,160,l),
(585,160,l)
);
}
);
width = 882;
}
);
unicode = 44216;
},
{
glyphname = "gyeob-ko";
lastChange = "2023-04-07 17:10:19 +0000";
layers = (
{
layerId = "75B71696-F68C-493E-998D-CC33CA41914E";
shapes = (
{
closed = 1;
nodes = (
(536,773,l),
(536,815,l),
(43,815,l),
(43,612,l),
(277,612,l),
(277,593,o),
(259,586,o),
(18,577,c),
(36,363,l),
(352,367,o),
(471,384,o),
(513,519,c),
(513,422,l),
(585,422,l),
(585,374,l),
(855,374,l),
(855,822,l),
(585,822,l),
(585,773,l)
);
},
{
closed = 1;
nodes = (
(528,590,o),
(529,604,o),
(531,620,c),
(585,620,l),
(585,575,l),
(526,575,l)
);
},
{
closed = 1;
nodes = (
(347,341,l),
(68,341,l),
(68,-42,l),
(855,-42,l),
(855,350,l),
(576,350,l),
(576,284,l),
(347,284,l)
);
},
{
closed = 1;
nodes = (
(576,158,l),
(576,120,l),
(347,120,l),
(347,158,l)
);
}
);
width = 882;
}
);
unicode = 44217;
},
{
glyphname = "gyeos-ko";
lastChange = "2023-04-07 17:10:19 +0000";
layers = (
{
layerId = "75B71696-F68C-493E-998D-CC33CA41914E";
shapes = (
{
closed = 1;
nodes = (
(591,252,o),
(594,265,o),
(596,277,c),
(855,277,l),
(855,822,l),
(585,822,l),
(585,755,l),
(536,755,l),
(536,808,l),
(43,808,l),
(43,597,l),
(277,597,l),
(277,578,o),
(259,571,o),
(18,562,c),
(36,337,l),
(352,341,o),
(471,363,o),
(513,503,c),
(513,400,l),
(585,400,l),
(585,333,l),
(320,333,l),
(295,238,o),
(160,202,o),
(45,195,c),
(71,-52,l),
(236,-53,o),
(384,-1,o),
(482,83,c),
(470,-1,l),
(644,-1,o),
(780,-26,o),
(822,-42,c),
(863,203,l),
(817,221,o),
(715,235,o),
(588,239,c)
);
},
{
closed = 1;
nodes = (
(527,568,o),
(529,584,o),
(530,602,c),
(585,602,l),
(585,553,l),
(525,553,l)
);
}
);
width = 882;
}
);
unicode = 44219;
},
{
glyphname = "gyeoss-ko";
lastChange = "2023-04-07 17:10:19 +0000";
layers = (
{
layerId = "75B71696-F68C-493E-998D-CC33CA41914E";
shapes = (
{
closed = 1;
nodes = (
(344,346,o),
(462,365,o),
(504,503,c),
(504,418,l),
(576,418,l),
(576,351,l),
(846,351,l),
(846,822,l),
(576,822,l),
(576,769,l),
(527,769,l),
(527,808,l),
(39,808,l),
(39,601,l),
(273,601,l),
(273,582,o),
(255,575,o),
(14,566,c),
(32,341,l)
);
},
{
closed = 1;
nodes = (
(520,585,o),
(521,599,o),
(523,616,c),
(576,616,l),
(576,571,l),
(518,571,l)
);
},
{
closed = 1;
nodes = (
(724,265,o),
(727,300,o),
(725,333,c),
(447,333,l),
(448,288,o),
(439,239,o),
(422,206,c),
(406,212,l),
(421,250,o),
(428,276,o),
(428,318,c),
(158,318,l),
(158,282,o),
(115,209,o),
(23,189,c),
(96,-58,l),
(176,-44,o),
(275,7,o),
(310,35,c),
(349,-58,l),
(465,-37,o),
(552,8,o),
(612,65,c),
(601,-19,l),
(686,-19,o),
(786,-35,o),
(827,-51,c),
(869,203,l),
(832,217,o),
(772,226,o),
(715,230,c)
);
}
);
width = 882;
}
);
unicode = 44220;
},
{
glyphname = "gyeong-ko";
lastChange = "2023-04-07 17:10:19 +0000";
layers = (
{
layerId = "75B71696-F68C-493E-998D-CC33CA41914E";
shapes = (
{
closed = 1;
nodes = (
(855,822,l),
(585,822,l),
(585,752,l),
(536,752,l),
(536,807,l),
(43,807,l),
(43,596,l),
(277,596,l),
(277,576,o),
(259,565,o),
(18,556,c),
(36,329,l),
(352,333,o),
(471,357,o),
(513,500,c),
(513,392,l),
(585,392,l),
(585,308,l),
(213,308,ls),
(114,307,o),
(40,232,o),
(36,131,cs),
(36,17,o),
(113,-51,o),
(213,-51,cs),
(688,-51,ls),
(789,-52,o),
(864,15,o),
(864,131,cs),
(864,216,o),
(816,285,o),
(736,303,c),
(855,303,l)
);
},
{
closed = 1;
nodes = (
(527,562,o),
(528,579,o),
(530,599,c),
(585,599,l),
(585,545,l),
(523,545,l)
);
},
{
closed = 1;
nodes = (
(284,140,o),
(279,140,o),
(279,149,cs),
(279,158,o),
(284,158,o),
(288,158,cs),
(613,158,ls),
(617,158,o),
(622,158,o),
(622,149,cs),
(622,140,o),
(617,140,o),
(613,140,cs),
(288,140,ls)
);
}
);
width = 882;
}
);
unicode = 44221;
},
{
glyphname = "gyeoc-ko";
lastChange = "2023-04-07 17:10:19 +0000";
layers = (
{
layerId = "75B71696-F68C-493E-998D-CC33CA41914E";
shapes = (
{
closed = 1;
nodes = (
(590,185,o),
(593,194,o),
(597,202,c),
(846,202,l),
(846,314,l),
(612,314,l),
(612,342,l),
(846,342,l),
(846,822,l),
(576,822,l),
(576,763,l),
(531,763,l),
(531,811,l),
(48,811,l),
(48,608,l),
(282,608,l),
(282,590,o),
(264,582,o),
(23,573,c),
(41,357,l),
(340,362,o),
(458,383,o),
(504,500,c),
(504,412,l),
(576,412,l),
(576,355,l),
(314,355,l),
(315,339,o),
(314,326,o),
(313,314,c),
(50,314,l),
(50,202,l),
(262,202,l),
(198,170,o),
(111,158,o),
(41,155,c),
(66,-52,l),
(239,-52,o),
(391,-6,o),
(490,68,c),
(480,-10,l),
(654,-10,o),
(781,-30,o),
(827,-46,c),
(860,146,l),
(809,163,o),
(711,174,o),
(585,177,c)
);
},
{
closed = 1;
nodes = (
(527,610,l),
(576,610,l),
(576,565,l),
(521,565,l)
);
}
);
width = 882;
}
);
unicode = 44223;
},
{
glyphname = "gyeot-ko";
lastChange = "2023-04-07 17:10:19 +0000";
layers = (
{
layerId = "75B71696-F68C-493E-998D-CC33CA41914E";
shapes = (
{
closed = 1;
nodes = (
(585,419,l),
(585,360,l),
(855,360,l),
(855,822,l),
(585,822,l),
(585,770,l),
(536,770,l),
(536,814,l),
(48,814,l),
(48,615,l),
(277,615,l),
(277,596,o),
(264,589,o),
(23,580,c),
(41,365,l),
(354,370,o),
(471,385,o),
(513,516,c),
(513,419,l)
);
},
{
closed = 1;
nodes = (
(528,586,o),
(530,600,o),
(531,617,c),
(585,617,l),
(585,572,l),
(526,572,l)
);
},
{
closed = 1;
nodes = (
(846,133,l),
(846,210,l),
(342,210,l),
(342,232,l),
(855,232,l),
(855,340,l),
(63,340,l),
(63,-42,l),
(864,-42,l),
(864,111,l),
(342,111,l),
(342,133,l)
);
}
);
width = 882;
}
);
unicode = 44225;
},
{
glyphname = "gye-ko";
lastChange = "2023-04-07 17:10:19 +0000";
layers = (
{
layerId = "75B71696-F68C-493E-998D-CC33CA41914E";
shapes = (
{
closed = 1;
nodes = (
(864,-42,l),
(864,822,l),
(666,822,l),
(666,-42,l)
);
},
{
closed = 1;
nodes = (
(416,710,o),
(416,743,o),
(416,777,c),
(42,777,l),
(42,507,l),
(173,507,l),
(168,384,o),
(113,299,o),
(9,282,c),
(41,1,l),
(226,33,o),
(325,88,o),
(374,261,c),
(374,157,l),
(450,157,l),
(450,-24,l),
(639,-24,l),
(639,804,l),
(450,804,l),
(450,679,l),
(415,679,l)
);
},
{
closed = 1;
nodes = (
(401,401,o),
(403,430,o),
(406,463,c),
(450,463,l),
(450,373,l),
(396,373,l)
);
}
);
width = 882;
}
);
unicode = 44228;
},
{
glyphname = "gyen-ko";
lastChange = "2023-04-07 17:10:19 +0000";
layers = (
{
layerId = "75B71696-F68C-493E-998D-CC33CA41914E";
shapes = (
{
closed = 1;
nodes = (
(675,228,l),
(855,228,l),
(855,822,l),
(675,822,l)
);
},
{
closed = 1;
nodes = (
(482,383,l),
(482,246,l),
(653,246,l),
(653,813,l),
(482,813,l),
(482,743,l),
(441,743,l),
(441,799,l),
(34,799,l),
(34,588,l),
(210,588,l),
(210,569,o),
(165,553,o),
(14,544,c),
(32,313,l),
(269,318,o),
(372,342,o),
(414,470,c),
(414,383,l)
);
},
{
closed = 1;
nodes = (
(429,536,l),
(432,554,o),
(434,572,o),
(436,590,c),
(482,590,l),
(482,536,l)
);
},
{
closed = 1;
nodes = (
(54,291,l),
(54,-42,l),
(864,-42,l),
(864,196,l),
(342,196,l),
(342,291,l)
);
}
);
width = 882;
}
);
unicode = 44232;
},
{
glyphname = "gyel-ko";
lastChange = "2023-04-07 17:10:19 +0000";
layers = (
{
layerId = "75B71696-F68C-493E-998D-CC33CA41914E";
shapes = (
{
closed = 1;
nodes = (
(664,365,l),
(844,365,l),
(844,822,l),
(664,822,l)
);
},
{
closed = 1;
nodes = (
(471,418,l),
(471,365,l),
(642,365,l),
(642,813,l),
(471,813,l),
(471,769,l),
(430,769,l),
(430,804,l),
(32,804,l),
(32,610,l),
(199,610,l),
(199,591,o),
(154,580,o),
(12,571,c),
(30,363,l),
(261,367,o),
(362,381,o),
(403,494,c),
(403,418,l)
);
},
{
closed = 1;
nodes = (
(423,585,o),
(425,599,o),
(426,616,c),
(471,616,l),
(471,571,l),
(421,571,l)
);
},
{
closed = 1;
nodes = (
(839,190,o),
(773,136,o),
(497,124,c),
(497,142,l),
(751,153,o),
(844,208,o),
(844,220,cs),
(844,342,l),
(52,342,l),
(52,225,l),
(400,225,l),
(400,207,l),
(52,207,l),
(52,7,ls),
(52,-91,o),
(849,-67,o),
(873,-10,c),
(847,192,l),
(845,194,l)
);
}
);
width = 882;
}
);
unicode = 44236;
},
{
glyphname = "gyeb-ko";
lastChange = "2023-04-07 17:10:19 +0000";
layers = (
{
layerId = "75B71696-F68C-493E-998D-CC33CA41914E";
shapes = (
{
closed = 1;
nodes = (
(860,365,l),
(860,822,l),
(680,822,l),
(680,365,l)
);
},
{
closed = 1;
nodes = (
(486,417,l),
(486,365,l),
(657,365,l),
(657,813,l),
(486,813,l),
(486,768,l),
(446,768,l),
(446,802,l),
(39,802,l),
(39,608,l),
(214,608,l),
(214,590,o),
(169,573,o),
(18,564,c),
(36,356,l),
(264,361,o),
(369,375,o),
(414,487,c),
(414,417,l)
);
},
{
closed = 1;
nodes = (
(437,584,o),
(439,599,o),
(440,615,c),
(486,615,l),
(486,570,l),
(436,570,l)
);
},
{
closed = 1;
nodes = (
(342,332,l),
(63,332,l),
(63,-42,l),
(860,-42,l),
(860,341,l),
(581,341,l),
(581,284,l),
(342,284,l)
);
},
{
closed = 1;
nodes = (
(581,158,l),
(581,120,l),
(342,120,l),
(342,158,l)
);
}
);
width = 882;
}
);
unicode = 44245;
},
{
glyphname = "gyes-ko";
lastChange = "2023-04-07 17:10:19 +0000";
layers = (
{
layerId = "75B71696-F68C-493E-998D-CC33CA41914E";
shapes = (
{
closed = 1;
nodes = (
(680,278,l),
(864,278,l),
(864,822,l),
(680,822,l)
);
},
{
closed = 1;
nodes = (
(486,407,l),
(486,346,l),
(657,346,l),
(657,813,l),
(486,813,l),
(486,758,l),
(446,758,l),
(446,799,l),
(34,799,l),
(34,592,l),
(210,592,l),
(210,573,o),
(165,557,o),
(14,548,c),
(32,326,l),
(261,330,o),
(368,347,o),
(414,472,c),
(414,407,l)
);
},
{
closed = 1;
nodes = (
(435,560,l),
(440,605,l),
(486,605,l),
(486,560,l)
);
},
{
closed = 1;
nodes = (
(597,266,o),
(600,295,o),
(599,324,c),
(320,324,l),
(295,238,o),
(160,193,o),
(40,186,c),
(66,-52,l),
(234,-53,o),
(383,-1,o),
(482,82,c),
(470,-1,l),
(644,-1,o),
(780,-26,o),
(827,-42,c),
(869,203,l),
(818,221,o),
(716,235,o),
(590,239,c)
);
}
);
width = 882;
}
);
unicode = 44247;
},
{
glyphname = "gyess-ko";
lastChange = "2023-04-07 17:10:19 +0000";
layers = (
{
layerId = "75B71696-F68C-493E-998D-CC33CA41914E";
shapes = (
{
closed = 1;
nodes = (
(716,249,o),
(720,268,o),
(721,288,c),
(860,288,l),
(860,822,l),
(680,822,l),
(680,333,l),
(444,333,l),
(445,288,o),
(436,239,o),
(419,206,c),
(402,212,l),
(418,250,o),
(425,276,o),
(425,318,c),
(155,318,l),
(154,282,o),
(112,209,o),
(19,189,c),
(93,-58,l),
(173,-44,o),
(271,7,o),
(306,35,c),
(346,-58,l),
(462,-37,o),
(548,8,o),
(608,65,c),
(598,-19,l),
(682,-19,o),
(782,-35,o),
(824,-51,c),
(865,203,l),
(828,217,o),
(769,226,o),
(711,230,c)
);
},
{
closed = 1;
nodes = (
(274,338,o),
(375,346,o),
(414,480,c),
(414,414,l),
(486,414,l),
(486,358,l),
(657,358,l),
(657,813,l),
(486,813,l),
(486,765,l),
(437,765,l),
(437,804,l),
(30,804,l),
(30,597,l),
(196,597,l),
(194,578,o),
(178,571,o),
(9,562,c),
(27,334,l)
);
},
{
closed = 1;
nodes = (
(431,581,o),
(432,596,o),
(433,612,c),
(486,612,l),
(486,567,l),
(429,567,l)
);
}
);
width = 882;
}
);
unicode = 44248;
},
{
glyphname = "go-ko";
lastChange = "2023-04-07 17:10:19 +0000";
layers = (
{
layerId = "75B71696-F68C-493E-998D-CC33CA41914E";
shapes = (
{
closed = 1;
nodes = (
(822,316,o),
(828,369,o),
(828,777,c),
(45,777,l),
(45,516,l),
(558,516,l),
(558,429,o),
(549,370,o),
(518,284,c),
(762,237,l),
(451,237,l),
(451,426,l),
(181,426,l),
(181,237,l),
(18,237,l),
(18,-15,l),
(864,-15,l),
(864,237,l),
(797,237,l)
);
}
);
width = 882;
}
);
unicode = 44256;
},
{
glyphname = "gog-ko";
lastChange = "2023-04-07 17:10:19 +0000";
layers = (
{
layerId = "75B71696-F68C-493E-998D-CC33CA41914E";
shapes = (
{
closed = 1;
nodes = (
(836,530,o),
(833,644,o),
(833,822,c),
(41,822,l),
(41,606,l),
(563,606,l),
(563,572,o),
(554,545,o),
(545,512,c),
(752,471,l),
(450,471,l),
(450,561,l),
(180,561,l),
(180,471,l),
(14,471,l),
(14,273,l),
(869,273,l),
(869,471,l),
(815,471,l)
);
},
{
closed = 1;
nodes = (
(563,-42,l),
(842,-42,l),
(842,250,l),
(32,250,l),
(32,39,l),
(563,39,l)
);
}
);
width = 882;
}
);
unicode = 44257;
},
{
glyphname = "gon-ko";
lastChange = "2023-04-07 17:10:19 +0000";
layers = (
{
layerId = "75B71696-F68C-493E-998D-CC33CA41914E";
shapes = (
{
closed = 1;
nodes = (
(836,517,o),
(833,627,o),
(833,822,c),
(41,822,l),
(41,606,l),
(563,606,l),
(563,554,o),
(554,531,o),
(545,499,c),
(752,457,l),
(450,457,l),
(450,547,l),
(180,547,l),
(180,457,l),
(14,457,l),
(14,259,l),
(869,259,l),
(869,457,l),
(815,457,l)
);
},
{
closed = 1;
nodes = (
(41,-42,l),
(851,-42,l),
(851,174,l),
(329,174,l),
(329,237,l),
(41,237,l)
);
}
);
width = 882;
}
);
unicode = 44260;
},
{
glyphname = "god-ko";
lastChange = "2023-04-07 17:10:19 +0000";
layers = (
{
layerId = "75B71696-F68C-493E-998D-CC33CA41914E";
shapes = (
{
closed = 1;
nodes = (
(836,545,o),
(833,654,o),
(833,822,c),
(41,822,l),
(41,606,l),
(563,606,l),
(563,581,o),
(554,558,o),
(545,526,c),
(743,486,l),
(450,486,l),
(450,561,l),
(180,561,l),
(180,486,l),
(14,486,l),
(14,306,l),
(869,306,l),
(869,486,l),
(816,486,l)
);
},
{
closed = 1;
nodes = (
(847,284,l),
(41,284,l),
(41,252,l),
(40,252,l),
(40,-42,l),
(855,-42,l),
(855,124,l),
(319,124,l),
(319,153,l),
(846,153,l)
);
}
);
width = 882;
}
);
unicode = 44263;
},
{
glyphname = "gol-ko";
lastChange = "2023-04-07 17:10:19 +0000";
layers = (
{
layerId = "75B71696-F68C-493E-998D-CC33CA41914E";
shapes = (
{
closed = 1;
nodes = (
(832,578,o),
(833,661,o),
(833,832,c),
(41,832,l),
(41,616,l),
(563,616,l),
(563,599,o),
(555,573,o),
(547,554,c),
(753,522,l),
(450,522,l),
(450,580,l),
(180,580,l),
(180,522,l),
(14,522,l),
(14,342,l),
(869,342,l),
(869,522,l),
(814,522,l)
);
},
{
closed = 1;
nodes = (
(834,181,o),
(768,134,o),
(493,124,c),
(493,142,l),
(746,152,o),
(840,199,o),
(840,211,cs),
(840,320,l),
(40,320,l),
(40,212,l),
(401,212,l),
(401,194,l),
(40,194,l),
(40,7,ls),
(40,-91,o),
(844,-67,o),
(869,-10,c),
(842,183,l),
(841,185,l)
);
}
);
width = 882;
}
);
unicode = 44264;
},
{
glyphname = "golm-ko";
lastChange = "2023-04-07 17:10:19 +0000";
layers = (
{
layerId = "75B71696-F68C-493E-998D-CC33CA41914E";
shapes = (
{
closed = 1;
nodes = (
(837,552,o),
(833,659,o),
(833,823,c),
(41,823,l),
(41,607,l),
(563,607,l),
(563,577,o),
(553,554,o),
(544,527,c),
(761,494,l),
(450,494,l),
(450,571,l),
(180,571,l),
(180,494,l),
(14,494,l),
(14,314,l),
(869,314,l),
(869,494,l),
(816,494,l)
);
},
{
closed = 1;
nodes = (
(428,147,l),
(419,140,o),
(372,107,o),
(275,112,c),
(275,130,l),
(372,125,o),
(429,167,o),
(429,171,cs),
(429,292,l),
(32,292,l),
(32,184,l),
(203,184,l),
(203,166,l),
(32,166,l),
(35,-6,l),
(43,-72,o),
(366,-72,o),
(458,-42,c),
(851,-42,l),
(851,292,l),
(458,292,l),
(458,40,l),
(429,146,l)
);
},
{
closed = 1;
nodes = (
(661,84,l),
(643,84,l),
(643,192,l),
(661,192,l)
);
}
);
width = 882;
}
);
unicode = 44266;
},
{
glyphname = "gols-ko";
lastChange = "2023-04-07 17:10:19 +0000";
layers = (
{
layerId = "75B71696-F68C-493E-998D-CC33CA41914E";
shapes = (
{
closed = 1;
nodes = (
(837,552,o),
(833,659,o),
(833,823,c),
(41,823,l),
(41,607,l),
(563,607,l),
(563,577,o),
(553,554,o),
(544,527,c),
(761,494,l),
(450,494,l),
(450,571,l),
(180,571,l),
(180,494,l),
(14,494,l),
(14,314,l),
(869,314,l),
(869,494,l),
(816,494,l)
);
},
{
closed = 1;
nodes = (
(406,140,o),
(355,106,o),
(262,111,c),
(262,129,l),
(355,124,o),
(416,166,o),
(416,170,cs),
(416,292,l),
(32,292,l),
(32,184,l),
(200,184,l),
(200,166,l),
(32,166,l),
(36,-7,l),
(44,-77,o),
(405,-70,o),
(463,-25,c),
(416,145,l),
(415,146,l)
);
},
{
closed = 1;
nodes = (
(529,220,o),
(503,176,o),
(435,151,c),
(485,-33,l),
(562,-21,o),
(620,6,o),
(663,41,c),
(651,-16,l),
(717,-17,o),
(767,-25,o),
(819,-41,c),
(866,164,l),
(833,176,o),
(797,185,o),
(753,187,c),
(761,221,o),
(764,256,o),
(762,292,c),
(528,292,l)
);
}
);
width = 883;
}
);
unicode = 44268;
},
{
glyphname = "golh-ko";
lastChange = "2023-04-07 17:10:19 +0000";
layers = (
{
layerId = "75B71696-F68C-493E-998D-CC33CA41914E";
shapes = (
{
closed = 1;
nodes = (
(837,561,o),
(833,666,o),
(833,822,c),
(41,822,l),
(41,606,l),
(563,606,l),
(563,581,o),
(553,559,o),
(544,536,c),
(761,503,l),
(450,503,l),
(450,574,l),
(180,574,l),
(180,503,l),
(14,503,l),
(14,323,l),
(869,323,l),
(869,503,l),
(816,503,l)
);
},
{
closed = 1;
nodes = (
(532,278,l),
(451,278,l),
(451,158,l),
(487,158,l),
(466,145,o),
(452,122,o),
(452,79,cs),
(452,71,l),
(428,137,l),
(428,138,l),
(419,131,o),
(371,98,o),
(274,103,c),
(274,121,l),
(371,116,o),
(428,158,o),
(428,162,cs),
(428,296,l),
(32,296,l),
(32,188,l),
(203,188,l),
(203,170,l),
(32,170,l),
(34,-6,l),
(43,-78,o),
(436,-62,o),
(486,-24,c),
(501,-35,o),
(523,-42,o),
(555,-42,cs),
(717,-42,ls),
(841,-43,o),
(851,18,o),
(851,79,cs),
(851,121,o),
(834,145,o),
(812,158,c),
(851,158,l),
(851,278,l),
(766,278,l),
(766,305,l),
(532,305,l)
);
},
{
closed = 1;
nodes = (
(582,85,o),
(578,85,o),
(578,94,cs),
(578,103,o),
(582,103,o),
(587,103,cs),
(707,103,ls),
(710,103,o),
(716,103,o),
(716,94,cs),
(716,85,o),
(710,85,o),
(707,85,cs),
(587,85,ls)
);
}
);
width = 882;
}
);
unicode = 44271;
},
{
glyphname = "gom-ko";
lastChange = "2023-04-07 17:10:19 +0000";
layers = (
{
layerId = "75B71696-F68C-493E-998D-CC33CA41914E";
shapes = (
{
closed = 1;
nodes = (
(836,545,o),
(833,653,o),
(833,822,c),
(41,822,l),
(41,606,l),
(563,606,l),
(563,581,o),
(554,558,o),
(545,526,c),
(748,485,l),
(450,485,l),
(450,561,l),
(180,561,l),
(180,485,l),
(14,485,l),
(14,305,l),
(869,305,l),
(869,485,l),
(816,485,l)
);
},
{
closed = 1;
nodes = (
(842,283,l),
(41,283,l),
(41,-43,l),
(842,-43,l)
);
},
{
closed = 1;
nodes = (
(581,138,l),
(302,138,l),
(302,156,l),
(581,156,l)
);
}
);
width = 882;
}
);
unicode = 44272;
},
{
glyphname = "gob-ko";
lastChange = "2023-04-07 17:10:19 +0000";
layers = (
{
layerId = "75B71696-F68C-493E-998D-CC33CA41914E";
shapes = (
{
closed = 1;
nodes = (
(836,555,o),
(833,662,o),
(833,823,c),
(41,823,l),
(41,607,l),
(563,607,l),
(563,577,o),
(553,554,o),
(544,527,c),
(743,497,l),
(450,497,l),
(450,571,l),
(180,571,l),
(180,497,l),
(14,497,l),
(14,317,l),
(869,317,l),
(869,497,l),
(817,497,l)
);
},
{
closed = 1;
nodes = (
(306,294,l),
(36,294,l),
(36,-42,l),
(846,-42,l),
(846,294,l),
(576,294,l),
(576,254,l),
(306,254,l)
);
},
{
closed = 1;
nodes = (
(576,150,l),
(576,115,l),
(306,115,l),
(306,150,l)
);
}
);
width = 882;
}
);
unicode = 44273;
},
{
glyphname = "gos-ko";
lastChange = "2023-04-07 17:10:19 +0000";
layers = (
{
layerId = "75B71696-F68C-493E-998D-CC33CA41914E";
shapes = (
{
closed = 1;
nodes = (
(836,534,o),
(833,644,o),
(833,822,c),
(41,822,l),
(41,606,l),
(563,606,l),
(563,572,o),
(554,548,o),
(545,516,c),
(752,474,l),
(450,474,l),
(450,561,l),
(180,561,l),
(180,474,l),
(14,474,l),
(14,294,l),
(869,294,l),
(869,474,l),
(815,474,l)
);
},
{
closed = 1;
nodes = (
(284,218,o),
(125,199,o),
(23,194,c),
(49,-42,l),
(220,-44,o),
(374,12,o),
(472,87,c),
(457,-10,l),
(632,-10,o),
(786,-35,o),
(827,-51,c),
(869,181,l),
(823,198,o),
(706,212,o),
(573,217,c),
(580,236,o),
(582,254,o),
(581,272,c),
(302,272,l)
);
}
);
width = 882;
}
);
unicode = 44275;
},
{
glyphname = "gong-ko";
lastChange = "2023-04-07 17:10:19 +0000";
layers = (
{
layerId = "75B71696-F68C-493E-998D-CC33CA41914E";
shapes = (
{
closed = 1;
nodes = (
(836,546,o),
(833,646,o),
(833,822,c),
(41,822,l),
(41,606,l),
(563,606,l),
(563,581,o),
(554,555,o),
(545,527,c),
(743,488,l),
(450,488,l),
(450,563,l),
(180,563,l),
(180,488,l),
(14,488,l),
(14,308,l),
(869,308,l),
(869,488,l),
(816,488,l)
);
},
{
closed = 1;
nodes = (
(86,289,o),
(17,209,o),
(17,125,cs),
(17,22,o),
(86,-52,o),
(185,-52,cs),
(698,-52,ls),
(800,-52,o),
(866,20,o),
(866,125,cs),
(866,209,o),
(807,289,o),
(698,289,cs),
(185,289,ls)
);
},
{
closed = 1;
nodes = (
(282,133,o),
(277,133,o),
(277,142,cs),
(277,151,o),
(282,151,o),
(286,151,cs),
(596,151,ls),
(599,151,o),
(605,151,o),
(605,142,cs),
(605,133,o),
(599,133,o),
(596,133,cs),
(286,133,ls)
);
}
);
width = 882;
}
);
unicode = 44277;
},
{
glyphname = "goj-ko";
lastChange = "2023-04-07 17:10:19 +0000";
layers = (
{
layerId = "75B71696-F68C-493E-998D-CC33CA41914E";
shapes = (
{
closed = 1;
nodes = (
(836,565,o),
(833,653,o),
(833,822,c),
(41,822,l),
(41,606,l),
(563,606,l),
(563,587,o),
(556,566,o),
(547,540,c),
(741,509,l),
(450,509,l),
(450,573,l),
(180,573,l),
(180,509,l),
(14,509,l),
(14,329,l),
(869,329,l),
(869,509,l),
(817,509,l)
);
},
{
closed = 1;
nodes = (
(835,306,l),
(39,306,l),
(39,185,l),
(249,185,l),
(186,159,o),
(99,156,o),
(30,155,c),
(55,-48,l),
(232,-48,o),
(381,-11,o),
(474,58,c),
(464,-16,l),
(639,-12,o),
(775,-31,o),
(816,-42,c),
(849,142,l),
(802,155,o),
(696,166,o),
(564,166,c),
(567,172,o),
(570,178,o),
(572,185,c),
(835,185,l)
);
}
);
width = 882;
}
);
unicode = 44278;
},
{
glyphname = "got-ko";
lastChange = "2023-04-07 17:10:19 +0000";
layers = (
{
layerId = "75B71696-F68C-493E-998D-CC33CA41914E";
shapes = (
{
closed = 1;
nodes = (
(832,567,o),
(833,650,o),
(833,822,c),
(41,822,l),
(41,606,l),
(563,606,l),
(562,590,o),
(555,564,o),
(547,545,c),
(759,511,l),
(450,511,l),
(450,580,l),
(180,580,l),
(180,511,l),
(14,511,l),
(14,331,l),
(869,331,l),
(869,511,l),
(813,511,l)
);
},
{
closed = 1;
nodes = (
(832,196,l),
(311,196,l),
(311,219,l),
(841,219,l),
(842,309,l),
(41,309,l),
(41,-42,l),
(850,-42,l),
(850,93,l),
(311,93,l),
(311,115,l),
(831,115,l)
);
}
);
width = 882;
}
);
unicode = 44281;
},
{
glyphname = "gwa-ko";
lastChange = "2023-04-07 17:10:19 +0000";
layers = (
{
layerId = "75B71696-F68C-493E-998D-CC33CA41914E";
shapes = (
{
closed = 1;
nodes = (
(819,822,l),
(549,822,l),
(549,105,l),
(518,255,l),
(466,240,o),
(400,234,o),
(320,231,c),
(320,339,l),
(490,305,l),
(516,388,o),
(522,455,o),
(522,783,c),
(27,783,l),
(27,549,l),
(279,549,l),
(279,506,o),
(279,469,o),
(263,409,c),
(77,409,l),
(77,231,l),
(9,231,l),
(9,-3,l),
(248,-3,o),
(456,0,o),
(549,23,c),
(549,-42,l),
(819,-42,l),
(819,306,l),
(873,306,l),
(873,585,l),
(819,585,l)
);
}
);
width = 882;
}
);
unicode = 44284;
},
{
glyphname = "gwag-ko";
lastChange = "2023-04-07 17:10:19 +0000";
layers = (
{
layerId = "75B71696-F68C-493E-998D-CC33CA41914E";
shapes = (
{
closed = 1;
nodes = (
(819,822,l),
(549,822,l),
(549,323,l),
(522,459,l),
(488,452,o),
(416,448,o),
(324,446,c),
(324,502,l),
(499,473,l),
(525,556,o),
(522,596,o),
(522,807,c),
(27,807,l),
(27,600,l),
(279,600,l),
(279,582,o),
(276,565,o),
(270,546,c),
(81,546,l),
(81,445,l),
(9,445,l),
(9,265,l),
(256,265,o),
(476,266,o),
(549,281,c),
(549,259,l),
(819,259,l),
(819,419,l),
(873,419,l),
(873,680,l),
(819,680,l)
);
},
{
closed = 1;
nodes = (
(540,-42,l),
(819,-42,l),
(819,238,l),
(27,238,l),
(27,-1,l),
(540,-1,l)
);
}
);
width = 882;
}
);
unicode = 44285;
},
{
glyphname = "gwan-ko";
lastChange = "2023-04-07 17:10:19 +0000";
layers = (
{
layerId = "75B71696-F68C-493E-998D-CC33CA41914E";
shapes = (
{
closed = 1;
nodes = (
(549,822,l),
(549,323,l),
(522,459,l),
(488,452,o),
(416,448,o),
(324,446,c),
(324,502,l),
(499,473,l),
(525,556,o),
(522,596,o),
(522,807,c),
(27,807,l),
(27,600,l),
(279,600,l),
(279,582,o),
(276,565,o),
(270,546,c),
(81,546,l),
(81,445,l),
(9,445,l),
(9,265,l),
(256,265,o),
(476,266,o),
(549,281,c),
(549,214,l),
(819,214,l),
(819,401,l),
(873,401,l),
(873,662,l),
(819,662,l),
(819,822,l)
);
},
{
closed = 1;
nodes = (
(27,-42,l),
(828,-42,l),
(828,187,l),
(315,187,l),
(315,241,l),
(27,241,l)
);
}
);
width = 882;
}
);
unicode = 44288;
},
{
glyphname = "gwal-ko";
lastChange = "2023-04-07 17:10:19 +0000";
layers = (
{
layerId = "75B71696-F68C-493E-998D-CC33CA41914E";
shapes = (
{
closed = 1;
nodes = (
(549,822,l),
(549,395,l),
(522,531,l),
(490,524,o),
(420,520,o),
(333,519,c),
(333,563,l),
(499,542,l),
(518,597,o),
(518,646,o),
(518,817,c),
(32,817,l),
(32,619,l),
(284,619,l),
(284,608,o),
(279,595,o),
(273,582,c),
(90,582,l),
(90,518,l),
(9,518,l),
(9,338,l),
(257,338,o),
(476,338,o),
(549,353,c),
(549,330,l),
(819,330,l),
(819,460,l),
(873,460,l),
(873,721,l),
(819,721,l),
(819,822,l)
);
},
{
closed = 1;
nodes = (
(814,190,o),
(745,136,o),
(464,124,c),
(464,142,l),
(723,153,o),
(819,208,o),
(819,220,cs),
(819,312,l),
(23,312,l),
(23,204,l),
(383,204,l),
(383,186,l),
(23,186,l),
(23,7,ls),
(23,-91,o),
(824,-67,o),
(848,-10,c),
(822,192,l),
(820,194,l)
);
}
);
width = 882;
}
);
unicode = 44292;
},
{
glyphname = "gwalm-ko";
lastChange = "2023-04-07 17:10:19 +0000";
layers = (
{
layerId = "75B71696-F68C-493E-998D-CC33CA41914E";
shapes = (
{
closed = 1;
nodes = (
(549,822,l),
(549,394,l),
(522,530,l),
(490,523,o),
(420,519,o),
(333,518,c),
(333,567,l),
(499,545,l),
(521,610,o),
(518,646,o),
(518,817,c),
(32,817,l),
(32,619,l),
(284,619,l),
(284,608,o),
(275,591,o),
(269,579,c),
(90,579,l),
(90,516,l),
(9,516,l),
(9,336,l),
(257,336,o),
(476,338,o),
(549,352,c),
(549,318,l),
(819,318,l),
(819,446,l),
(873,446,l),
(873,707,l),
(819,707,l),
(819,822,l)
);
},
{
closed = 1;
nodes = (
(414,160,l),
(405,154,o),
(357,121,o),
(260,125,c),
(260,143,l),
(366,139,o),
(415,180,o),
(415,185,cs),
(415,314,l),
(18,314,l),
(18,184,l),
(180,184,l),
(180,166,l),
(18,166,l),
(21,3,ls),
(21,-70,o),
(339,-77,o),
(446,-42,c),
(825,-42,l),
(825,296,l),
(444,296,l),
(444,65,l),
(415,159,l)
);
},
{
closed = 1;
nodes = (
(639,82,l),
(621,82,l),
(621,181,l),
(639,181,l)
);
}
);
width = 882;
}
);
unicode = 44294;
},
{
glyphname = "gwam-ko";
lastChange = "2023-04-07 17:10:19 +0000";
layers = (
{
layerId = "75B71696-F68C-493E-998D-CC33CA41914E";
shapes = (
{
closed = 1;
nodes = (
(819,822,l),
(549,822,l),
(549,371,l),
(522,505,l),
(488,495,o),
(416,490,o),
(324,486,c),
(324,545,l),
(499,518,l),
(525,601,o),
(522,650,o),
(522,816,c),
(27,816,l),
(27,609,l),
(279,609,l),
(279,596,o),
(275,579,o),
(268,564,c),
(81,564,l),
(81,483,l),
(9,483,l),
(9,303,l),
(254,303,o),
(474,301,o),
(549,323,c),
(549,298,l),
(819,298,l),
(819,440,l),
(873,440,l),
(873,701,l),
(819,701,l)
);
},
{
closed = 1;
nodes = (
(819,276,l),
(27,276,l),
(27,-42,l),
(819,-42,l)
);
},
{
closed = 1;
nodes = (
(549,121,l),
(297,121,l),
(297,139,l),
(549,139,l)
);
}
);
width = 882;
}
);
unicode = 44300;
},
{
glyphname = "gwab-ko";
lastChange = "2023-04-07 17:10:19 +0000";
layers = (
{
layerId = "75B71696-F68C-493E-998D-CC33CA41914E";
shapes = (
{
closed = 1;
nodes = (
(819,822,l),
(549,822,l),
(549,391,l),
(522,527,l),
(491,520,o),
(426,516,o),
(342,514,c),
(342,563,l),
(499,542,l),
(521,607,o),
(518,646,o),
(518,817,c),
(32,817,l),
(32,619,l),
(284,619,l),
(284,607,o),
(278,592,o),
(271,579,c),
(99,579,l),
(99,512,l),
(9,512,l),
(9,332,l),
(257,332,o),
(476,334,o),
(549,348,c),
(549,321,l),
(819,321,l),
(819,446,l),
(873,446,l),
(873,707,l),
(819,707,l)
);
},
{
closed = 1;
nodes = (
(311,309,l),
(32,309,l),
(32,-42,l),
(819,-42,l),
(819,300,l),
(540,300,l),
(540,260,l),
(311,260,l)
);
},
{
closed = 1;
nodes = (
(540,134,l),
(540,102,l),
(311,102,l),
(311,134,l)
);
}
);
width = 882;
}
);
unicode = 44301;
},
{
glyphname = "gwas-ko";
lastChange = "2023-04-07 17:10:19 +0000";
layers = (
{
layerId = "75B71696-F68C-493E-998D-CC33CA41914E";
shapes = (
{
closed = 1;
nodes = (
(873,701,l),
(819,701,l),
(819,822,l),
(549,822,l),
(549,369,l),
(522,503,l),
(488,493,o),
(416,488,o),
(324,484,c),
(324,545,l),
(499,518,l),
(525,601,o),
(522,650,o),
(522,816,c),
(27,816,l),
(27,609,l),
(279,609,l),
(279,596,o),
(275,579,o),
(268,564,c),
(81,564,l),
(81,482,l),
(9,482,l),
(9,302,l),
(254,302,o),
(474,299,o),
(549,321,c),
(549,281,l),
(302,281,l),
(277,204,o),
(124,191,o),
(18,190,c),
(44,-42,l),
(219,-43,o),
(366,4,o),
(463,74,c),
(453,5,l),
(608,7,o),
(739,-11,o),
(814,-42,c),
(855,188,l),
(795,211,o),
(697,225,o),
(577,230,c),
(581,245,o),
(582,260,o),
(581,275,c),
(819,275,l),
(819,440,l),
(873,440,l)
);
}
);
width = 882;
}
);
unicode = 44303;
},
{
glyphname = "gwass-ko";
lastChange = "2023-04-07 17:10:19 +0000";
layers = (
{
layerId = "75B71696-F68C-493E-998D-CC33CA41914E";
shapes = (
{
closed = 1;
nodes = (
(549,822,l),
(549,382,l),
(522,518,l),
(491,511,o),
(426,507,o),
(342,505,c),
(342,554,l),
(499,533,l),
(521,598,o),
(518,637,o),
(518,808,c),
(32,808,l),
(32,610,l),
(284,610,l),
(284,598,o),
(278,583,o),
(271,570,c),
(99,570,l),
(99,503,l),
(9,503,l),
(9,323,l),
(257,323,o),
(476,325,o),
(549,339,c),
(549,305,l),
(819,305,l),
(819,446,l),
(873,446,l),
(873,707,l),
(819,707,l),
(819,822,l)
);
},
{
closed = 1;
nodes = (
(443,260,o),
(435,221,o),
(418,187,c),
(401,194,l),
(417,231,o),
(424,257,o),
(424,303,c),
(154,303,l),
(153,257,o),
(102,190,o),
(18,179,c),
(92,-58,l),
(172,-43,o),
(270,1,o),
(305,29,c),
(345,-58,l),
(461,-36,o),
(547,4,o),
(608,52,c),
(590,-22,l),
(671,-22,o),
(759,-35,o),
(810,-58,c),
(866,199,l),
(835,217,o),
(780,228,o),
(718,230,c),
(721,248,o),
(722,266,o),
(721,283,c),
(442,283,l)
);
}
);
width = 882;
}
);
unicode = 44304;
},
{
glyphname = "gwang-ko";
lastChange = "2023-04-07 17:10:19 +0000";
layers = (
{
layerId = "75B71696-F68C-493E-998D-CC33CA41914E";
shapes = (
{
closed = 1;
nodes = (
(873,696,l),
(819,696,l),
(819,822,l),
(549,822,l),
(549,379,l),
(522,513,l),
(488,503,o),
(416,498,o),
(324,494,c),
(324,553,l),
(499,527,l),
(525,609,o),
(522,658,o),
(522,815,c),
(27,815,l),
(27,608,l),
(279,608,l),
(279,599,o),
(276,585,o),
(271,572,c),
(81,572,l),
(81,491,l),
(9,491,l),
(9,311,l),
(254,311,o),
(474,309,o),
(549,331,c),
(549,287,l),
(195,287,ls),
(96,286,o),
(18,212,o),
(18,119,cs),
(18,17,o),
(95,-51,o),
(195,-51,cs),
(661,-51,ls),
(762,-52,o),
(837,15,o),
(837,119,cs),
(837,196,o),
(789,265,o),
(708,283,c),
(819,283,l),
(819,435,l),
(873,435,l)
);
},
{
closed = 1;
nodes = (
(266,127,o),
(261,127,o),
(261,136,cs),
(261,145,o),
(266,145,o),
(270,145,cs),
(586,145,ls),
(590,145,o),
(595,145,o),
(595,136,cs),
(595,127,o),
(590,127,o),
(586,127,cs),
(270,127,ls)
);
}
);
width = 882;
}
);
unicode = 44305;
},
{
glyphname = "gwaj-ko";
lastChange = "2023-04-07 17:10:19 +0000";
layers = (
{
layerId = "75B71696-F68C-493E-998D-CC33CA41914E";
shapes = (
{
closed = 1;
nodes = (
(549,822,l),
(549,382,l),
(522,512,l),
(488,502,o),
(416,497,o),
(324,493,c),
(324,554,l),
(499,527,l),
(525,610,o),
(522,659,o),
(522,816,c),
(27,816,l),
(27,618,l),
(279,618,l),
(279,605,o),
(275,588,o),
(268,573,c),
(81,573,l),
(81,491,l),
(9,491,l),
(9,315,l),
(254,315,o),
(474,312,o),
(549,335,c),
(549,311,l),
(819,311,l),
(819,440,l),
(873,440,l),
(873,701,l),
(819,701,l),
(819,822,l)
);
},
{
closed = 1;
nodes = (
(819,288,l),
(23,288,l),
(23,176,l),
(233,176,l),
(170,150,o),
(83,147,o),
(14,146,c),
(39,-48,l),
(216,-48,o),
(365,-8,o),
(459,60,c),
(448,-16,l),
(623,-12,o),
(759,-31,o),
(800,-42,c),
(833,133,l),
(785,146,o),
(677,157,o),
(545,157,c),
(548,163,o),
(551,169,o),
(554,176,c),
(819,176,l)
);
}
);
width = 882;
}
);
unicode = 44306;
},
{
glyphname = "gwae-ko";
lastChange = "2023-04-07 17:10:19 +0000";
layers = (
{
layerId = "75B71696-F68C-493E-998D-CC33CA41914E";
shapes = (
{
closed = 1;
nodes = (
(653,565,l),
(653,813,l),
(482,813,l),
(482,107,l),
(446,278,l),
(407,267,o),
(358,261,o),
(306,257,c),
(306,334,l),
(419,311,l),
(441,385,o),
(451,452,o),
(451,783,c),
(28,783,l),
(28,549,l),
(208,549,l),
(208,492,o),
(204,452,o),
(191,404,c),
(81,404,l),
(81,254,l),
(57,255,o),
(32,255,o),
(9,255,c),
(9,21,l),
(184,21,o),
(392,23,o),
(482,48,c),
(482,-24,l),
(653,-24,l),
(653,286,l),
(684,286,l),
(684,-42,l),
(864,-42,l),
(864,822,l),
(684,822,l),
(684,565,l)
);
}
);
width = 882;
}
);
unicode = 44312;
},
{
glyphname = "gwaen-ko";
lastChange = "2023-04-07 17:10:19 +0000";
layers = (
{
layerId = "75B71696-F68C-493E-998D-CC33CA41914E";
shapes = (
{
closed = 1;
nodes = (
(653,426,l),
(684,426,l),
(684,228,l),
(864,228,l),
(864,822,l),
(684,822,l),
(684,669,l),
(653,669,l),
(653,813,l),
(482,813,l),
(482,337,l),
(456,464,l),
(423,456,o),
(356,453,o),
(276,451,c),
(276,502,l),
(433,473,l),
(459,556,o),
(456,596,o),
(456,803,c),
(29,803,l),
(29,596,l),
(240,596,l),
(240,580,o),
(238,566,o),
(233,551,c),
(60,551,l),
(60,449,l),
(9,449,l),
(9,269,l),
(202,269,o),
(408,271,o),
(482,285,c),
(482,246,l),
(653,246,l)
);
},
{
closed = 1;
nodes = (
(45,247,l),
(45,-42,l),
(873,-42,l),
(873,196,l),
(333,196,l),
(333,247,l)
);
}
);
width = 882;
}
);
unicode = 44316;
},
{
glyphname = "gwael-ko";
lastChange = "2023-04-07 17:10:19 +0000";
layers = (
{
layerId = "75B71696-F68C-493E-998D-CC33CA41914E";
shapes = (
{
closed = 1;
nodes = (
(638,453,l),
(670,453,l),
(670,332,l),
(850,332,l),
(850,822,l),
(670,822,l),
(670,696,l),
(638,696,l),
(638,813,l),
(467,813,l),
(467,407,l),
(442,534,l),
(410,527,o),
(347,523,o),
(271,520,c),
(271,566,l),
(419,543,l),
(442,598,o),
(442,624,o),
(442,804,c),
(19,804,l),
(19,606,l),
(235,606,l),
(234,597,o),
(231,588,o),
(225,577,c),
(55,577,l),
(55,519,l),
(5,519,l),
(5,339,l),
(198,339,o),
(394,342,o),
(467,356,c),
(467,332,l),
(638,332,l)
);
},
{
closed = 1;
nodes = (
(844,190,o),
(776,136,o),
(494,124,c),
(494,142,l),
(753,153,o),
(850,208,o),
(850,220,cs),
(850,312,l),
(32,312,l),
(32,204,l),
(392,204,l),
(392,186,l),
(32,186,l),
(32,7,ls),
(32,-91,o),
(854,-67,o),
(878,-10,c),
(852,192,l),
(851,194,l)
);
}
);
width = 882;
}
);
unicode = 44320;
},
{
glyphname = "gwaelm-ko";
lastChange = "2023-04-07 17:10:19 +0000";
layers = (
{
layerId = "75B71696-F68C-493E-998D-CC33CA41914E";
shapes = (
{
closed = 1;
nodes = (
(657,696,l),
(657,813,l),
(486,813,l),
(486,410,l),
(461,537,l),
(428,530,o),
(361,527,o),
(281,525,c),
(281,570,l),
(437,548,l),
(458,599,o),
(461,639,o),
(461,804,c),
(29,804,l),
(29,610,l),
(245,610,l),
(244,600,o),
(241,591,o),
(236,582,c),
(65,582,l),
(65,525,l),
(9,525,l),
(9,345,l),
(202,345,o),
(412,346,o),
(486,359,c),
(486,327,l),
(657,327,l),
(657,453,l),
(689,453,l),
(689,327,l),
(869,327,l),
(869,822,l),
(689,822,l),
(689,696,l)
);
},
{
closed = 1;
nodes = (
(443,160,l),
(434,154,o),
(384,121,o),
(287,125,c),
(287,143,l),
(393,139,o),
(444,180,o),
(444,185,cs),
(444,323,l),
(29,323,l),
(29,193,l),
(196,193,l),
(196,175,l),
(29,175,l),
(32,3,ls),
(32,-70,o),
(365,-77,o),
(473,-42,c),
(869,-42,l),
(869,305,l),
(473,305,l),
(473,65,l),
(444,159,l)
);
},
{
closed = 1;
nodes = (
(675,82,l),
(657,82,l),
(657,190,l),
(675,190,l)
);
}
);
width = 882;
}
);
unicode = 44322;
},
{
glyphname = "gwaeb-ko";
lastChange = "2023-04-07 17:10:19 +0000";
layers = (
{
layerId = "75B71696-F68C-493E-998D-CC33CA41914E";
shapes = (
{
closed = 1;
nodes = (
(657,696,l),
(657,813,l),
(486,813,l),
(486,398,l),
(461,525,l),
(428,518,o),
(361,513,o),
(281,511,c),
(281,563,l),
(437,535,l),
(458,586,o),
(461,624,o),
(461,804,c),
(29,804,l),
(29,606,l),
(245,606,l),
(244,596,o),
(240,586,o),
(233,574,c),
(65,574,l),
(65,510,l),
(9,510,l),
(9,330,l),
(202,330,o),
(412,333,o),
(486,347,c),
(486,321,l),
(657,321,l),
(657,453,l),
(689,453,l),
(689,321,l),
(869,321,l),
(869,822,l),
(689,822,l),
(689,696,l)
);
},
{
closed = 1;
nodes = (
(315,309,l),
(36,309,l),
(36,-42,l),
(865,-42,l),
(865,300,l),
(586,300,l),
(586,269,l),
(315,269,l)
);
},
{
closed = 1;
nodes = (
(586,143,l),
(586,111,l),
(315,111,l),
(315,143,l)
);
}
);
width = 882;
}
);
unicode = 44329;
},
{
glyphname = "gwaess-ko";
lastChange = "2023-04-07 17:10:19 +0000";
layers = (
{
layerId = "75B71696-F68C-493E-998D-CC33CA41914E";
shapes = (
{
closed = 1;
nodes = (
(721,247,o),
(722,259,o),
(721,273,c),
(869,273,l),
(869,822,l),
(689,822,l),
(689,682,l),
(657,682,l),
(657,813,l),
(486,813,l),
(486,386,l),
(461,513,l),
(428,506,o),
(361,501,o),
(281,500,c),
(281,554,l),
(437,526,l),
(462,585,o),
(461,615,o),
(461,804,c),
(29,804,l),
(29,606,l),
(245,606,l),
(245,598,o),
(241,582,o),
(234,570,c),
(65,570,l),
(65,499,l),
(9,499,l),
(9,319,l),
(202,319,o),
(412,321,o),
(486,335,c),
(486,300,l),
(657,300,l),
(657,439,l),
(689,439,l),
(689,277,l),
(433,277,l),
(432,255,o),
(423,215,o),
(409,191,c),
(392,197,l),
(408,235,o),
(415,257,o),
(415,298,c),
(136,298,l),
(135,252,o),
(84,194,o),
(9,183,c),
(83,-49,l),
(163,-34,o),
(261,10,o),
(296,38,c),
(345,-49,l),
(459,-27,o),
(545,9,o),
(605,53,c),
(589,-13,l),
(670,-13,o),
(766,-26,o),
(817,-49,c),
(873,203,l),
(842,221,o),
(784,231,o),
(720,233,c)
);
}
);
width = 882;
}
);
unicode = 44332;
},
{
glyphname = "gwaeng-ko";
lastChange = "2023-04-07 17:10:19 +0000";
layers = (
{
layerId = "75B71696-F68C-493E-998D-CC33CA41914E";
shapes = (
{
closed = 1;
nodes = (
(689,687,l),
(657,687,l),
(657,813,l),
(486,813,l),
(486,382,l),
(461,509,l),
(428,501,o),
(361,498,o),
(281,495,c),
(281,549,l),
(437,521,l),
(462,581,o),
(461,614,o),
(461,803,c),
(29,803,l),
(29,605,l),
(245,605,l),
(245,597,o),
(240,582,o),
(234,569,c),
(65,569,l),
(65,494,l),
(9,494,l),
(9,314,l),
(202,314,o),
(412,317,o),
(486,330,c),
(486,306,l),
(657,306,l),
(657,444,l),
(689,444,l),
(689,285,l),
(200,285,ls),
(101,284,o),
(23,220,o),
(23,118,cs),
(23,7,o),
(100,-51,o),
(200,-51,cs),
(692,-51,ls),
(794,-52,o),
(869,6,o),
(869,118,cs),
(869,194,o),
(830,253,o),
(763,275,c),
(869,275,l),
(869,822,l),
(689,822,l)
);
},
{
closed = 1;
nodes = (
(270,126,o),
(266,126,o),
(266,135,cs),
(266,144,o),
(270,144,o),
(275,144,cs),
(617,144,ls),
(621,144,o),
(626,144,o),
(626,135,cs),
(626,126,o),
(621,126,o),
(617,126,cs),
(275,126,ls)
);
}
);
width = 882;
}
);
unicode = 44333;
},
{
glyphname = "goe-ko";
lastChange = "2023-04-07 17:10:19 +0000";
layers = (
{
layerId = "75B71696-F68C-493E-998D-CC33CA41914E";
shapes = (
{
closed = 1;
nodes = (
(554,255,l),
(502,240,o),
(435,234,o),
(352,231,c),
(352,339,l),
(522,305,l),
(548,388,o),
(554,455,o),
(554,783,c),
(46,783,l),
(46,549,l),
(311,549,l),
(311,506,o),
(311,469,o),
(295,409,c),
(109,409,l),
(109,230,l),
(80,231,o),
(50,231,o),
(18,231,c),
(18,-3,l),
(283,-3,o),
(492,0,o),
(585,23,c),
(585,-42,l),
(855,-42,l),
(855,822,l),
(585,822,l),
(585,105,l)
);
}
);
width = 882;
}
);
unicode = 44340;
},
{
glyphname = "goeg-ko";
lastChange = "2023-04-07 17:10:19 +0000";
layers = (
{
layerId = "75B71696-F68C-493E-998D-CC33CA41914E";
shapes = (
{
closed = 1;
nodes = (
(558,459,l),
(524,452,o),
(451,448,o),
(356,446,c),
(356,502,l),
(530,473,l),
(556,556,o),
(554,596,o),
(554,807,c),
(50,807,l),
(50,600,l),
(311,600,l),
(311,582,o),
(308,565,o),
(302,546,c),
(113,546,l),
(113,445,l),
(18,445,l),
(18,265,l),
(291,265,o),
(512,266,o),
(585,281,c),
(585,259,l),
(855,259,l),
(855,822,l),
(585,822,l),
(585,323,l)
);
},
{
closed = 1;
nodes = (
(576,-42,l),
(855,-42,l),
(855,238,l),
(45,238,l),
(45,-1,l),
(576,-1,l)
);
}
);
width = 882;
}
);
unicode = 44341;
},
{
glyphname = "goen-ko";
lastChange = "2023-04-07 17:10:19 +0000";
layers = (
{
layerId = "75B71696-F68C-493E-998D-CC33CA41914E";
shapes = (
{
closed = 1;
nodes = (
(855,822,l),
(585,822,l),
(585,323,l),
(558,459,l),
(524,452,o),
(451,448,o),
(356,446,c),
(356,502,l),
(530,473,l),
(556,556,o),
(554,596,o),
(554,807,c),
(50,807,l),
(50,600,l),
(311,600,l),
(311,582,o),
(308,565,o),
(302,546,c),
(113,546,l),
(113,445,l),
(18,445,l),
(18,265,l),
(291,265,o),
(512,266,o),
(585,281,c),
(585,214,l),
(855,214,l)
);
},
{
closed = 1;
nodes = (
(45,241,l),
(45,-42,l),
(864,-42,l),
(864,187,l),
(333,187,l),
(333,241,l)
);
}
);
width = 882;
}
);
unicode = 44344;
},
{
glyphname = "goel-ko";
lastChange = "2023-04-07 17:10:19 +0000";
layers = (
{
layerId = "75B71696-F68C-493E-998D-CC33CA41914E";
shapes = (
{
closed = 1;
nodes = (
(846,822,l),
(576,822,l),
(576,395,l),
(549,531,l),
(517,524,o),
(447,520,o),
(356,519,c),
(356,563,l),
(521,542,l),
(544,607,o),
(540,646,o),
(540,817,c),
(36,817,l),
(36,619,l),
(306,619,l),
(306,608,o),
(302,595,o),
(295,582,c),
(113,582,l),
(113,518,l),
(9,518,l),
(9,338,l),
(284,338,o),
(503,338,o),
(576,353,c),
(576,330,l),
(846,330,l)
);
},
{
closed = 1;
nodes = (
(841,190,o),
(772,136,o),
(490,124,c),
(490,142,l),
(750,153,o),
(846,208,o),
(846,220,cs),
(846,312,l),
(32,312,l),
(32,204,l),
(392,204,l),
(392,186,l),
(32,186,l),
(32,7,ls),
(32,-91,o),
(851,-67,o),
(875,-10,c),
(849,192,l),
(847,194,l)
);
}
);
width = 882;
}
);
unicode = 44348;
},
{
glyphname = "goem-ko";
lastChange = "2023-04-07 17:10:19 +0000";
layers = (
{
layerId = "75B71696-F68C-493E-998D-CC33CA41914E";
shapes = (
{
closed = 1;
nodes = (
(558,505,l),
(523,495,o),
(451,490,o),
(356,486,c),
(356,545,l),
(530,518,l),
(556,601,o),
(554,650,o),
(554,816,c),
(50,816,l),
(50,609,l),
(311,609,l),
(311,596,o),
(306,579,o),
(300,564,c),
(113,564,l),
(113,483,l),
(18,483,l),
(18,303,l),
(289,303,o),
(510,301,o),
(585,323,c),
(585,298,l),
(855,298,l),
(855,822,l),
(585,822,l),
(585,371,l)
);
},
{
closed = 1;
nodes = (
(855,276,l),
(45,276,l),
(45,-42,l),
(855,-42,l)
);
},
{
closed = 1;
nodes = (
(585,121,l),
(315,121,l),
(315,139,l),
(585,139,l)
);
}
);
width = 882;
}
);
unicode = 44356;
},
{
glyphname = "goeb-ko";
lastChange = "2023-04-07 17:10:19 +0000";
layers = (
{
layerId = "75B71696-F68C-493E-998D-CC33CA41914E";
shapes = (
{
closed = 1;
nodes = (
(558,527,l),
(527,519,o),
(461,516,o),
(374,514,c),
(374,563,l),
(530,542,l),
(553,607,o),
(549,646,o),
(549,817,c),
(54,817,l),
(54,619,l),
(315,619,l),
(315,607,o),
(310,592,o),
(302,579,c),
(131,579,l),
(131,512,l),
(18,512,l),
(18,332,l),
(292,332,o),
(512,334,o),
(585,348,c),
(585,321,l),
(855,321,l),
(855,822,l),
(585,822,l),
(585,391,l)
);
},
{
closed = 1;
nodes = (
(324,309,l),
(45,309,l),
(45,-42,l),
(855,-42,l),
(855,300,l),
(576,300,l),
(576,260,l),
(324,260,l)
);
},
{
closed = 1;
nodes = (
(576,134,l),
(576,102,l),
(324,102,l),
(324,134,l)
);
}
);
width = 882;
}
);
unicode = 44357;
},
{
glyphname = "goes-ko";
lastChange = "2023-04-07 17:10:19 +0000";
layers = (
{
layerId = "75B71696-F68C-493E-998D-CC33CA41914E";
shapes = (
{
closed = 1;
nodes = (
(590,245,o),
(591,260,o),
(590,275,c),
(855,275,l),
(855,822,l),
(585,822,l),
(585,369,l),
(558,503,l),
(523,493,o),
(451,488,o),
(356,484,c),
(356,545,l),
(530,518,l),
(556,601,o),
(554,650,o),
(554,816,c),
(50,816,l),
(50,609,l),
(311,609,l),
(311,596,o),
(306,579,o),
(300,564,c),
(113,564,l),
(113,482,l),
(18,482,l),
(18,302,l),
(289,302,o),
(510,299,o),
(585,321,c),
(585,281,l),
(311,281,l),
(286,204,o),
(133,191,o),
(27,190,c),
(53,-42,l),
(228,-43,o),
(375,4,o),
(472,74,c),
(462,5,l),
(617,7,o),
(748,-11,o),
(823,-42,c),
(864,188,l),
(804,211,o),
(706,225,o),
(586,230,c)
);
}
);
width = 882;
}
);
unicode = 44359;
},
{
glyphname = "goeng-ko";
lastChange = "2023-04-07 17:10:19 +0000";
layers = (
{
layerId = "75B71696-F68C-493E-998D-CC33CA41914E";
shapes = (
{
closed = 1;
nodes = (
(846,822,l),
(576,822,l),
(576,379,l),
(549,513,l),
(514,503,o),
(442,498,o),
(347,494,c),
(347,553,l),
(521,527,l),
(547,609,o),
(545,658,o),
(545,815,c),
(41,815,l),
(41,608,l),
(302,608,l),
(302,599,o),
(299,585,o),
(293,572,c),
(104,572,l),
(104,491,l),
(9,491,l),
(9,311,l),
(280,311,o),
(501,309,o),
(576,331,c),
(576,287,l),
(211,287,ls),
(112,286,o),
(33,212,o),
(33,119,cs),
(33,17,o),
(111,-51,o),
(211,-51,cs),
(688,-51,ls),
(789,-52,o),
(864,15,o),
(864,119,cs),
(864,196,o),
(816,265,o),
(735,283,c),
(846,283,l)
);
},
{
closed = 1;
nodes = (
(281,127,o),
(276,127,o),
(276,136,cs),
(276,145,o),
(281,145,o),
(285,145,cs),
(613,145,ls),
(617,145,o),
(622,145,o),
(622,136,cs),
(622,127,o),
(617,127,o),
(613,127,cs),
(285,127,ls)
);
}
);
width = 882;
}
);
unicode = 44361;
},
{
glyphname = "gyo-ko";
lastChange = "2023-04-07 17:10:19 +0000";
layers = (
{
layerId = "75B71696-F68C-493E-998D-CC33CA41914E";
shapes = (
{
closed = 1;
nodes = (
(827,315,o),
(833,390,o),
(833,777,c),
(50,777,l),
(50,516,l),
(563,516,l),
(563,478,o),
(562,446,o),
(558,417,c),
(360,417,l),
(360,237,l),
(320,237,l),
(320,417,l),
(86,417,l),
(86,237,l),
(18,237,l),
(18,-15,l),
(864,-15,l),
(864,237,l),
(804,237,l)
);
},
{
closed = 1;
nodes = (
(576,237,l),
(576,281,l),
(756,237,l)
);
}
);
width = 882;
}
);
unicode = 44368;
},
{
glyphname = "gyon-ko";
lastChange = "2023-04-07 17:10:19 +0000";
layers = (
{
layerId = "75B71696-F68C-493E-998D-CC33CA41914E";
shapes = (
{
closed = 1;
nodes = (
(836,517,o),
(833,627,o),
(833,822,c),
(41,822,l),
(41,606,l),
(563,606,l),
(563,586,o),
(562,570,o),
(559,556,c),
(356,556,l),
(356,457,l),
(311,457,l),
(311,556,l),
(77,556,l),
(77,457,l),
(14,457,l),
(14,259,l),
(869,259,l),
(869,457,l),
(815,457,l)
);
},
{
closed = 1;
nodes = (
(572,457,l),
(572,493,l),
(752,457,l)
);
},
{
closed = 1;
nodes = (
(41,-42,l),
(851,-42,l),
(851,174,l),
(329,174,l),
(329,237,l),
(41,237,l)
);
}
);
width = 882;
}
);
unicode = 44372;
},
{
glyphname = "gyol-ko";
lastChange = "2023-04-07 17:10:19 +0000";
layers = (
{
layerId = "75B71696-F68C-493E-998D-CC33CA41914E";
shapes = (
{
closed = 1;
nodes = (
(832,572,o),
(833,654,o),
(833,832,c),
(41,832,l),
(41,616,l),
(563,616,l),
(563,607,o),
(561,595,o),
(557,583,c),
(356,583,l),
(356,517,l),
(311,517,l),
(311,583,l),
(77,583,l),
(77,517,l),
(14,517,l),
(14,337,l),
(869,337,l),
(869,517,l),
(814,517,l)
);
},
{
closed = 1;
nodes = (
(572,517,l),
(572,550,l),
(760,517,l)
);
},
{
closed = 1;
nodes = (
(834,181,o),
(768,134,o),
(493,124,c),
(493,142,l),
(746,152,o),
(840,199,o),
(840,211,cs),
(840,314,l),
(40,314,l),
(40,206,l),
(401,206,l),
(401,188,l),
(40,188,l),
(40,7,ls),
(40,-91,o),
(844,-67,o),
(869,-10,c),
(842,183,l),
(841,185,l)
);
}
);
width = 882;
}
);
unicode = 44376;
},
{
glyphname = "gyom-ko";
lastChange = "2023-04-07 17:10:19 +0000";
layers = (
{
layerId = "75B71696-F68C-493E-998D-CC33CA41914E";
shapes = (
{
closed = 1;
nodes = (
(836,545,o),
(833,654,o),
(833,822,c),
(41,822,l),
(41,606,l),
(563,606,l),
(563,593,o),
(561,581,o),
(557,567,c),
(356,567,l),
(356,486,l),
(311,486,l),
(311,567,l),
(77,567,l),
(77,486,l),
(14,486,l),
(14,306,l),
(869,306,l),
(869,486,l),
(816,486,l)
);
},
{
closed = 1;
nodes = (
(572,486,l),
(572,520,l),
(743,486,l)
);
},
{
closed = 1;
nodes = (
(842,283,l),
(41,283,l),
(41,-43,l),
(842,-43,l)
);
},
{
closed = 1;
nodes = (
(581,138,l),
(302,138,l),
(302,156,l),
(581,156,l)
);
}
);
width = 882;
}
);
unicode = 44384;
},
{
glyphname = "gyob-ko";
lastChange = "2023-04-07 17:10:19 +0000";
layers = (
{
layerId = "75B71696-F68C-493E-998D-CC33CA41914E";
shapes = (
{
closed = 1;
nodes = (
(836,552,o),
(833,658,o),
(833,832,c),
(41,832,l),
(41,616,l),
(563,616,l),
(563,599,o),
(561,586,o),
(558,574,c),
(356,574,l),
(356,493,l),
(311,493,l),
(311,574,l),
(77,574,l),
(77,493,l),
(14,493,l),
(14,313,l),
(869,313,l),
(869,493,l),
(817,493,l)
);
},
{
closed = 1;
nodes = (
(572,493,l),
(572,523,l),
(748,493,l)
);
},
{
closed = 1;
nodes = (
(306,290,l),
(36,290,l),
(36,-42,l),
(846,-42,l),
(846,290,l),
(576,290,l),
(576,254,l),
(306,254,l)
);
},
{
closed = 1;
nodes = (
(576,150,l),
(576,115,l),
(306,115,l),
(306,150,l)
);
}
);
width = 882;
}
);
unicode = 44385;
},
{
glyphname = "gyos-ko";
lastChange = "2023-04-07 17:10:19 +0000";
layers = (
{
layerId = "75B71696-F68C-493E-998D-CC33CA41914E";
shapes = (
{
closed = 1;
nodes = (
(836,534,o),
(833,644,o),
(833,822,c),
(41,822,l),
(41,606,l),
(563,606,l),
(563,590,o),
(561,578,o),
(558,565,c),
(356,565,l),
(356,474,l),
(311,474,l),
(311,565,l),
(77,565,l),
(77,474,l),
(14,474,l),
(14,294,l),
(869,294,l),
(869,474,l),
(815,474,l)
);
},
{
closed = 1;
nodes = (
(572,474,l),
(572,510,l),
(752,474,l)
);
},
{
closed = 1;
nodes = (
(284,218,o),
(125,199,o),
(23,194,c),
(49,-42,l),
(220,-44,o),
(374,12,o),
(472,87,c),
(457,-10,l),
(632,-10,o),
(786,-35,o),
(827,-51,c),
(869,181,l),
(823,198,o),
(706,212,o),
(573,217,c),
(580,236,o),
(582,254,o),
(581,272,c),
(302,272,l)
);
}
);
width = 882;
}
);
unicode = 44387;
},
{
glyphname = "gyong-ko";
lastChange = "2023-04-07 17:10:19 +0000";
layers = (
{
layerId = "75B71696-F68C-493E-998D-CC33CA41914E";
shapes = (
{
closed = 1;
nodes = (
(836,546,o),
(833,646,o),
(833,822,c),
(41,822,l),
(41,606,l),
(563,606,l),
(563,592,o),
(560,579,o),
(557,565,c),
(356,565,l),
(356,488,l),
(311,488,l),
(311,565,l),
(77,565,l),
(77,488,l),
(14,488,l),
(14,299,l),
(869,299,l),
(869,488,l),
(816,488,l)
);
},
{
closed = 1;
nodes = (
(572,488,l),
(572,522,l),
(743,488,l)
);
},
{
closed = 1;
nodes = (
(86,280,o),
(17,204,o),
(17,121,cs),
(17,17,o),
(86,-52,o),
(185,-52,cs),
(698,-52,ls),
(800,-52,o),
(866,15,o),
(866,121,cs),
(866,204,o),
(807,280,o),
(698,280,cs),
(185,280,ls)
);
},
{
closed = 1;
nodes = (
(282,129,o),
(277,129,o),
(277,138,cs),
(277,147,o),
(282,147,o),
(286,147,cs),
(596,147,ls),
(599,147,o),
(605,147,o),
(605,138,cs),
(605,129,o),
(599,129,o),
(596,129,cs),
(286,129,ls)
);
}
);
width = 882;
}
);
unicode = 44389;
},
{
glyphname = "gu-ko";
lastChange = "2023-04-07 17:10:19 +0000";
layers = (
{
layerId = "75B71696-F68C-493E-998D-CC33CA41914E";
shapes = (
{
closed = 1;
nodes = (
(826,455,o),
(828,500,o),
(828,813,c),
(45,813,l),
(45,552,l),
(558,552,l),
(555,507,o),
(549,482,o),
(532,432,c),
(772,385,l),
(18,385,l),
(18,133,l),
(293,133,l),
(293,-42,l),
(590,-42,l),
(590,133,l),
(864,133,l),
(864,385,l),
(806,385,l)
);
}
);
width = 882;
}
);
unicode = 44396;
},
{
glyphname = "gug-ko";
lastChange = "2023-04-07 17:10:19 +0000";
layers = (
{
layerId = "75B71696-F68C-493E-998D-CC33CA41914E";
shapes = (
{
closed = 1;
nodes = (
(815,480,l),
(836,539,o),
(833,653,o),
(833,822,c),
(41,822,l),
(41,606,l),
(563,606,l),
(563,576,o),
(554,549,o),
(545,521,c),
(752,480,l),
(14,480,l),
(14,282,l),
(306,282,l),
(306,250,l),
(32,250,l),
(32,39,l),
(563,39,l),
(563,-42,l),
(842,-42,l),
(842,250,l),
(576,250,l),
(576,282,l),
(869,282,l),
(869,480,l)
);
}
);
width = 882;
}
);
unicode = 44397;
},
{
glyphname = "gun-ko";
lastChange = "2023-04-07 17:10:19 +0000";
layers = (
{
layerId = "75B71696-F68C-493E-998D-CC33CA41914E";
shapes = (
{
closed = 1;
nodes = (
(836,523,o),
(833,635,o),
(833,822,c),
(41,822,l),
(41,606,l),
(563,606,l),
(563,566,o),
(554,537,o),
(543,505,c),
(752,464,l),
(14,464,l),
(14,266,l),
(338,266,l),
(338,196,l),
(590,196,l),
(590,266,l),
(869,266,l),
(869,464,l),
(815,464,l)
);
},
{
closed = 1;
nodes = (
(32,-42,l),
(851,-42,l),
(851,174,l),
(311,174,l),
(311,237,l),
(32,237,l)
);
}
);
width = 882;
}
);
unicode = 44400;
},
{
glyphname = "gud-ko";
lastChange = "2023-04-07 17:10:19 +0000";
layers = (
{
layerId = "75B71696-F68C-493E-998D-CC33CA41914E";
shapes = (
{
closed = 1;
nodes = (
(816,495,l),
(836,554,o),
(833,662,o),
(833,822,c),
(41,822,l),
(41,606,l),
(563,606,l),
(563,575,o),
(554,557,o),
(545,535,c),
(743,495,l),
(14,495,l),
(14,315,l),
(315,315,l),
(315,284,l),
(41,284,l),
(41,252,l),
(40,252,l),
(40,-42,l),
(855,-42,l),
(855,124,l),
(319,124,l),
(319,153,l),
(846,153,l),
(847,284,l),
(567,284,l),
(567,315,l),
(869,315,l),
(869,495,l)
);
}
);
width = 882;
}
);
unicode = 44403;
},
{
glyphname = "gul-ko";
lastChange = "2023-04-07 17:10:19 +0000";
layers = (
{
layerId = "75B71696-F68C-493E-998D-CC33CA41914E";
shapes = (
{
closed = 1;
nodes = (
(314,351,l),
(314,320,l),
(40,320,l),
(40,212,l),
(401,212,l),
(401,194,l),
(40,194,l),
(40,7,ls),
(40,-91,o),
(844,-67,o),
(869,-10,c),
(842,183,l),
(841,185,l),
(834,181,o),
(768,134,o),
(493,124,c),
(493,142,l),
(746,152,o),
(840,199,o),
(840,211,cs),
(840,320,l),
(566,320,l),
(566,351,l),
(869,351,l),
(869,531,l),
(814,531,l),
(832,587,o),
(833,669,o),
(833,832,c),
(41,832,l),
(41,616,l),
(563,616,l),
(563,603,o),
(556,581,o),
(549,563,c),
(753,531,l),
(14,531,l),
(14,351,l)
);
}
);
width = 882;
}
);
unicode = 44404;
},
{
glyphname = "gulg-ko";
lastChange = "2023-04-07 17:10:19 +0000";
layers = (
{
layerId = "75B71696-F68C-493E-998D-CC33CA41914E";
shapes = (
{
closed = 1;
nodes = (
(815,510,l),
(837,568,o),
(833,673,o),
(833,822,c),
(41,822,l),
(41,610,l),
(563,610,l),
(563,591,o),
(554,570,o),
(544,545,c),
(772,510,l),
(14,510,l),
(14,330,l),
(315,330,l),
(315,301,l),
(32,301,l),
(32,193,l),
(194,193,l),
(194,175,l),
(32,175,l),
(34,-2,ls),
(34,-83,o),
(451,-74,o),
(509,-24,c),
(478,89,l),
(581,89,l),
(581,-42,l),
(851,-42,l),
(851,301,l),
(567,301,l),
(567,330,l),
(869,330,l),
(869,510,l)
);
},
{
closed = 1;
nodes = (
(389,125,o),
(437,151,o),
(437,171,cs),
(437,265,l),
(455,265,l),
(455,171,ls),
(455,130,o),
(380,107,o),
(274,112,c),
(274,130,l)
);
}
);
width = 882;
}
);
unicode = 44405;
},
{
glyphname = "gulm-ko";
lastChange = "2023-04-07 17:10:19 +0000";
layers = (
{
layerId = "75B71696-F68C-493E-998D-CC33CA41914E";
shapes = (
{
closed = 1;
nodes = (
(815,502,l),
(837,560,o),
(833,665,o),
(833,822,c),
(41,822,l),
(41,606,l),
(563,606,l),
(563,584,o),
(554,561,o),
(544,536,c),
(766,502,l),
(14,502,l),
(14,322,l),
(315,322,l),
(315,292,l),
(32,292,l),
(32,184,l),
(203,184,l),
(203,166,l),
(32,166,l),
(35,-6,l),
(43,-72,o),
(366,-72,o),
(458,-42,c),
(851,-42,l),
(851,292,l),
(567,292,l),
(567,322,l),
(869,322,l),
(869,502,l)
);
},
{
closed = 1;
nodes = (
(419,140,o),
(372,107,o),
(275,112,c),
(275,130,l),
(372,125,o),
(429,167,o),
(429,171,cs),
(429,247,l),
(458,247,l),
(458,40,l),
(429,146,l),
(428,147,l)
);
},
{
closed = 1;
nodes = (
(661,84,l),
(643,84,l),
(643,192,l),
(661,192,l)
);
}
);
width = 882;
}
);
unicode = 44406;
},
{
glyphname = "gulh-ko";
lastChange = "2023-04-07 17:10:19 +0000";
layers = (
{
layerId = "75B71696-F68C-493E-998D-CC33CA41914E";
shapes = (
{
closed = 1;
nodes = (
(815,511,l),
(837,569,o),
(833,674,o),
(833,822,c),
(41,822,l),
(41,606,l),
(563,606,l),
(563,587,o),
(554,566,o),
(545,545,c),
(766,511,l),
(14,511,l),
(14,331,l),
(315,331,l),
(315,301,l),
(32,301,l),
(32,193,l),
(203,193,l),
(203,175,l),
(32,175,l),
(34,-6,l),
(43,-78,o),
(436,-62,o),
(486,-24,c),
(501,-35,o),
(523,-42,o),
(555,-42,cs),
(717,-42,ls),
(841,-43,o),
(851,18,o),
(851,79,cs),
(851,121,o),
(834,145,o),
(812,158,c),
(851,158,l),
(851,278,l),
(766,278,l),
(766,312,l),
(567,312,l),
(567,331,l),
(869,331,l),
(869,511,l)
);
},
{
closed = 1;
nodes = (
(487,158,l),
(466,145,o),
(452,122,o),
(452,79,cs),
(452,71,l),
(428,137,l),
(428,138,l),
(419,131,o),
(371,98,o),
(274,103,c),
(274,121,l),
(371,116,o),
(428,158,o),
(428,162,cs),
(428,296,l),
(532,296,l),
(532,278,l),
(451,278,l),
(451,158,l)
);
},
{
closed = 1;
nodes = (
(582,85,o),
(578,85,o),
(578,94,cs),
(578,103,o),
(582,103,o),
(587,103,cs),
(707,103,ls),
(710,103,o),
(716,103,o),
(716,94,cs),
(716,85,o),
(710,85,o),
(707,85,cs),
(587,85,ls)
);
}
);
width = 882;
}
);
unicode = 44411;
},
{
glyphname = "gum-ko";
lastChange = "2023-04-07 17:10:19 +0000";
layers = (
{
layerId = "75B71696-F68C-493E-998D-CC33CA41914E";
shapes = (
{
closed = 1;
nodes = (
(816,495,l),
(836,554,o),
(833,662,o),
(833,822,c),
(41,822,l),
(41,606,l),
(563,606,l),
(563,576,o),
(555,563,o),
(545,535,c),
(743,495,l),
(14,495,l),
(14,315,l),
(315,315,l),
(315,283,l),
(41,283,l),
(41,-43,l),
(842,-43,l),
(842,283,l),
(567,283,l),
(567,315,l),
(869,315,l),
(869,495,l)
);
},
{
closed = 1;
nodes = (
(302,156,l),
(581,156,l),
(581,138,l),
(302,138,l)
);
}
);
width = 882;
}
);
unicode = 44412;
},
{
glyphname = "gub-ko";
lastChange = "2023-04-07 17:10:19 +0000";
layers = (
{
layerId = "75B71696-F68C-493E-998D-CC33CA41914E";
shapes = (
{
closed = 1;
nodes = (
(836,557,o),
(833,652,o),
(833,822,c),
(41,822,l),
(41,606,l),
(563,606,l),
(563,575,o),
(554,554,o),
(547,530,c),
(743,500,l),
(14,500,l),
(14,320,l),
(320,320,l),
(320,274,l),
(563,274,l),
(563,320,l),
(869,320,l),
(869,500,l),
(817,500,l)
);
},
{
closed = 1;
nodes = (
(297,293,l),
(36,293,l),
(36,-42,l),
(846,-42,l),
(846,293,l),
(585,293,l),
(585,254,l),
(297,254,l)
);
},
{
closed = 1;
nodes = (
(585,150,l),
(585,115,l),
(297,115,l),
(297,150,l)
);
}
);
width = 882;
}
);
unicode = 44413;
},
{
glyphname = "gus-ko";
lastChange = "2023-04-07 17:10:19 +0000";
layers = (
{
layerId = "75B71696-F68C-493E-998D-CC33CA41914E";
shapes = (
{
closed = 1;
nodes = (
(836,551,o),
(833,653,o),
(833,822,c),
(41,822,l),
(41,606,l),
(563,606,l),
(563,581,o),
(554,557,o),
(545,534,c),
(752,492,l),
(14,492,l),
(14,312,l),
(302,312,l),
(302,277,l),
(581,277,l),
(581,312,l),
(869,312,l),
(869,492,l),
(815,492,l)
);
},
{
closed = 1;
nodes = (
(284,211,o),
(125,199,o),
(23,194,c),
(49,-42,l),
(220,-44,o),
(373,9,o),
(471,80,c),
(457,-10,l),
(632,-10,o),
(786,-35,o),
(827,-51,c),
(869,181,l),
(823,198,o),
(708,212,o),
(578,217,c),
(581,230,o),
(582,243,o),
(581,256,c),
(302,256,l)
);
}
);
width = 882;
}
);
unicode = 44415;
},
{
glyphname = "gung-ko";
lastChange = "2023-04-07 17:10:19 +0000";
layers = (
{
layerId = "75B71696-F68C-493E-998D-CC33CA41914E";
shapes = (
{
closed = 1;
nodes = (
(816,497,l),
(836,555,o),
(833,654,o),
(833,822,c),
(41,822,l),
(41,606,l),
(563,606,l),
(563,585,o),
(554,560,o),
(545,536,c),
(743,497,l),
(14,497,l),
(14,308,l),
(315,308,l),
(315,281,l),
(185,281,ls),
(86,281,o),
(17,205,o),
(17,121,cs),
(17,17,o),
(86,-52,o),
(185,-52,cs),
(698,-52,ls),
(800,-52,o),
(866,15,o),
(866,121,cs),
(866,205,o),
(807,281,o),
(698,281,cs),
(567,281,l),
(567,308,l),
(869,308,l),
(869,497,l)
);
},
{
closed = 1;
nodes = (
(605,129,o),
(599,129,o),
(596,129,cs),
(286,129,ls),
(282,129,o),
(277,129,o),
(277,138,cs),
(277,147,o),
(282,147,o),
(286,147,cs),
(596,147,ls),
(599,147,o),
(605,147,o),
(605,138,cs)
);
}
);
width = 882;
}
);
unicode = 44417;
},
{
glyphname = "guj-ko";
lastChange = "2023-04-07 17:10:19 +0000";
layers = (
{
layerId = "75B71696-F68C-493E-998D-CC33CA41914E";
shapes = (
{
closed = 1;
nodes = (
(817,518,l),
(836,574,o),
(833,662,o),
(833,822,c),
(41,822,l),
(41,606,l),
(563,606,l),
(563,591,o),
(556,571,o),
(547,549,c),
(741,518,l),
(14,518,l),
(14,338,l),
(315,338,l),
(315,306,l),
(39,306,l),
(39,185,l),
(249,185,l),
(186,159,o),
(99,156,o),
(30,155,c),
(55,-48,l),
(232,-48,o),
(381,-11,o),
(474,58,c),
(464,-16,l),
(639,-12,o),
(775,-31,o),
(816,-42,c),
(849,142,l),
(802,155,o),
(696,166,o),
(564,166,c),
(567,172,o),
(570,178,o),
(572,185,c),
(835,185,l),
(835,306,l),
(567,306,l),
(567,338,l),
(869,338,l),
(869,518,l)
);
}
);
width = 882;
}
);
unicode = 44418;
},
{
glyphname = "guc-ko";
lastChange = "2023-04-07 17:10:19 +0000";
layers = (
{
layerId = "75B71696-F68C-493E-998D-CC33CA41914E";
shapes = (
{
closed = 1;
nodes = (
(832,581,o),
(833,652,o),
(833,822,c),
(41,822,l),
(41,606,l),
(563,606,l),
(562,593,o),
(554,571,o),
(549,559,c),
(749,527,l),
(14,527,l),
(14,347,l),
(302,347,l),
(302,316,l),
(581,316,l),
(581,347,l),
(869,347,l),
(869,527,l),
(814,527,l)
);
},
{
closed = 1;
nodes = (
(835,275,l),
(583,275,l),
(583,282,o),
(583,290,o),
(582,298,c),
(303,298,l),
(303,275,l),
(39,275,l),
(39,167,l),
(253,167,l),
(189,140,o),
(101,138,o),
(30,137,c),
(55,-48,l),
(232,-48,o),
(381,-15,o),
(474,49,c),
(464,-20,l),
(639,-15,o),
(775,-35,o),
(816,-46,c),
(849,123,l),
(801,136,o),
(694,147,o),
(562,147,c),
(565,153,o),
(568,160,o),
(571,167,c),
(835,167,l)
);
}
);
width = 882;
}
);
unicode = 44419;
},
{
glyphname = "gweo-ko";
lastChange = "2023-04-07 17:10:19 +0000";
layers = (
{
layerId = "75B71696-F68C-493E-998D-CC33CA41914E";
shapes = (
{
closed = 1;
nodes = (
(574,259,l),
(545,399,l),
(537,397,o),
(526,395,o),
(512,394,c),
(530,448,o),
(541,524,o),
(541,792,c),
(37,792,l),
(37,558,l),
(298,558,l),
(298,530,o),
(289,482,o),
(266,432,c),
(473,391,l),
(365,384,o),
(181,383,o),
(9,384,c),
(9,168,l),
(164,168,l),
(156,103,o),
(142,39,o),
(126,-4,c),
(369,-50,l),
(388,-3,o),
(406,82,o),
(414,173,c),
(440,173,o),
(464,175,o),
(486,176,c),
(486,34,l),
(594,34,l),
(594,-42,l),
(864,-42,l),
(864,822,l),
(594,822,l),
(594,259,l)
);
}
);
width = 882;
}
);
unicode = 44424;
},
{
glyphname = "gweog-ko";
lastChange = "2023-04-07 17:10:19 +0000";
layers = (
{
layerId = "75B71696-F68C-493E-998D-CC33CA41914E";
shapes = (
{
closed = 1;
nodes = (
(594,822,l),
(594,449,l),
(574,449,l),
(558,515,l),
(550,513,o),
(540,511,o),
(527,510,c),
(552,590,o),
(549,641,o),
(549,813,c),
(45,813,l),
(45,606,l),
(306,606,l),
(306,585,o),
(298,563,o),
(290,541,c),
(508,509,l),
(405,500,o),
(203,500,o),
(18,500,c),
(18,320,l),
(182,320,l),
(177,306,o),
(172,292,o),
(167,275,c),
(329,242,l),
(45,242,l),
(45,4,l),
(585,4,l),
(585,-42,l),
(864,-42,l),
(864,242,l),
(385,242,l),
(393,264,o),
(401,293,o),
(408,324,c),
(440,325,o),
(469,326,o),
(495,328,c),
(495,296,l),
(594,296,l),
(594,265,l),
(864,265,l),
(864,822,l)
);
}
);
width = 882;
}
);
unicode = 44425;
},
{
glyphname = "gweon-ko";
lastChange = "2023-04-07 17:10:19 +0000";
layers = (
{
layerId = "75B71696-F68C-493E-998D-CC33CA41914E";
shapes = (
{
closed = 1;
nodes = (
(376,226,l),
(385,246,o),
(394,275,o),
(401,308,c),
(434,309,o),
(464,310,o),
(491,311,c),
(491,259,l),
(590,259,l),
(590,214,l),
(860,214,l),
(860,822,l),
(590,822,l),
(590,412,l),
(575,412,l),
(554,499,l),
(546,497,o),
(536,496,o),
(525,494,c),
(547,570,o),
(545,615,o),
(545,807,c),
(50,807,l),
(50,600,l),
(302,600,l),
(302,581,o),
(294,554,o),
(279,522,c),
(473,491,l),
(365,484,o),
(182,483,o),
(14,484,c),
(14,304,l),
(174,304,l),
(170,293,o),
(166,282,o),
(162,270,c),
(284,245,l),
(41,245,l),
(41,-42,l),
(869,-42,l),
(869,187,l),
(329,187,l),
(329,236,l)
);
}
);
width = 882;
}
);
unicode = 44428;
},
{
glyphname = "gweol-ko";
lastChange = "2023-04-07 17:10:19 +0000";
layers = (
{
layerId = "75B71696-F68C-493E-998D-CC33CA41914E";
shapes = (
{
closed = 1;
nodes = (
(151,371,l),
(147,359,o),
(142,347,o),
(138,333,c),
(283,303,l),
(34,303,l),
(34,195,l),
(395,195,l),
(395,177,l),
(34,177,l),
(34,7,ls),
(34,-91,o),
(849,-67,o),
(873,-10,c),
(847,192,l),
(845,194,l),
(839,190,o),
(770,136,o),
(489,124,c),
(489,142,l),
(748,153,o),
(844,208,o),
(844,220,cs),
(844,303,l),
(358,303,l),
(365,322,o),
(372,347,o),
(378,374,c),
(414,374,o),
(446,376,o),
(475,377,c),
(475,348,l),
(574,348,l),
(574,323,l),
(844,323,l),
(844,822,l),
(574,822,l),
(574,501,l),
(554,501,l),
(538,565,l),
(531,563,o),
(523,563,o),
(513,562,c),
(533,623,o),
(529,670,o),
(529,817,c),
(34,817,l),
(34,619,l),
(286,619,l),
(285,608,o),
(281,594,o),
(276,583,c),
(480,558,l),
(379,551,o),
(194,550,o),
(7,551,c),
(7,371,l)
);
}
);
width = 882;
}
);
unicode = 44432;
},
{
glyphname = "gweoss-ko";
lastChange = "2023-04-07 17:10:19 +0000";
layers = (
{
layerId = "75B71696-F68C-493E-998D-CC33CA41914E";
shapes = (
{
closed = 1;
nodes = (
(722,249,o),
(722,266,o),
(721,282,c),
(442,282,l),
(441,258,o),
(435,224,o),
(418,191,c),
(401,197,l),
(417,235,o),
(424,256,o),
(424,302,c),
(369,302,l),
(374,320,o),
(381,340,o),
(386,363,c),
(423,364,o),
(457,365,o),
(486,366,c),
(486,330,l),
(576,330,l),
(576,300,l),
(846,300,l),
(846,822,l),
(576,822,l),
(576,483,l),
(554,483,l),
(536,554,l),
(529,553,o),
(522,551,o),
(513,550,c),
(533,610,o),
(529,649,o),
(529,813,c),
(34,813,l),
(34,615,l),
(295,615,l),
(294,600,o),
(289,588,o),
(282,571,c),
(475,546,l),
(375,539,o),
(197,538,o),
(18,539,c),
(18,359,l),
(158,359,l),
(155,350,o),
(151,341,o),
(149,332,c),
(293,302,l),
(154,302,l),
(153,248,o),
(102,185,o),
(18,183,c),
(92,-49,l),
(172,-34,o),
(270,10,o),
(305,38,c),
(345,-49,l),
(461,-27,o),
(547,11,o),
(608,57,c),
(590,-13,l),
(671,-13,o),
(759,-26,o),
(810,-49,c),
(866,203,l),
(835,221,o),
(781,231,o),
(719,233,c)
);
}
);
width = 882;
}
);
unicode = 44444;
},
{
glyphname = "gweong-ko";
lastChange = "2023-04-07 17:10:19 +0000";
layers = (
{
layerId = "75B71696-F68C-493E-998D-CC33CA41914E";
shapes = (
{
closed = 1;
nodes = (
(855,822,l),
(585,822,l),
(585,469,l),
(563,469,l),
(545,541,l),
(536,539,o),
(526,537,o),
(513,536,c),
(533,597,o),
(529,639,o),
(529,813,c),
(34,813,l),
(34,618,l),
(286,618,l),
(285,599,o),
(280,580,o),
(272,558,c),
(477,534,l),
(371,527,o),
(184,526,o),
(9,527,c),
(9,347,l),
(158,347,l),
(156,338,o),
(152,328,o),
(149,317,c),
(275,285,l),
(209,285,ls),
(110,284,o),
(32,210,o),
(32,118,cs),
(32,17,o),
(109,-51,o),
(209,-51,cs),
(692,-51,ls),
(794,-52,o),
(869,15,o),
(869,118,cs),
(869,194,o),
(821,263,o),
(740,281,c),
(855,281,l)
);
},
{
closed = 1;
nodes = (
(425,351,o),
(457,352,o),
(486,354,c),
(486,316,l),
(585,316,l),
(585,285,l),
(371,285,l),
(377,303,o),
(383,326,o),
(388,350,c)
);
},
{
closed = 1;
nodes = (
(279,126,o),
(275,126,o),
(275,135,cs),
(275,144,o),
(279,144,o),
(284,144,cs),
(617,144,ls),
(621,144,o),
(626,144,o),
(626,135,cs),
(626,126,o),
(621,126,o),
(617,126,cs),
(284,126,ls)
);
}
);
width = 882;
}
);
unicode = 44445;
},
{
glyphname = "gwe-ko";
lastChange = "2023-04-07 17:10:19 +0000";
layers = (
{
layerId = "75B71696-F68C-493E-998D-CC33CA41914E";
shapes = (
{
closed = 1;
nodes = (
(864,-42,l),
(864,822,l),
(666,822,l),
(666,-42,l)
);
},
{
closed = 1;
nodes = (
(419,412,l),
(410,410,o),
(401,409,o),
(391,408,c),
(409,461,o),
(419,527,o),
(419,779,c),
(23,779,l),
(23,545,l),
(194,545,l),
(194,508,o),
(185,478,o),
(167,437,c),
(352,403,l),
(280,398,o),
(173,397,o),
(9,398,c),
(9,191,l),
(96,191,l),
(91,120,o),
(79,47,o),
(64,0,c),
(293,-37,l),
(311,13,o),
(326,101,o),
(331,195,c),
(378,198,l),
(378,79,l),
(455,79,l),
(455,-24,l),
(644,-24,l),
(644,804,l),
(455,804,l),
(455,259,l),
(438,259,l)
);
}
);
width = 882;
}
);
unicode = 44452;
},
{
glyphname = "gwes-ko";
lastChange = "2023-04-07 17:10:19 +0000";
layers = (
{
layerId = "75B71696-F68C-493E-998D-CC33CA41914E";
shapes = (
{
closed = 1;
nodes = (
(684,245,l),
(864,245,l),
(864,822,l),
(684,822,l)
);
},
{
closed = 1;
nodes = (
(599,239,o),
(600,250,o),
(599,263,c),
(334,263,l),
(343,287,o),
(351,320,o),
(357,353,c),
(414,356,l),
(414,310,l),
(491,310,l),
(491,283,l),
(662,283,l),
(662,813,l),
(491,813,l),
(491,463,l),
(472,463,l),
(452,542,l),
(445,540,o),
(437,539,o),
(428,537,c),
(447,591,o),
(446,635,o),
(446,804,c),
(32,804,l),
(32,606,l),
(230,606,l),
(230,593,o),
(223,578,o),
(216,563,c),
(383,533,l),
(293,527,o),
(151,527,o),
(9,531,c),
(9,351,l),
(136,351,l),
(129,330,o),
(122,311,o),
(113,288,c),
(311,247,l),
(270,194,o),
(133,191,o),
(36,190,c),
(62,-42,l),
(236,-43,o),
(384,0,o),
(481,67,c),
(471,1,l),
(626,3,o),
(753,-13,o),
(832,-42,c),
(873,188,l),
(811,210,o),
(715,222,o),
(598,227,c)
);
}
);
width = 882;
}
);
unicode = 44471;
},
{
glyphname = "gwess-ko";
lastChange = "2023-04-07 17:10:19 +0000";
layers = (
{
layerId = "75B71696-F68C-493E-998D-CC33CA41914E";
shapes = (
{
closed = 1;
nodes = (
(721,228,o),
(722,236,o),
(722,245,c),
(864,245,l),
(864,822,l),
(684,822,l),
(684,255,l),
(442,255,l),
(441,247,o),
(430,203,o),
(415,182,c),
(399,188,l),
(418,223,o),
(425,256,o),
(425,275,c),
(328,275,l),
(336,297,o),
(344,326,o),
(350,356,c),
(414,359,l),
(414,301,l),
(491,301,l),
(491,274,l),
(662,274,l),
(662,813,l),
(491,813,l),
(491,454,l),
(475,454,l),
(452,545,l),
(445,544,o),
(437,543,o),
(428,541,c),
(447,594,o),
(446,635,o),
(446,804,c),
(32,804,l),
(32,606,l),
(230,606,l),
(230,593,o),
(224,579,o),
(217,566,c),
(383,536,l),
(293,530,o),
(151,531,o),
(9,535,c),
(9,355,l),
(49,355,o),
(88,355,o),
(126,355,c),
(108,306,l),
(257,275,l),
(136,275,l),
(135,230,o),
(84,185,o),
(9,174,c),
(83,-58,l),
(163,-43,o),
(261,1,o),
(296,29,c),
(345,-58,l),
(458,-37,o),
(543,-2,o),
(604,41,c),
(589,-22,l),
(670,-22,o),
(766,-35,o),
(817,-58,c),
(870,189,l),
(841,206,o),
(783,216,o),
(720,219,c)
);
}
);
width = 882;
}
);
unicode = 44472;
},
{
glyphname = "gwi-ko";
lastChange = "2023-04-07 17:10:19 +0000";
layers = (
{
layerId = "75B71696-F68C-493E-998D-CC33CA41914E";
shapes = (
{
closed = 1;
nodes = (
(560,399,l),
(551,397,o),
(540,395,o),
(526,394,c),
(544,448,o),
(554,523,o),
(554,792,c),
(50,792,l),
(50,558,l),
(311,558,l),
(311,530,o),
(302,482,o),
(280,432,c),
(486,391,l),
(377,384,o),
(190,383,o),
(18,384,c),
(18,168,l),
(186,168,l),
(178,104,o),
(165,39,o),
(149,-4,c),
(392,-50,l),
(410,-3,o),
(428,82,o),
(436,173,c),
(508,176,o),
(564,179,o),
(594,185,c),
(594,-42,l),
(864,-42,l),
(864,822,l),
(594,822,l),
(594,234,l)
);
}
);
width = 882;
}
);
unicode = 44480;
},
{
glyphname = "gwig-ko";
lastChange = "2023-04-07 17:10:19 +0000";
layers = (
{
layerId = "75B71696-F68C-493E-998D-CC33CA41914E";
shapes = (
{
closed = 1;
nodes = (
(594,822,l),
(594,371,l),
(558,515,l),
(550,513,o),
(540,511,o),
(527,510,c),
(552,590,o),
(549,641,o),
(549,813,c),
(45,813,l),
(45,606,l),
(306,606,l),
(306,585,o),
(298,563,o),
(290,541,c),
(508,509,l),
(405,500,o),
(203,500,o),
(18,500,c),
(18,320,l),
(179,320,l),
(175,309,o),
(171,297,o),
(167,284,c),
(329,251,l),
(45,251,l),
(45,13,l),
(585,13,l),
(585,-42,l),
(864,-42,l),
(864,251,l),
(385,251,l),
(392,271,o),
(401,296,o),
(406,324,c),
(492,327,o),
(561,330,o),
(594,337,c),
(594,274,l),
(864,274,l),
(864,822,l)
);
}
);
width = 882;
}
);
unicode = 44481;
},
{
glyphname = "gwin-ko";
lastChange = "2023-04-07 17:10:19 +0000";
layers = (
{
layerId = "75B71696-F68C-493E-998D-CC33CA41914E";
shapes = (
{
closed = 1;
nodes = (
(394,230,l),
(402,249,o),
(411,277,o),
(419,308,c),
(497,311,o),
(558,314,o),
(590,320,c),
(590,214,l),
(860,214,l),
(860,822,l),
(590,822,l),
(590,355,l),
(554,499,l),
(546,497,o),
(536,496,o),
(525,494,c),
(547,570,o),
(545,615,o),
(545,807,c),
(50,807,l),
(50,600,l),
(302,600,l),
(302,581,o),
(294,554,o),
(279,522,c),
(473,491,l),
(365,484,o),
(182,483,o),
(14,484,c),
(14,304,l),
(190,304,l),
(187,295,o),
(184,285,o),
(180,275,c),
(302,249,l),
(41,249,l),
(41,-42,l),
(869,-42,l),
(869,187,l),
(329,187,l),
(329,244,l)
);
}
);
width = 882;
}
);
unicode = 44484;
},
{
glyphname = "gwil-ko";
lastChange = "2023-04-07 17:10:19 +0000";
layers = (
{
layerId = "75B71696-F68C-493E-998D-CC33CA41914E";
shapes = (
{
closed = 1;
nodes = (
(174,369,l),
(171,361,o),
(167,351,o),
(165,342,c),
(311,312,l),
(34,312,l),
(34,204,l),
(396,204,l),
(396,186,l),
(34,186,l),
(34,7,ls),
(34,-91,o),
(849,-67,o),
(873,-10,c),
(847,192,l),
(845,194,l),
(839,190,o),
(770,136,o),
(489,124,c),
(489,142,l),
(748,153,o),
(844,208,o),
(844,220,cs),
(844,312,l),
(385,312,l),
(391,329,o),
(397,350,o),
(402,373,c),
(482,375,o),
(543,379,o),
(574,385,c),
(574,334,l),
(844,334,l),
(844,822,l),
(574,822,l),
(574,419,l),
(538,563,l),
(531,562,o),
(523,561,o),
(513,560,c),
(533,621,o),
(529,668,o),
(529,815,c),
(34,815,l),
(34,617,l),
(295,617,l),
(294,606,o),
(290,592,o),
(285,581,c),
(482,556,l),
(383,549,o),
(203,548,o),
(16,549,c),
(16,369,l)
);
}
);
width = 882;
}
);
unicode = 44488;
},
{
glyphname = "gwim-ko";
lastChange = "2023-04-07 17:10:19 +0000";
layers = (
{
layerId = "75B71696-F68C-493E-998D-CC33CA41914E";
shapes = (
{
closed = 1;
nodes = (
(585,822,l),
(585,398,l),
(549,542,l),
(541,540,o),
(530,538,o),
(518,537,c),
(537,598,o),
(534,640,o),
(534,813,c),
(48,813,l),
(48,615,l),
(300,615,l),
(299,596,o),
(293,580,o),
(285,558,c),
(478,534,l),
(373,527,o),
(191,527,o),
(18,527,c),
(18,347,l),
(73,347,o),
(127,347,o),
(180,347,c),
(167,308,l),
(321,273,l),
(41,273,l),
(41,-42,l),
(855,-42,l),
(855,273,l),
(386,273,l),
(394,293,o),
(401,321,o),
(408,351,c),
(489,354,o),
(553,357,o),
(585,364,c),
(585,294,l),
(855,294,l),
(855,822,l)
);
},
{
closed = 1;
nodes = (
(311,138,l),
(585,138,l),
(585,120,l),
(311,120,l)
);
}
);
width = 882;
}
);
unicode = 44496;
},
{
glyphname = "gwib-ko";
lastChange = "2023-04-07 17:10:19 +0000";
layers = (
{
layerId = "75B71696-F68C-493E-998D-CC33CA41914E";
shapes = (
{
closed = 1;
nodes = (
(585,822,l),
(585,403,l),
(549,547,l),
(542,545,o),
(532,545,o),
(519,543,c),
(539,602,o),
(536,645,o),
(536,813,c),
(50,813,l),
(50,615,l),
(302,615,l),
(301,599,o),
(295,582,o),
(287,563,c),
(473,539,l),
(367,533,o),
(185,532,o),
(14,533,c),
(14,353,l),
(183,353,l),
(180,344,o),
(176,335,o),
(174,326,c),
(289,300,l),
(41,300,l),
(41,-42,l),
(855,-42,l),
(855,291,l),
(576,291,l),
(576,260,l),
(320,260,l),
(320,293,l),
(388,277,l),
(397,296,o),
(405,325,o),
(412,356,c),
(491,359,o),
(554,363,o),
(585,369,c),
(585,312,l),
(855,312,l),
(855,822,l)
);
},
{
closed = 1;
nodes = (
(320,102,l),
(320,134,l),
(576,134,l),
(576,102,l)
);
}
);
width = 882;
}
);
unicode = 44497;
},
{
glyphname = "gwis-ko";
lastChange = "2023-04-07 17:10:19 +0000";
layers = (
{
layerId = "75B71696-F68C-493E-998D-CC33CA41914E";
shapes = (
{
closed = 1;
nodes = (
(581,244,o),
(582,258,o),
(581,273,c),
(846,273,l),
(846,822,l),
(576,822,l),
(576,389,l),
(540,533,l),
(532,531,o),
(521,529,o),
(509,528,c),
(528,589,o),
(525,632,o),
(525,813,c),
(39,813,l),
(39,615,l),
(291,615,l),
(290,587,o),
(284,571,o),
(276,549,c),
(469,525,l),
(364,518,o),
(182,517,o),
(9,518,c),
(9,338,l),
(65,338,o),
(122,338,o),
(176,338,c),
(158,290,l),
(293,259,l),
(250,203,o),
(114,191,o),
(18,190,c),
(44,-42,l),
(219,-43,o),
(366,4,o),
(463,74,c),
(453,5,l),
(608,7,o),
(739,-11,o),
(814,-42,c),
(855,188,l),
(795,211,o),
(697,225,o),
(578,230,c)
);
},
{
closed = 1;
nodes = (
(384,277,l),
(391,296,o),
(396,319,o),
(401,342,c),
(481,345,o),
(544,348,o),
(576,355,c),
(576,277,l)
);
}
);
width = 882;
}
);
unicode = 44499;
},
{
glyphname = "gwing-ko";
lastChange = "2023-04-07 17:10:19 +0000";
layers = (
{
layerId = "75B71696-F68C-493E-998D-CC33CA41914E";
shapes = (
{
closed = 1;
nodes = (
(851,822,l),
(581,822,l),
(581,398,l),
(545,542,l),
(536,540,o),
(526,538,o),
(513,537,c),
(533,598,o),
(529,640,o),
(529,813,c),
(43,813,l),
(43,615,l),
(295,615,l),
(294,596,o),
(289,580,o),
(281,558,c),
(473,534,l),
(369,527,o),
(191,527,o),
(18,527,c),
(18,347,l),
(70,347,o),
(122,347,o),
(173,347,c),
(162,317,l),
(261,294,l),
(204,294,ls),
(105,293,o),
(27,219,o),
(27,122,cs),
(27,17,o),
(104,-51,o),
(204,-51,cs),
(688,-51,ls),
(789,-52,o),
(864,15,o),
(864,122,cs),
(864,203,o),
(816,272,o),
(735,290,c),
(851,290,l)
);
},
{
closed = 1;
nodes = (
(483,354,o),
(548,357,o),
(581,364,c),
(581,294,l),
(386,294,l),
(392,311,o),
(397,330,o),
(401,351,c)
);
},
{
closed = 1;
nodes = (
(275,131,o),
(270,131,o),
(270,140,cs),
(270,149,o),
(275,149,o),
(279,149,cs),
(613,149,ls),
(617,149,o),
(622,149,o),
(622,140,cs),
(622,131,o),
(617,131,o),
(613,131,cs),
(279,131,ls)
);
}
);
width = 882;
}
);
unicode = 44501;
},
{
glyphname = "gyu-ko";
lastChange = "2023-04-07 17:10:19 +0000";
layers = (
{
layerId = "75B71696-F68C-493E-998D-CC33CA41914E";
shapes = (
{
closed = 1;
nodes = (
(826,455,o),
(828,500,o),
(828,813,c),
(45,813,l),
(45,552,l),
(558,552,l),
(555,507,o),
(549,482,o),
(532,432,c),
(772,385,l),
(18,385,l),
(18,133,l),
(126,133,l),
(126,-42,l),
(396,-42,l),
(396,133,l),
(486,133,l),
(486,-42,l),
(756,-42,l),
(756,133,l),
(864,133,l),
(864,385,l),
(806,385,l)
);
}
);
width = 882;
}
);
unicode = 44508;
},
{
glyphname = "gyun-ko";
lastChange = "2023-04-07 17:10:19 +0000";
layers = (
{
layerId = "75B71696-F68C-493E-998D-CC33CA41914E";
shapes = (
{
closed = 1;
nodes = (
(869,268,l),
(869,466,l),
(815,466,l),
(836,526,o),
(833,635,o),
(833,822,c),
(41,822,l),
(41,606,l),
(563,606,l),
(563,563,o),
(554,540,o),
(545,508,c),
(752,466,l),
(14,466,l),
(14,268,l),
(221,268,l),
(221,237,l),
(41,237,l),
(41,-42,l),
(851,-42,l),
(851,174,l),
(320,174,l),
(320,201,l),
(464,201,l),
(464,268,l),
(518,268,l),
(518,201,l),
(761,201,l),
(761,268,l)
);
}
);
width = 882;
}
);
unicode = 44512;
},
{
glyphname = "gyul-ko";
lastChange = "2023-04-07 17:10:19 +0000";
layers = (
{
layerId = "75B71696-F68C-493E-998D-CC33CA41914E";
shapes = (
{
closed = 1;
nodes = (
(140,351,l),
(140,320,l),
(40,320,l),
(40,212,l),
(401,212,l),
(401,194,l),
(40,194,l),
(40,7,ls),
(40,-91,o),
(844,-67,o),
(869,-10,c),
(842,183,l),
(841,185,l),
(834,181,o),
(768,134,o),
(493,124,c),
(493,142,l),
(746,152,o),
(840,199,o),
(840,211,cs),
(840,320,l),
(743,320,l),
(743,351,l),
(869,351,l),
(869,531,l),
(814,531,l),
(832,587,o),
(833,669,o),
(833,832,c),
(41,832,l),
(41,616,l),
(563,616,l),
(563,603,o),
(556,581,o),
(549,563,c),
(753,531,l),
(14,531,l),
(14,351,l)
);
},
{
closed = 1;
nodes = (
(383,351,l),
(500,351,l),
(500,320,l),
(383,320,l)
);
}
);
width = 882;
}
);
unicode = 44516;
},
{
glyphname = "gyum-ko";
lastChange = "2023-04-07 17:10:19 +0000";
layers = (
{
layerId = "75B71696-F68C-493E-998D-CC33CA41914E";
shapes = (
{
closed = 1;
nodes = (
(816,495,l),
(836,554,o),
(833,662,o),
(833,822,c),
(41,822,l),
(41,606,l),
(563,606,l),
(563,576,o),
(555,563,o),
(545,535,c),
(743,495,l),
(14,495,l),
(14,315,l),
(140,315,l),
(140,283,l),
(41,283,l),
(41,-43,l),
(842,-43,l),
(842,283,l),
(743,283,l),
(743,315,l),
(869,315,l),
(869,495,l)
);
},
{
closed = 1;
nodes = (
(383,315,l),
(500,315,l),
(500,283,l),
(383,283,l)
);
},
{
closed = 1;
nodes = (
(302,156,l),
(581,156,l),
(581,138,l),
(302,138,l)
);
}
);
width = 882;
}
);
unicode = 44524;
},
{
glyphname = "gyub-ko";
lastChange = "2023-04-07 17:10:19 +0000";
layers = (
{
layerId = "75B71696-F68C-493E-998D-CC33CA41914E";
shapes = (
{
closed = 1;
nodes = (
(817,509,l),
(836,567,o),
(833,662,o),
(833,832,c),
(41,832,l),
(41,616,l),
(563,616,l),
(563,585,o),
(554,563,o),
(547,540,c),
(743,509,l),
(14,509,l),
(14,329,l),
(158,329,l),
(158,284,l),
(36,284,l),
(36,-42,l),
(846,-42,l),
(846,284,l),
(725,284,l),
(725,329,l),
(869,329,l),
(869,509,l)
);
},
{
closed = 1;
nodes = (
(297,245,l),
(297,277,l),
(401,277,l),
(401,329,l),
(482,329,l),
(482,277,l),
(585,277,l),
(585,245,l)
);
},
{
closed = 1;
nodes = (
(585,141,l),
(585,106,l),
(297,106,l),
(297,141,l)
);
}
);
width = 882;
}
);
unicode = 44525;
},
{
glyphname = "geu-ko";
lastChange = "2023-04-07 17:10:19 +0000";
layers = (
{
layerId = "75B71696-F68C-493E-998D-CC33CA41914E";
shapes = (
{
closed = 1;
nodes = (
(822,316,o),
(828,365,o),
(828,773,c),
(45,773,l),
(45,512,l),
(558,512,l),
(558,426,o),
(549,370,o),
(518,284,c),
(762,237,l),
(18,237,l),
(18,-15,l),
(864,-15,l),
(864,237,l),
(797,237,l)
);
}
);
width = 882;
}
);
unicode = 44536;
},
{
glyphname = "geug-ko";
lastChange = "2023-04-07 17:10:19 +0000";
layers = (
{
layerId = "75B71696-F68C-493E-998D-CC33CA41914E";
shapes = (
{
closed = 1;
nodes = (
(836,536,o),
(833,653,o),
(833,822,c),
(41,822,l),
(41,606,l),
(563,606,l),
(563,572,o),
(554,545,o),
(545,517,c),
(752,475,l),
(14,475,l),
(14,277,l),
(869,277,l),
(869,475,l),
(815,475,l)
);
},
{
closed = 1;
nodes = (
(563,-42,l),
(842,-42,l),
(842,250,l),
(32,250,l),
(32,39,l),
(563,39,l)
);
}
);
width = 882;
}
);
unicode = 44537;
},
{
glyphname = "geun-ko";
lastChange = "2023-04-07 17:10:19 +0000";
layers = (
{
layerId = "75B71696-F68C-493E-998D-CC33CA41914E";
shapes = (
{
closed = 1;
nodes = (
(836,521,o),
(833,635,o),
(833,822,c),
(41,822,l),
(41,606,l),
(563,606,l),
(563,563,o),
(554,540,o),
(543,503,c),
(752,462,l),
(14,462,l),
(14,264,l),
(869,264,l),
(869,462,l),
(815,462,l)
);
},
{
closed = 1;
nodes = (
(41,-42,l),
(851,-42,l),
(851,174,l),
(320,174,l),
(320,237,l),
(41,237,l)
);
}
);
width = 882;
}
);
unicode = 44540;
},
{
glyphname = "geud-ko";
lastChange = "2023-04-07 17:10:19 +0000";
layers = (
{
layerId = "75B71696-F68C-493E-998D-CC33CA41914E";
shapes = (
{
closed = 1;
nodes = (
(836,551,o),
(833,662,o),
(833,822,c),
(41,822,l),
(41,606,l),
(563,606,l),
(563,573,o),
(554,555,o),
(545,530,c),
(743,491,l),
(14,491,l),
(14,311,l),
(869,311,l),
(869,491,l),
(816,491,l)
);
},
{
closed = 1;
nodes = (
(847,284,l),
(41,284,l),
(41,252,l),
(40,252,l),
(40,-42,l),
(855,-42,l),
(855,124,l),
(319,124,l),
(319,153,l),
(846,153,l)
);
}
);
width = 882;
}
);
unicode = 44543;
},
{
glyphname = "geul-ko";
lastChange = "2023-04-07 17:10:19 +0000";
layers = (
{
layerId = "75B71696-F68C-493E-998D-CC33CA41914E";
shapes = (
{
closed = 1;
nodes = (
(832,574,o),
(833,653,o),
(833,822,c),
(41,822,l),
(41,610,l),
(563,610,l),
(563,591,o),
(556,569,o),
(549,552,c),
(753,519,l),
(14,519,l),
(14,339,l),
(869,339,l),
(869,519,l),
(814,519,l)
);
},
{
closed = 1;
nodes = (
(40,206,l),
(401,206,l),
(401,188,l),
(40,188,l),
(40,7,ls),
(40,-91,o),
(844,-67,o),
(869,-10,c),
(842,183,l),
(841,185,l),
(834,181,o),
(768,134,o),
(493,124,c),
(493,142,l),
(746,152,o),
(840,199,o),
(840,211,cs),
(840,314,l),
(40,314,l)
);
}
);
width = 882;
}
);
unicode = 44544;
},
{
glyphname = "geulg-ko";
lastChange = "2023-04-07 17:10:19 +0000";
layers = (
{
layerId = "75B71696-F68C-493E-998D-CC33CA41914E";
shapes = (
{
closed = 1;
nodes = (
(837,554,o),
(833,660,o),
(833,822,c),
(41,822,l),
(41,610,l),
(563,610,l),
(563,581,o),
(554,559,o),
(543,531,c),
(771,496,l),
(14,496,l),
(14,316,l),
(869,316,l),
(869,496,l),
(815,496,l)
);
},
{
closed = 1;
nodes = (
(455,130,o),
(380,107,o),
(274,112,c),
(274,130,l),
(389,125,o),
(437,151,o),
(437,171,cs),
(437,292,l),
(32,292,l),
(32,184,l),
(194,184,l),
(194,166,l),
(32,166,l),
(34,-2,ls),
(34,-83,o),
(451,-74,o),
(509,-24,c),
(481,80,l),
(581,80,l),
(581,-42,l),
(851,-42,l),
(851,292,l),
(455,292,l),
(455,171,ls)
);
}
);
width = 882;
}
);
unicode = 44545;
},
{
glyphname = "geulm-ko";
lastChange = "2023-04-07 17:10:19 +0000";
layers = (
{
layerId = "75B71696-F68C-493E-998D-CC33CA41914E";
shapes = (
{
closed = 1;
nodes = (
(837,554,o),
(833,659,o),
(833,823,c),
(41,823,l),
(41,607,l),
(563,607,l),
(563,578,o),
(553,554,o),
(544,529,c),
(761,496,l),
(14,496,l),
(14,316,l),
(869,316,l),
(869,496,l),
(816,496,l)
);
},
{
closed = 1;
nodes = (
(428,147,l),
(419,140,o),
(372,107,o),
(275,112,c),
(275,130,l),
(372,125,o),
(429,167,o),
(429,171,cs),
(429,292,l),
(32,292,l),
(32,184,l),
(203,184,l),
(203,166,l),
(32,166,l),
(35,-6,l),
(43,-72,o),
(366,-72,o),
(458,-42,c),
(851,-42,l),
(851,292,l),
(458,292,l),
(458,40,l),
(429,146,l)
);
},
{
closed = 1;
nodes = (
(661,84,l),
(643,84,l),
(643,192,l),
(661,192,l)
);
}
);
width = 882;
}
);
unicode = 44546;
},
{
glyphname = "geulh-ko";
lastChange = "2023-04-07 17:10:19 +0000";
layers = (
{
layerId = "75B71696-F68C-493E-998D-CC33CA41914E";
shapes = (
{
closed = 1;
nodes = (
(837,563,o),
(833,668,o),
(833,822,c),
(41,822,l),
(41,606,l),
(563,606,l),
(563,583,o),
(553,561,o),
(544,540,c),
(772,505,l),
(14,505,l),
(14,325,l),
(869,325,l),
(869,505,l),
(815,505,l)
);
},
{
closed = 1;
nodes = (
(532,276,l),
(451,276,l),
(451,156,l),
(485,156,l),
(465,143,o),
(452,120,o),
(452,79,cs),
(452,71,l),
(428,137,l),
(428,138,l),
(419,131,o),
(371,98,o),
(274,103,c),
(274,121,l),
(371,116,o),
(428,158,o),
(428,162,cs),
(428,298,l),
(32,298,l),
(32,190,l),
(203,190,l),
(203,172,l),
(32,172,l),
(34,-6,l),
(43,-78,o),
(436,-62,o),
(486,-24,c),
(501,-35,o),
(523,-42,o),
(555,-42,cs),
(717,-42,ls),
(841,-43,o),
(851,18,o),
(851,79,cs),
(851,120,o),
(835,143,o),
(814,156,c),
(851,156,l),
(851,276,l),
(766,276,l),
(766,307,l),
(532,307,l)
);
},
{
closed = 1;
nodes = (
(582,85,o),
(578,85,o),
(578,94,cs),
(578,103,o),
(582,103,o),
(587,103,cs),
(707,103,ls),
(710,103,o),
(716,103,o),
(716,94,cs),
(716,85,o),
(710,85,o),
(707,85,cs),
(587,85,ls)
);
}
);
width = 882;
}
);
unicode = 44551;
},
{
glyphname = "geum-ko";
lastChange = "2023-04-07 17:10:19 +0000";
layers = (
{
layerId = "75B71696-F68C-493E-998D-CC33CA41914E";
shapes = (
{
closed = 1;
nodes = (
(836,549,o),
(833,658,o),
(833,822,c),
(41,822,l),
(41,606,l),
(563,606,l),
(563,576,o),
(555,557,o),
(545,529,c),
(743,490,l),
(14,490,l),
(14,310,l),
(869,310,l),
(869,490,l),
(816,490,l)
);
},
{
closed = 1;
nodes = (
(842,284,l),
(41,284,l),
(41,-43,l),
(842,-43,l)
);
},
{
closed = 1;
nodes = (
(581,137,l),
(302,137,l),
(302,155,l),
(581,155,l)
);
}
);
width = 882;
}
);
unicode = 44552;
},
{
glyphname = "geub-ko";
lastChange = "2023-04-07 17:10:19 +0000";
layers = (
{
layerId = "75B71696-F68C-493E-998D-CC33CA41914E";
shapes = (
{
closed = 1;
nodes = (
(836,560,o),
(833,662,o),
(833,832,c),
(41,832,l),
(41,616,l),
(563,616,l),
(563,581,o),
(553,559,o),
(544,533,c),
(743,502,l),
(14,502,l),
(14,322,l),
(869,322,l),
(869,502,l),
(817,502,l)
);
},
{
closed = 1;
nodes = (
(306,297,l),
(36,297,l),
(36,-42,l),
(846,-42,l),
(846,297,l),
(576,297,l),
(576,254,l),
(306,254,l)
);
},
{
closed = 1;
nodes = (
(576,150,l),
(576,115,l),
(306,115,l),
(306,150,l)
);
}
);
width = 882;
}
);
unicode = 44553;
},
{
glyphname = "geus-ko";
lastChange = "2023-04-07 17:10:19 +0000";
layers = (
{
layerId = "75B71696-F68C-493E-998D-CC33CA41914E";
shapes = (
{
closed = 1;
nodes = (
(836,542,o),
(833,644,o),
(833,822,c),
(41,822,l),
(41,606,l),
(563,606,l),
(563,572,o),
(554,548,o),
(545,525,c),
(752,483,l),
(14,483,l),
(14,303,l),
(869,303,l),
(869,483,l),
(815,483,l)
);
},
{
closed = 1;
nodes = (
(284,213,o),
(125,199,o),
(23,194,c),
(49,-42,l),
(220,-44,o),
(374,10,o),
(471,86,c),
(457,-10,l),
(632,-10,o),
(786,-35,o),
(827,-51,c),
(869,181,l),
(823,198,o),
(706,212,o),
(573,217,c),
(580,237,o),
(582,257,o),
(581,276,c),
(302,276,l)
);
}
);
width = 882;
}
);
unicode = 44555;
},
{
glyphname = "geung-ko";
lastChange = "2023-04-07 17:10:19 +0000";
layers = (
{
layerId = "75B71696-F68C-493E-998D-CC33CA41914E";
shapes = (
{
closed = 1;
nodes = (
(836,554,o),
(833,654,o),
(833,822,c),
(41,822,l),
(41,606,l),
(563,606,l),
(563,583,o),
(554,558,o),
(545,535,c),
(743,495,l),
(14,495,l),
(14,306,l),
(869,306,l),
(869,495,l),
(816,495,l)
);
},
{
closed = 1;
nodes = (
(86,284,o),
(17,204,o),
(17,120,cs),
(17,17,o),
(86,-52,o),
(185,-52,cs),
(698,-52,ls),
(800,-52,o),
(866,15,o),
(866,120,cs),
(866,204,o),
(807,284,o),
(698,284,cs),
(185,284,ls)
);
},
{
closed = 1;
nodes = (
(282,128,o),
(277,128,o),
(277,137,cs),
(277,146,o),
(282,146,o),
(286,146,cs),
(596,146,ls),
(599,146,o),
(605,146,o),
(605,137,cs),
(605,128,o),
(599,128,o),
(596,128,cs),
(286,128,ls)
);
}
);
width = 882;
}
);
unicode = 44557;
},
{
glyphname = "geuc-ko";
lastChange = "2023-04-07 17:10:19 +0000";
layers = (
{
layerId = "75B71696-F68C-493E-998D-CC33CA41914E";
shapes = (
{
closed = 1;
nodes = (
(832,572,o),
(833,652,o),
(833,822,c),
(41,822,l),
(41,606,l),
(563,606,l),
(562,590,o),
(554,566,o),
(547,550,c),
(749,518,l),
(14,518,l),
(14,338,l),
(869,338,l),
(869,518,l),
(814,518,l)
);
},
{
closed = 1;
nodes = (
(835,287,l),
(583,287,l),
(583,297,o),
(583,307,o),
(582,318,c),
(303,318,l),
(303,307,o),
(304,296,o),
(303,287,c),
(39,287,l),
(39,167,l),
(253,167,l),
(189,140,o),
(101,138,o),
(30,137,c),
(55,-48,l),
(232,-48,o),
(381,-15,o),
(474,49,c),
(464,-20,l),
(639,-15,o),
(775,-35,o),
(816,-46,c),
(849,123,l),
(801,136,o),
(694,147,o),
(562,147,c),
(565,153,o),
(568,160,o),
(571,167,c),
(835,167,l)
);
}
);
width = 882;
}
);
unicode = 44559;
},
{
glyphname = "geut-ko";
lastChange = "2023-04-07 17:10:19 +0000";
layers = (
{
layerId = "75B71696-F68C-493E-998D-CC33CA41914E";
shapes = (
{
closed = 1;
nodes = (
(832,572,o),
(833,652,o),
(833,822,c),
(41,822,l),
(41,606,l),
(563,606,l),
(562,590,o),
(554,566,o),
(547,550,c),
(749,518,l),
(14,518,l),
(14,338,l),
(869,338,l),
(869,518,l),
(814,518,l)
);
},
{
closed = 1;
nodes = (
(832,196,l),
(311,196,l),
(311,219,l),
(841,219,l),
(842,312,l),
(41,312,l),
(41,-42,l),
(850,-42,l),
(850,93,l),
(311,93,l),
(311,115,l),
(831,115,l)
);
}
);
width = 882;
}
);
unicode = 44561;
},
{
glyphname = "geuh-ko";
lastChange = "2023-04-07 17:10:19 +0000";
layers = (
{
layerId = "75B71696-F68C-493E-998D-CC33CA41914E";
shapes = (
{
closed = 1;
nodes = (
(835,591,o),
(833,658,o),
(833,822,c),
(41,822,l),
(41,606,l),
(563,606,l),
(561,588,o),
(556,576,o),
(550,563,c),
(750,537,l),
(14,537,l),
(14,357,l),
(869,357,l),
(869,537,l),
(816,537,l)
);
},
{
closed = 1;
nodes = (
(293,303,l),
(27,303,l),
(27,160,l),
(79,160,l),
(58,148,o),
(44,127,o),
(44,92,cs),
(44,10,o),
(98,-52,o),
(202,-52,cs),
(679,-52,ls),
(784,-53,o),
(839,8,o),
(839,92,cs),
(839,126,o),
(827,148,o),
(806,160,c),
(855,160,l),
(855,303,l),
(590,303,l),
(590,339,l),
(293,339,l)
);
},
{
closed = 1;
nodes = (
(296,110,o),
(292,110,o),
(292,119,cs),
(292,128,o),
(296,128,o),
(301,128,cs),
(583,128,ls),
(587,128,o),
(592,128,o),
(592,119,cs),
(592,110,o),
(587,110,o),
(583,110,cs),
(301,110,ls)
);
}
);
width = 882;
}
);
unicode = 44563;
},
{
glyphname = "gyi-ko";
lastChange = "2023-04-07 17:10:19 +0000";
layers = (
{
layerId = "75B71696-F68C-493E-998D-CC33CA41914E";
shapes = (
{
closed = 1;
nodes = (
(554,273,l),
(446,242,o),
(270,248,o),
(18,249,c),
(18,15,l),
(283,15,o),
(492,18,o),
(585,41,c),
(585,-42,l),
(855,-42,l),
(855,822,l),
(585,822,l),
(585,123,l)
);
},
{
closed = 1;
nodes = (
(545,379,o),
(551,446,o),
(551,774,c),
(43,774,l),
(43,540,l),
(308,540,l),
(308,485,o),
(308,440,o),
(274,345,c),
(518,296,l)
);
}
);
width = 882;
}
);
unicode = 44564;
},
{
glyphname = "gyin-ko";
lastChange = "2023-04-07 17:10:19 +0000";
layers = (
{
layerId = "75B71696-F68C-493E-998D-CC33CA41914E";
shapes = (
{
closed = 1;
nodes = (
(855,822,l),
(585,822,l),
(585,332,l),
(558,468,l),
(551,466,o),
(543,465,o),
(533,464,c),
(556,541,o),
(554,586,o),
(554,807,c),
(50,807,l),
(50,600,l),
(311,600,l),
(311,554,o),
(303,527,o),
(288,495,c),
(498,461,l),
(398,454,o),
(217,453,o),
(18,454,c),
(18,274,l),
(291,274,o),
(512,275,o),
(585,290,c),
(585,214,l),
(855,214,l)
);
},
{
closed = 1;
nodes = (
(45,250,l),
(45,-42,l),
(864,-42,l),
(864,187,l),
(333,187,l),
(333,250,l)
);
}
);
width = 882;
}
);
unicode = 44568;
},
{
glyphname = "gying-ko";
lastChange = "2023-04-07 17:10:19 +0000";
layers = (
{
layerId = "75B71696-F68C-493E-998D-CC33CA41914E";
shapes = (
{
closed = 1;
nodes = (
(846,822,l),
(576,822,l),
(576,384,l),
(549,518,l),
(542,517,o),
(534,515,o),
(523,513,c),
(547,592,o),
(545,660,o),
(545,813,c),
(41,813,l),
(41,606,l),
(302,606,l),
(302,584,o),
(297,564,o),
(288,541,c),
(498,509,l),
(400,498,o),
(216,496,o),
(9,497,c),
(9,317,l),
(280,317,o),
(501,314,o),
(576,337,c),
(576,293,l),
(211,293,ls),
(112,292,o),
(33,217,o),
(33,119,cs),
(33,17,o),
(111,-51,o),
(211,-51,cs),
(688,-51,ls),
(789,-52,o),
(864,15,o),
(864,119,cs),
(864,201,o),
(816,270,o),
(735,288,c),
(846,288,l)
);
},
{
closed = 1;
nodes = (
(281,127,o),
(276,127,o),
(276,136,cs),
(276,145,o),
(281,145,o),
(285,145,cs),
(613,145,ls),
(617,145,o),
(622,145,o),
(622,136,cs),
(622,127,o),
(617,127,o),
(613,127,cs),
(285,127,ls)
);
}
);
width = 882;
}
);
unicode = 44585;
},
{
glyphname = "gi-ko";
lastChange = "2023-04-07 17:10:19 +0000";
layers = (
{
layerId = "75B71696-F68C-493E-998D-CC33CA41914E";
shapes = (
{
closed = 1;
nodes = (
(279,525,l),
(275,400,o),
(208,282,o),
(27,282,c),
(59,-8,l),
(480,10,o),
(549,185,o),
(549,795,c),
(50,795,l),
(50,525,l)
);
},
{
closed = 1;
nodes = (
(855,-45,l),
(855,822,l),
(581,822,l),
(581,-45,l)
);
}
);
width = 882;
}
);
unicode = 44592;
},
{
glyphname = "gig-ko";
lastChange = "2023-04-07 17:10:19 +0000";
layers = (
{
layerId = "75B71696-F68C-493E-998D-CC33CA41914E";
shapes = (
{
closed = 1;
nodes = (
(855,313,l),
(855,822,l),
(585,822,l),
(585,313,l)
);
},
{
closed = 1;
nodes = (
(52,588,l),
(291,588,l),
(291,569,o),
(282,553,o),
(27,544,c),
(45,316,l),
(538,323,o),
(562,366,o),
(558,808,c),
(52,808,l)
);
},
{
closed = 1;
nodes = (
(68,52,l),
(576,52,l),
(576,-42,l),
(855,-42,l),
(855,291,l),
(68,291,l)
);
}
);
width = 882;
}
);
unicode = 44593;
},
{
glyphname = "gin-ko";
lastChange = "2023-04-07 17:10:19 +0000";
layers = (
{
layerId = "75B71696-F68C-493E-998D-CC33CA41914E";
shapes = (
{
closed = 1;
nodes = (
(583,232,l),
(853,232,l),
(853,822,l),
(583,822,l)
);
},
{
closed = 1;
nodes = (
(46,592,l),
(293,592,l),
(293,573,o),
(271,557,o),
(21,548,c),
(39,320,l),
(518,328,o),
(560,375,o),
(556,808,c),
(46,808,l)
);
},
{
closed = 1;
nodes = (
(52,295,l),
(52,-42,l),
(862,-42,l),
(862,196,l),
(340,196,l),
(340,295,l)
);
}
);
width = 882;
}
);
unicode = 44596;
},
{
glyphname = "gid-ko";
lastChange = "2023-04-07 17:10:19 +0000";
layers = (
{
layerId = "75B71696-F68C-493E-998D-CC33CA41914E";
shapes = (
{
closed = 1;
nodes = (
(581,345,l),
(851,345,l),
(851,822,l),
(581,822,l)
);
},
{
closed = 1;
nodes = (
(43,606,l),
(291,606,l),
(291,587,o),
(277,580,o),
(18,571,c),
(36,352,l),
(525,359,o),
(562,402,o),
(558,813,c),
(43,813,l)
);
},
{
closed = 1;
nodes = (
(851,179,l),
(851,323,l),
(54,323,l),
(54,-42,l),
(860,-42,l),
(860,150,l),
(333,150,l),
(333,179,l)
);
}
);
width = 882;
}
);
unicode = 44599;
},
{
glyphname = "gil-ko";
lastChange = "2023-04-07 17:10:19 +0000";
layers = (
{
layerId = "75B71696-F68C-493E-998D-CC33CA41914E";
shapes = (
{
closed = 1;
nodes = (
(842,372,l),
(842,822,l),
(572,822,l),
(572,372,l)
);
},
{
closed = 1;
nodes = (
(39,624,l),
(291,624,l),
(291,605,o),
(273,598,o),
(14,589,c),
(32,374,l),
(520,382,o),
(553,420,o),
(549,813,c),
(39,813,l)
);
},
{
closed = 1;
nodes = (
(54,225,l),
(401,225,l),
(401,207,l),
(54,207,l),
(54,7,ls),
(54,-91,o),
(846,-67,o),
(870,-10,c),
(844,192,l),
(842,194,l),
(836,190,o),
(769,136,o),
(494,124,c),
(494,142,l),
(747,153,o),
(842,208,o),
(842,220,cs),
(842,351,l),
(54,351,l)
);
}
);
width = 882;
}
);
unicode = 44600;
},
{
glyphname = "gilm-ko";
lastChange = "2023-04-07 17:10:19 +0000";
layers = (
{
layerId = "75B71696-F68C-493E-998D-CC33CA41914E";
shapes = (
{
closed = 1;
nodes = (
(855,377,l),
(855,822,l),
(594,822,l),
(594,377,l)
);
},
{
closed = 1;
nodes = (
(516,364,o),
(571,398,o),
(567,808,c),
(52,808,l),
(52,601,l),
(295,601,l),
(295,582,o),
(268,575,o),
(27,566,c),
(45,356,l)
);
},
{
closed = 1;
nodes = (
(446,165,l),
(437,158,o),
(381,125,o),
(275,130,c),
(275,148,l),
(390,143,o),
(447,185,o),
(447,189,cs),
(447,328,l),
(45,328,l),
(45,197,l),
(207,197,l),
(207,179,l),
(45,179,l),
(48,3,ls),
(48,-70,o),
(382,-77,o),
(491,-42,c),
(855,-42,l),
(855,355,l),
(477,355,l),
(477,84,l),
(447,164,l)
);
},
{
closed = 1;
nodes = (
(675,122,l),
(657,122,l),
(657,230,l),
(675,230,l)
);
}
);
width = 882;
}
);
unicode = 44602;
},
{
glyphname = "gim-ko";
lastChange = "2023-04-07 17:10:19 +0000";
layers = (
{
layerId = "75B71696-F68C-493E-998D-CC33CA41914E";
shapes = (
{
closed = 1;
nodes = (
(855,341,l),
(855,822,l),
(585,822,l),
(585,341,l)
);
},
{
closed = 1;
nodes = (
(52,601,l),
(304,601,l),
(304,582,o),
(286,575,o),
(27,566,c),
(45,343,l),
(534,350,o),
(566,393,o),
(563,813,c),
(52,813,l)
);
},
{
closed = 1;
nodes = (
(63,-42,l),
(855,-42,l),
(855,319,l),
(63,319,l)
);
},
{
closed = 1;
nodes = (
(585,160,l),
(585,142,l),
(324,142,l),
(324,160,l)
);
}
);
width = 882;
}
);
unicode = 44608;
},
